<svg width="80" height="81" viewBox="0 0 80 81" fill="none" xmlns="http://www.w3.org/2000/svg">
<mask id="mask0_325_5301" style="mask-type:alpha" maskUnits="userSpaceOnUse" x="0" y="0" width="80" height="81">
<rect y="0.82373" width="80" height="80" fill="#D9D9D9"/>
</mask>
<g mask="url(#mask0_325_5301)">
<path d="M68.5551 28.157L50.5876 46.0411C48.9165 47.6912 46.8887 48.5214 44.5042 48.532C42.1192 48.5425 40.102 47.7231 38.4526 46.0737L34.5359 42.157C33.6298 41.2298 32.5134 40.7714 31.1867 40.782C29.8595 40.7925 28.7431 41.2509 27.8376 42.157L11.6576 58.3362C11.2859 58.7084 10.847 58.8998 10.3409 58.9103C9.83423 58.9209 9.38423 58.7295 8.9909 58.3362C8.59812 57.9434 8.40173 57.4989 8.40173 57.0028C8.40173 56.5073 8.59812 56.0628 8.9909 55.6695L25.1709 39.4903C26.8415 37.8409 28.8637 37.0109 31.2376 37.0003C33.6115 36.9892 35.634 37.8192 37.3051 39.4903L41.1384 43.3237C42.0784 44.2853 43.2087 44.7609 44.5292 44.7503C45.8498 44.7392 46.9803 44.2637 47.9209 43.3237L65.8376 25.4386H57.1126C56.5615 25.4386 56.1087 25.2614 55.7542 24.907C55.3992 24.5525 55.2217 24.0995 55.2217 23.5478C55.2217 22.9967 55.3992 22.5439 55.7542 22.1895C56.1087 21.8345 56.5615 21.657 57.1126 21.657H69.9334C70.6345 21.657 71.2104 21.8825 71.6609 22.3336C72.112 22.7842 72.3376 23.36 72.3376 24.0611V36.8812C72.3376 37.4328 72.1601 37.8859 71.8051 38.2403C71.4506 38.5948 70.9976 38.772 70.4459 38.772C69.8948 38.772 69.442 38.5948 69.0876 38.2403C68.7326 37.8859 68.5551 37.4328 68.5551 36.8812V28.157Z" fill="#42CC93"/>
</g>
</svg>
