<svg width="25" height="26" viewBox="0 0 25 26" fill="none" xmlns="http://www.w3.org/2000/svg">
<path d="M1.41016 25.8445C1.10026 25.8445 0.840556 25.7396 0.631042 25.5298C0.421285 25.3201 0.316406 25.0603 0.316406 24.7504C0.316406 24.4402 0.421285 24.1805 0.631042 23.9713C0.840556 23.7617 1.10026 23.657 1.41016 23.657H2.89656V3.32453C2.89656 2.5995 3.15469 1.97886 3.67094 1.46261C4.18719 0.946357 4.80783 0.688232 5.53287 0.688232H19.2186C19.9436 0.688232 20.5643 0.946357 21.0805 1.46261C21.5968 1.97886 21.8549 2.5995 21.8549 3.32453V23.657H23.3413C23.6512 23.657 23.9109 23.7619 24.1204 23.9716C24.3302 24.1814 24.4351 24.4412 24.4351 24.7511C24.4351 25.0612 24.3302 25.3209 24.1204 25.5302C23.9109 25.7397 23.6512 25.8445 23.3413 25.8445H1.41016ZM19.6674 23.657V3.32453C19.6674 3.19353 19.6253 3.08598 19.5413 3.00188C19.4572 2.91778 19.3496 2.87573 19.2186 2.87573H13.3572V1.72037C14.3425 1.8679 15.1545 2.31051 15.793 3.04818C16.4315 3.78585 16.7507 4.64639 16.7507 5.62979V21.9715C16.7507 22.6178 16.5338 23.1917 16.0999 23.6931C15.6663 24.1943 15.1252 24.4916 14.4765 24.5852V23.657H19.6674ZM10.9243 14.7385C11.2862 14.7385 11.5905 14.6129 11.8372 14.3616C12.0839 14.11 12.2073 13.8034 12.2073 13.4417C12.2073 13.0798 12.0837 12.7755 11.8365 12.5288C11.5893 12.2821 11.283 12.1588 10.9174 12.1588C10.5603 12.1588 10.256 12.2823 10.0045 12.5295C9.75316 12.7767 9.6275 13.0831 9.6275 13.4486C9.6275 13.8057 9.75316 14.11 10.0045 14.3616C10.256 14.6129 10.5627 14.7385 10.9243 14.7385Z" fill="#42CC93"/>
</svg>
