<svg width="30" height="29" viewBox="0 0 30 29" fill="none" xmlns="http://www.w3.org/2000/svg">
<path d="M24.1947 19.0877C24.1199 18.413 23.8586 17.7568 23.4109 17.1193C22.9632 16.4818 22.3532 16.0162 21.581 15.7226L10.7948 11.5521C10.6434 11.5035 10.4926 11.4642 10.3424 11.4343C10.1922 11.4044 10.0205 11.3895 9.82724 11.3895H8.20922V8.60736C8.20922 8.1774 8.30693 7.77222 8.50235 7.39184C8.69776 7.01122 8.9712 6.70132 9.32266 6.46215L16.5301 1.31861C16.7727 1.1441 17.0207 1.01868 17.2742 0.942361C17.5277 0.866041 17.7868 0.827881 18.0515 0.827881C18.3162 0.827881 18.5811 0.866041 18.8463 0.942361C19.1115 1.01868 19.3547 1.1441 19.5758 1.31861L26.7833 6.46215C27.1347 6.70132 27.4082 7.01122 27.6036 7.39184C27.799 7.77222 27.8967 8.1774 27.8967 8.60736V19.0877H24.1947ZM19.5113 9.18814C19.687 9.18814 19.8408 9.12215 19.9725 8.99017C20.1045 8.85844 20.1705 8.70471 20.1705 8.52898C20.1705 8.35325 20.1045 8.19951 19.9725 8.06778C19.8408 7.9358 19.687 7.86981 19.5113 7.86981C19.3356 7.86981 19.1818 7.9358 19.0501 8.06778C18.9181 8.19951 18.8521 8.35325 18.8521 8.52898C18.8521 8.70471 18.9181 8.85844 19.0501 8.99017C19.1818 9.12215 19.3356 9.18814 19.5113 9.18814ZM16.5946 9.18814C16.7704 9.18814 16.9241 9.12215 17.0558 8.99017C17.1878 8.85844 17.2538 8.70471 17.2538 8.52898C17.2538 8.35325 17.1878 8.19951 17.0558 8.06778C16.9241 7.9358 16.7704 7.86981 16.5946 7.86981C16.4189 7.86981 16.2652 7.9358 16.1334 8.06778C16.0015 8.19951 15.9355 8.35325 15.9355 8.52898C15.9355 8.70471 16.0015 8.85844 16.1334 8.99017C16.2652 9.12215 16.4189 9.18814 16.5946 9.18814ZM19.5113 12.1048C19.687 12.1048 19.8408 12.0388 19.9725 11.9068C20.1045 11.7751 20.1705 11.6214 20.1705 11.4456C20.1705 11.2699 20.1045 11.1162 19.9725 10.9844C19.8408 10.8525 19.687 10.7865 19.5113 10.7865C19.3356 10.7865 19.1818 10.8525 19.0501 10.9844C18.9181 11.1162 18.8521 11.2699 18.8521 11.4456C18.8521 11.6214 18.9181 11.7751 19.0501 11.9068C19.1818 12.0388 19.3356 12.1048 19.5113 12.1048ZM16.5946 12.1048C16.7704 12.1048 16.9241 12.0388 17.0558 11.9068C17.1878 11.7751 17.2538 11.6214 17.2538 11.4456C17.2538 11.2699 17.1878 11.1162 17.0558 10.9844C16.9241 10.8525 16.7704 10.7865 16.5946 10.7865C16.4189 10.7865 16.2652 10.8525 16.1334 10.9844C16.0015 11.1162 15.9355 11.2699 15.9355 11.4456C15.9355 11.6214 16.0015 11.7751 16.1334 11.9068C16.2652 12.0388 16.4189 12.1048 16.5946 12.1048ZM17.6042 28.9147C17.8341 28.9783 18.1062 29.0054 18.4205 28.996C18.7347 28.9867 19.0002 28.9447 19.2167 28.8698L29.3551 25.2717C29.3551 24.5202 29.0938 23.8976 28.5712 23.404C28.0486 22.9103 27.4218 22.6635 26.6907 22.6635H17.9352C17.6567 22.6635 17.366 22.6458 17.0631 22.6103C16.76 22.5748 16.4861 22.5122 16.2414 22.4225L14.0199 21.6569C13.8442 21.5932 13.7199 21.481 13.647 21.3204C13.5741 21.1595 13.5619 20.9918 13.6105 20.8173C13.6591 20.6646 13.769 20.5467 13.9401 20.4636C14.1112 20.3802 14.2846 20.3704 14.4604 20.4341L16.3252 21.11C16.5722 21.2053 16.8288 21.273 17.0952 21.3131C17.3616 21.3534 17.6631 21.3736 17.9997 21.3736H20.7903C21.1585 21.3736 21.472 21.2554 21.7309 21.0189C21.99 20.7824 22.1195 20.465 22.1195 20.0666C22.1195 19.7076 21.9928 19.3468 21.7393 18.9841C21.486 18.6215 21.1753 18.3747 20.807 18.2437L11.3669 14.755C11.2155 14.7102 11.064 14.671 10.9126 14.6372C10.7612 14.6037 10.6051 14.5869 10.4445 14.5869H7.76042V26.0793L17.6042 28.9147ZM0.46875 26.3093C0.46875 26.9338 0.686649 27.4639 1.12245 27.8997C1.558 28.3352 2.08799 28.553 2.7124 28.553H3.32964C3.95405 28.553 4.48403 28.3352 4.91958 27.8997C5.35514 27.4639 5.57292 26.9338 5.57292 26.3093V16.8302C5.57292 16.2058 5.35514 15.6758 4.91958 15.2402C4.48403 14.8047 3.95405 14.5869 3.32964 14.5869H2.7124C2.08799 14.5869 1.558 14.8047 1.12245 15.2402C0.686649 15.6758 0.46875 16.2058 0.46875 16.8302V26.3093Z" fill="#42CC93"/>
</svg>
