<svg width="69" height="66" viewBox="0 0 69 66" fill="none" xmlns="http://www.w3.org/2000/svg">
<path d="M20.138 15.9786L29.7983 3.30102C30.4396 2.44293 31.2013 1.81291 32.0832 1.41095C32.9651 1.0084 33.8961 0.807129 34.8763 0.807129C35.8565 0.807129 36.7875 1.0084 37.6694 1.41095C38.5513 1.81291 39.313 2.44293 39.9543 3.30102L49.6146 15.9786L64.3868 20.9664C65.7981 21.4202 66.8986 22.2202 67.6882 23.3665C68.4784 24.5134 68.8735 25.78 68.8735 27.1663C68.8735 27.8065 68.78 28.4445 68.593 29.0805C68.406 29.7165 68.0988 30.326 67.6712 30.909L58.052 44.2592L58.4093 58.4276C58.4689 60.3087 57.8487 61.8942 56.5487 63.184C55.2494 64.4744 53.735 65.1196 52.0058 65.1196C51.9551 65.1196 51.3573 65.0416 50.2122 64.8856L34.8763 60.4882L19.5404 64.8856C19.2427 65.0047 18.9354 65.0735 18.6186 65.0919C18.3018 65.1104 18.0112 65.1196 17.7468 65.1196C16.0015 65.1196 14.483 64.4744 13.1914 63.184C11.8998 61.8942 11.2837 60.3087 11.3433 58.4276L11.7006 44.1698L2.13588 30.909C1.70832 30.3236 1.40105 29.7117 1.21407 29.0734C1.02709 28.4344 0.933594 27.7958 0.933594 27.1574C0.933594 25.8098 1.32602 24.5566 2.11087 23.3978C2.89572 22.239 3.99201 21.4172 5.39974 20.9325L20.138 15.9786ZM23.4501 20.5957L7.11742 26.0373C6.77382 26.1516 6.5392 26.3865 6.41355 26.742C6.28731 27.0969 6.33882 27.4233 6.56808 27.721L17.0939 42.5763L16.7027 58.5374C16.6794 58.9269 16.8167 59.2359 17.1144 59.4646C17.4122 59.6939 17.7445 59.7513 18.1113 59.637L34.8763 54.9297L51.6413 59.7263C52.0081 59.8406 52.3404 59.7832 52.6382 59.5539C52.9359 59.3253 53.0732 59.0162 53.0499 58.6268L52.6587 42.5763L63.1845 27.8997C63.4138 27.6019 63.4653 27.2756 63.339 26.9207C63.2134 26.5652 62.9788 26.3303 62.6352 26.2159L46.3025 20.5957L35.7356 6.64796C35.529 6.34962 35.2425 6.20045 34.8763 6.20045C34.5101 6.20045 34.2236 6.34962 34.017 6.64796L23.4501 20.5957Z" fill="#42CC93"/>
</svg>
