<svg width="23" height="29" viewBox="0 0 23 29" fill="none" xmlns="http://www.w3.org/2000/svg">
<path d="M10.5335 22.902V23.7293C10.5335 23.8975 10.5967 24.0447 10.7231 24.1711C10.8493 24.2973 10.9964 24.3603 11.1646 24.3603H12.0622C12.238 24.3603 12.3917 24.2945 12.5234 24.1627C12.6552 24.0308 12.721 23.8769 12.721 23.7012V22.902H14.544C14.8539 22.902 15.1137 22.7971 15.3234 22.5874C15.533 22.3779 15.6377 22.1182 15.6377 21.8083V17.4333C15.6377 17.1234 15.533 16.8637 15.3234 16.6542C15.1137 16.4444 14.8539 16.3395 14.544 16.3395H9.80438V14.152H14.544C14.8539 14.152 15.1137 14.0471 15.3234 13.8374C15.533 13.6276 15.6377 13.3678 15.6377 13.0579C15.6377 12.7478 15.533 12.4881 15.3234 12.2788C15.1137 12.0693 14.8539 11.9645 14.544 11.9645H12.721V11.1373C12.721 10.9688 12.658 10.8215 12.5318 10.6954C12.4057 10.5693 12.2585 10.5062 12.0903 10.5062H11.1927C11.017 10.5062 10.8632 10.5721 10.7315 10.7038C10.5995 10.8358 10.5335 10.9896 10.5335 11.1654V11.9645H8.71063C8.40073 11.9645 8.14102 12.0694 7.93151 12.2792C7.72175 12.4887 7.61688 12.7484 7.61688 13.0583V17.4333C7.61688 17.7432 7.72175 18.0029 7.93151 18.2124C8.14102 18.4221 8.40073 18.527 8.71063 18.527H13.4502V20.7145H8.71063C8.40073 20.7145 8.14102 20.8194 7.93151 21.0292C7.72175 21.2389 7.61688 21.4987 7.61688 21.8086C7.61688 22.1188 7.72175 22.3785 7.93151 22.5877C8.14102 22.7973 8.40073 22.902 8.71063 22.902H10.5335ZM3.0738 28.5531C2.3371 28.5531 1.71354 28.2979 1.20313 27.7874C0.692708 27.277 0.4375 26.6535 0.4375 25.9168V3.48103C0.4375 2.74433 0.692708 2.12077 1.20313 1.61035C1.71354 1.09993 2.3371 0.844727 3.0738 0.844727H15.5535L22.3125 7.60374V25.9168C22.3125 26.6535 22.0573 27.277 21.5469 27.7874C21.0365 28.2979 20.4129 28.5531 19.6762 28.5531H3.0738ZM14.4601 3.03223V7.37915C14.4601 7.75273 14.5864 8.06578 14.8389 8.31832C15.0914 8.57085 15.4045 8.69712 15.7781 8.69712H20.125L14.4601 3.03223Z" fill="#42CC93"/>
</svg>
