<svg width="80" height="81" viewBox="0 0 80 81" fill="none" xmlns="http://www.w3.org/2000/svg">
<mask id="mask0_325_5310" style="mask-type:alpha" maskUnits="userSpaceOnUse" x="0" y="0" width="80" height="81">
<rect y="0.82373" width="80" height="80" fill="#42CC93"/>
</mask>
<g mask="url(#mask0_325_5310)">
<path d="M11.2461 34.1571C11.2461 37.3876 11.8486 40.6707 13.0536 44.0062C14.2592 47.3418 16.0434 50.3643 18.4061 53.0737C18.7656 53.4326 18.9784 53.8451 19.0445 54.3112C19.1106 54.7768 18.9642 55.189 18.6053 55.5479C18.2464 55.9068 17.8234 56.0671 17.3361 56.0287C16.8489 55.9904 16.4428 55.7918 16.1178 55.4329C13.3273 52.3518 11.2675 48.9585 9.93865 45.2529C8.60976 41.5479 7.94531 37.8493 7.94531 34.1571C7.94531 30.4649 8.60976 26.7662 9.93865 23.0612C11.2675 19.3557 13.3273 15.9624 16.1178 12.8812C16.4428 12.5224 16.8403 12.3151 17.3103 12.2596C17.7803 12.204 18.1948 12.3451 18.5536 12.6829C18.8914 13.0418 19.0411 13.4679 19.0028 13.9612C18.9645 14.4551 18.7656 14.8815 18.4061 15.2404C16.0434 17.9499 14.2592 20.9724 13.0536 24.3079C11.8486 27.6435 11.2461 30.9265 11.2461 34.1571ZM22.2461 34.1571C22.2461 35.9304 22.602 37.8343 23.3136 39.8687C24.0253 41.9026 25.007 43.7701 26.2586 45.4712C26.5281 45.8646 26.6767 46.2854 26.7045 46.7337C26.7323 47.1826 26.5773 47.576 26.2395 47.9137C25.8806 48.2726 25.4684 48.4382 25.0028 48.4104C24.5367 48.3826 24.152 48.1999 23.8486 47.8621C22.1692 45.8704 20.932 43.6557 20.137 41.2179C19.3425 38.7801 18.9453 36.4265 18.9453 34.1571C18.9453 31.8876 19.3425 29.534 20.137 27.0962C20.932 24.6585 22.1692 22.4437 23.8486 20.4521C24.152 20.1143 24.5228 19.9315 24.9611 19.9037C25.3989 19.876 25.7973 20.0415 26.1561 20.4004C26.5156 20.7382 26.6898 21.1315 26.6786 21.5804C26.6681 22.0287 26.5281 22.4432 26.2586 22.8237C24.9725 24.4349 23.9823 26.2576 23.2878 28.2921C22.5934 30.326 22.2461 32.281 22.2461 34.1571ZM32.1695 64.1246L30.1695 70.1696C30.0456 70.5285 29.832 70.8235 29.5286 71.0546C29.2248 71.2851 28.8764 71.4004 28.4836 71.4004C27.8764 71.4004 27.3817 71.1557 26.9995 70.6662C26.6173 70.1774 26.5328 69.6293 26.7461 69.0221L36.3486 39.9579C35.3614 39.3557 34.587 38.5429 34.0253 37.5196C33.4631 36.4957 33.182 35.3749 33.182 34.1571C33.182 32.2599 33.8434 30.6499 35.1661 29.3271C36.4889 28.0043 38.0989 27.3429 39.9961 27.3429C41.8934 27.3429 43.5034 28.0043 44.8261 29.3271C46.1489 30.6499 46.8103 32.2599 46.8103 34.1571C46.8103 35.3749 46.5348 36.4901 45.9836 37.5029C45.432 38.5157 44.652 39.334 43.6436 39.9579L53.2461 69.0221C53.4595 69.6076 53.375 70.1504 52.9928 70.6504C52.6106 71.1504 52.1159 71.4004 51.5086 71.4004C51.1159 71.4004 50.7731 71.2935 50.4803 71.0796C50.1875 70.8662 49.9792 70.5629 49.8553 70.1696L47.8745 64.1246H32.1695ZM33.4003 60.3429H46.592L39.9961 40.2212L33.4003 60.3429ZM57.7461 34.1571C57.7461 32.4265 57.385 30.5387 56.6628 28.4937C55.9406 26.4487 54.9642 24.5651 53.7336 22.8429C53.4642 22.4496 53.3242 22.0287 53.3136 21.5804C53.3025 21.1315 53.4767 20.7382 53.8361 20.4004C54.195 20.0415 54.5934 19.876 55.0311 19.9037C55.4695 19.9315 55.8403 20.1143 56.1436 20.4521C57.7886 22.4437 59.0225 24.6637 59.8453 27.1121C60.6681 29.561 61.0686 31.9199 61.047 34.1887C61.047 36.4582 60.6411 38.8065 59.8295 41.2337C59.0173 43.661 57.7886 45.8704 56.1436 47.8621C55.8403 48.1999 55.4695 48.3826 55.0311 48.4104C54.5934 48.4382 54.195 48.2726 53.8361 47.9137C53.4767 47.576 53.3025 47.1826 53.3136 46.7337C53.3242 46.2854 53.4642 45.871 53.7336 45.4904C55.0198 43.8793 56.01 42.0565 56.7045 40.0221C57.3989 37.9882 57.7461 36.0332 57.7461 34.1571ZM68.7461 34.1571C68.7461 30.9265 68.1436 27.6435 66.9386 24.3079C65.7331 20.9724 63.9489 17.9499 61.5861 15.2404C61.2267 14.8815 61.0139 14.469 60.9478 14.0029C60.8817 13.5374 61.0281 13.1251 61.387 12.7662C61.7459 12.4074 62.1689 12.2471 62.6561 12.2854C63.1434 12.3237 63.5495 12.5224 63.8745 12.8812C66.6434 15.9624 68.6978 19.3557 70.0378 23.0612C71.3773 26.7662 72.047 30.4649 72.047 34.1571C72.047 37.8837 71.405 41.591 70.1211 45.2787C68.8367 48.9671 66.7714 52.3518 63.9253 55.4329C63.5664 55.7918 63.152 55.9904 62.682 56.0287C62.212 56.0671 61.8081 55.9068 61.4703 55.5479C61.1114 55.189 60.9511 54.7768 60.9895 54.3112C61.0278 53.8451 61.2267 53.4326 61.5861 53.0737C63.9489 50.3643 65.7331 47.3418 66.9386 44.0062C68.1436 40.6707 68.7461 37.3876 68.7461 34.1571Z" fill="#42CC93"/>
</g>
</svg>
