<svg width="150" height="81" viewBox="0 0 150 81" fill="none" xmlns="http://www.w3.org/2000/svg">
<path fill-rule="evenodd" clip-rule="evenodd" d="M116.771 65.6798C116.01 65.6798 115.305 65.3266 115.034 65.0942L114.899 65.5164H114.41L114.342 63.2408H114.791C114.953 63.9488 115.658 65.1626 116.867 65.1626C117.72 65.1626 118.195 64.7539 118.195 64.0439C118.195 63.2953 117.597 63.0095 116.512 62.6825C115.604 62.4095 114.505 61.919 114.505 60.6785C114.505 59.6014 115.359 58.7567 116.703 58.7567C117.245 58.7567 117.815 58.9058 118.14 59.0976L118.29 58.7429H118.765L118.873 60.8559H118.412C118.25 60.0518 117.693 59.2616 116.689 59.2616C115.971 59.2616 115.522 59.6837 115.522 60.2009C115.522 60.9926 116.065 61.1828 117.177 61.5509C118.384 61.9463 119.213 62.4219 119.213 63.609C119.213 64.8896 118.126 65.6798 116.771 65.6798ZM110.352 59.2613C109.456 59.2613 108.752 60.0516 108.697 61.4556H111.723C111.723 60.3637 111.464 59.2613 110.352 59.2613ZM110.501 65.6798C108.371 65.6798 107.381 64.0855 107.381 62.1637C107.381 60.4198 108.507 58.7567 110.366 58.7567C112.306 58.7567 113.024 60.079 113.024 61.5776V62.0146H108.697C108.697 63.6906 109.335 64.9436 110.881 64.9436C111.831 64.9436 112.251 64.4808 112.726 63.6773L113.186 63.9631C112.672 64.9703 111.708 65.6798 110.501 65.6798ZM103.867 65.6798C101.86 65.6798 100.844 64.1801 100.844 62.1905C100.844 60.4054 102.051 58.7567 103.95 58.7567C105.387 58.7567 106.121 59.533 106.121 60.4738C106.121 60.9242 105.931 61.3195 105.442 61.3195C104.913 61.3195 104.615 61.0049 104.615 60.6784C104.615 60.2687 104.763 59.8466 104.791 59.6014C104.627 59.3294 104.289 59.2615 103.922 59.2615C103.109 59.2615 102.214 59.9957 102.214 62.1365C102.214 63.7441 102.974 64.9436 104.194 64.9436C105.062 64.9436 105.578 64.5091 106.067 63.6906L106.5 63.977C105.985 64.9168 104.981 65.6798 103.867 65.6798ZM98.278 57.4735C97.8811 57.4735 97.5458 57.1108 97.5458 56.6887C97.5458 56.2537 97.8811 55.8797 98.278 55.8797C98.745 55.8797 99.0463 56.2706 99.0463 56.6788C99.0463 57.1396 98.7553 57.4735 98.278 57.4735ZM96.8095 65.5024V65.0674C97.0545 65.0387 97.2172 65.0387 97.4066 64.9852C97.6645 64.9045 97.773 64.685 97.773 64.3852V60.3371C97.773 60.0517 97.6245 59.806 97.4066 59.642C97.2444 59.533 96.8509 59.4513 96.6063 59.4374V59.0009L98.913 58.8662L99.0077 58.9618V64.304C99.0077 64.6042 99.1294 64.8212 99.3745 64.9168C99.5777 64.9991 99.7266 65.0387 99.9711 65.0674V65.5024H96.8095ZM95.3173 60.1325C94.7611 61.442 94.2591 62.5458 93.6497 64.0311C93.4312 64.5215 93.2828 64.9313 93.093 65.558H92.5644C91.56 63.0491 91.2745 62.3684 90.3119 60.079C90.1354 59.6703 89.9416 59.4166 89.5827 59.3839V58.947H92.305V59.4107C91.9944 59.4246 91.5185 59.4929 91.5185 59.6976C91.5185 59.7243 91.5742 59.861 91.6137 59.9958L93.1881 63.8537C93.5131 63.0903 94.0698 61.7684 94.5717 60.5279C94.6526 60.3248 94.7611 60.0657 94.7611 59.8744C94.7611 59.5613 94.0698 59.3978 93.8513 59.3691V58.947H96.1684V59.3423C95.7882 59.4246 95.5481 59.6297 95.3173 60.1325ZM88.4717 60.6516C87.9697 60.6516 87.7395 60.3172 87.7395 60.0031C87.7395 59.7895 87.7829 59.6359 87.8326 59.5126C87.1408 59.527 86.5432 60.2007 86.381 60.5005V64.3168C86.381 64.6165 86.5028 64.8211 86.7464 64.9167C86.9781 65.0118 87.3711 65.0386 87.6285 65.0673V65.5023H84.1828V65.0673C84.4269 65.0386 84.5901 65.0386 84.7799 64.9851C85.0368 64.9043 85.1463 64.6849 85.1463 64.3851V60.337C85.1463 60.0655 84.9964 59.7643 84.7799 59.6013C84.6167 59.5057 84.3598 59.4512 84.1148 59.4373V59.0008L86.2848 58.8661L86.381 58.9617V59.8743H86.4081C86.991 59.1247 87.6966 58.7833 88.2385 58.7833C88.7947 58.7833 89.1891 59.1663 89.1891 59.7925C89.1891 60.2295 88.9327 60.6516 88.4717 60.6516ZM80.5308 59.2613C79.6349 59.2613 78.9293 60.0516 78.875 61.4556H81.8996C81.8996 60.3637 81.6422 59.2613 80.5308 59.2613ZM80.6792 65.6798C78.5496 65.6798 77.5594 64.0855 77.5594 62.1637C77.5594 60.4198 78.6856 58.7567 80.5431 58.7567C82.4839 58.7567 83.2023 60.079 83.2023 61.5776V62.0146H78.875C78.875 63.6906 79.5131 64.9436 81.0594 64.9436C82.0091 64.9436 82.4292 64.4808 82.904 63.6773L83.3656 63.9631C82.8508 64.9703 81.8873 65.6798 80.6792 65.6798ZM64.8055 59.2613C63.9096 59.2613 63.2055 60.0516 63.1497 61.4556H66.1744C66.1744 60.3637 65.9175 59.2613 64.8055 59.2613ZM64.9554 65.6798C62.8243 65.6798 61.8351 64.0855 61.8351 62.1637C61.8351 60.4198 62.9609 58.7567 64.8193 58.7567C66.7586 58.7567 67.4776 60.079 67.4776 61.5776V62.0146H63.1497C63.1497 63.6906 63.7878 64.9436 65.3341 64.9436C66.2838 64.9436 66.7039 64.4808 67.1787 63.6773L67.6403 63.9631C67.1255 64.9703 66.162 65.6798 64.9554 65.6798ZM57.7067 65.5024V65.0674C57.9518 65.0387 58.1002 65.0387 58.2915 64.9852C58.5484 64.9044 58.6564 64.685 58.6564 64.3852V60.9925C58.6564 60.0656 58.1826 59.5469 57.5583 59.5469C56.5682 59.5469 56.0662 60.242 55.9035 60.5278V64.3169C55.9035 64.6166 56.0115 64.8212 56.2556 64.9312C56.4454 65.0119 56.6096 65.0387 56.8532 65.0674V65.5024H53.7334V65.0674C53.977 65.0387 54.0983 65.0387 54.2896 64.9852C54.547 64.9044 54.655 64.685 54.655 64.3852V60.9925C54.655 60.0656 54.1802 59.5469 53.5569 59.5469C52.5668 59.5469 52.0638 60.2563 51.9016 60.5417V64.304C51.9016 64.6042 52.0234 64.8073 52.2684 64.9168C52.4716 65.0119 52.6338 65.0387 52.8774 65.0674V65.5024H49.7034V65.0674C49.9475 65.0387 50.1107 65.0387 50.3005 64.9852C50.5574 64.9044 50.6669 64.685 50.6669 64.3852V60.3103C50.6669 60.025 50.5185 59.7926 50.3005 59.6296C50.1373 59.533 49.8533 59.4513 49.6087 59.4374V59.0009L51.7921 58.8661L51.8873 58.9618V59.8882H51.9287C52.4573 59.369 52.9455 58.7567 54.1121 58.7567C54.9671 58.7567 55.5904 59.2739 55.8621 59.9293C56.4183 59.3977 56.9479 58.7567 58.1145 58.7567C59.3763 58.7567 59.9059 59.6836 59.9059 60.9782V64.3169C59.9059 64.6166 60.0129 64.8212 60.258 64.9312C60.4478 65.0119 60.651 65.0387 60.896 65.0674V65.5024H57.7067ZM45.4845 59.2613C44.0476 59.2613 43.6399 60.8145 43.6399 62.1363C43.6399 63.7856 44.1827 65.204 45.4845 65.204C46.7192 65.204 47.2759 63.8124 47.2759 62.1636C47.2759 60.7199 46.8287 59.2613 45.4845 59.2613ZM45.404 65.707C43.7359 65.707 42.271 64.3723 42.271 62.246C42.271 60.188 43.5594 58.7567 45.4987 58.7567C47.4385 58.7567 48.6466 60.2147 48.6466 62.1503C48.6466 64.0855 47.4938 65.707 45.404 65.707ZM37.6725 65.5024V65.0263C37.8895 65.0119 38.3914 64.9703 38.5408 64.9168C38.8396 64.7944 38.921 64.5482 38.921 64.2485V60.883H34.5113V64.1677C34.5113 64.4674 34.5932 64.6849 34.8782 64.8484C35.0281 64.9312 35.5162 65.0119 35.7327 65.0263V65.5024H31.8757V65.0263C32.0922 65.0119 32.5942 64.9703 32.7436 64.9168C33.0419 64.7944 33.1376 64.5482 33.1376 64.2485V57.4348C33.1376 57.1351 33.0291 56.9027 32.7436 56.767C32.5409 56.6714 32.0922 56.5475 31.8757 56.5356V56.0571H35.7327V56.5356C35.5162 56.5475 35.1084 56.6164 34.8782 56.6986C34.5799 56.8081 34.5113 57.0667 34.5113 57.3665V60.2964H38.921V57.4348C38.921 57.1351 38.8253 56.9027 38.5408 56.767C38.3372 56.6714 37.8895 56.5475 37.6725 56.5356V56.0571H41.5299V56.5356C41.3135 56.5475 40.8924 56.6164 40.6754 56.6986C40.3766 56.8081 40.2957 57.0667 40.2957 57.3665V64.1677C40.2957 64.4674 40.3904 64.6849 40.6754 64.8484C40.8253 64.9312 41.3135 65.0119 41.5299 65.0263V65.5024H37.6725ZM72.7582 65.6887C71.808 65.6887 70.812 65.3746 70.1922 65.0209L69.8894 65.498H69.4012L69.3011 62.2697H69.7888C70.2691 63.8774 71.0437 65.116 72.8889 65.116C74.2537 65.116 74.9016 64.4496 74.9016 63.4538C74.9016 62.6586 74.3864 62.026 73.4362 61.645C72.6068 61.3136 72.1527 61.209 71.3603 60.8692C70.2513 60.3911 69.5743 59.6554 69.5743 58.4158C69.5743 56.9587 70.9579 55.8559 72.5999 55.8559C73.5225 55.8559 74.2858 56.1542 74.9056 56.5094L75.1941 56.0585H75.6822L75.7404 59.1916H75.237C74.8139 57.7276 74.3134 56.4271 72.5136 56.4271C71.5575 56.4271 70.7735 57.0395 70.7735 57.8302C70.7735 58.777 71.2055 59.1688 72.0905 59.581C72.7794 59.8996 73.416 60.07 74.0496 60.343C75.2172 60.8201 76.1575 61.3433 76.1575 62.8152C76.1575 64.5031 74.7039 65.6887 72.7582 65.6887ZM138.005 37.1415V36.3919H132.874V37.1415C133.747 37.2054 134.834 37.2703 134.834 37.9114C134.834 38.275 133.343 40.7997 131.47 43.8159C129.596 40.393 128.232 37.9332 128.232 37.6334C128.232 37.1623 129.489 37.1836 130.17 37.1415V36.3919H123.889V37.1415C124.23 37.1623 124.761 37.2703 125.103 37.4833C125.571 37.784 125.869 38.1259 126.316 38.9176C127.211 40.5 128.019 41.9982 129.02 43.9447C129.361 44.5863 129.701 45.3136 129.701 45.5494V49.1432C129.701 49.6367 129.574 50.0424 129.063 50.256C128.765 50.3625 127.763 50.4492 127.381 50.4705V51.2191H134.28V50.4705C133.897 50.4492 132.832 50.256 132.597 50.1495C132.108 49.9136 131.917 49.5505 131.917 49.0362V46.2123C131.917 45.2076 132.023 44.9078 132.555 43.967C133.832 41.7212 134.684 40.1586 135.77 38.6392C136.28 37.9114 136.388 37.8475 136.878 37.5264C137.09 37.3773 137.772 37.1623 138.005 37.1415ZM119.448 45.1646H115.019L117.211 39.4097L119.448 45.1646ZM125.388 51.2191V50.4705C125.026 50.4492 124.452 50.3199 124.111 50.1277C123.664 49.8066 123.408 49.4856 123.217 48.9728L118.298 36.1784H117.468C115.849 40.3296 114.125 44.9078 112.613 48.6513C112.293 49.443 111.974 49.7858 111.527 50.0856C111.165 50.3199 110.548 50.4492 110.185 50.4705V51.2191H115.743V50.4705C115.061 50.4284 113.613 50.2347 113.613 49.5505C113.613 49.2508 113.7 48.8658 113.848 48.3739C114.039 47.6892 114.337 46.8762 114.635 46.0845H119.809L121.046 49.4217C121.088 49.5282 121.13 49.7427 121.13 49.8706C121.13 50.256 119.916 50.4284 119.234 50.4705V51.2191H125.388ZM111.921 37.1415V36.3919H106.577V37.1415C107.471 37.2054 108.621 37.3773 108.621 38.0605C108.621 38.4241 108.536 38.874 108.237 40.008C107.769 41.8272 107.066 44.3728 106.065 47.8383L102.359 36.6064H101.338L97.6528 47.6039C96.2697 42.7681 95.2692 39.2802 94.9916 38.2329C94.9709 38.1051 94.9073 37.8049 94.9073 37.677C94.9073 37.2475 96.142 37.1836 96.8229 37.1415V36.3919H90.7974V37.1415C91.1583 37.1623 91.713 37.2921 92.0326 37.5051C92.4581 37.8049 92.6706 38.1051 92.7978 38.5539L96.4181 51.4113H97.3348L101.209 40.008L104.936 51.4113H105.895C107.279 46.8975 108.875 41.6766 109.707 38.8968C109.919 38.1898 110.218 37.8475 110.686 37.5472C111.048 37.3134 111.58 37.1623 111.921 37.1415ZM86.2298 45.1646H81.8004L83.9931 39.4097L86.2298 45.1646ZM92.1701 51.2191V50.4705C91.8077 50.4492 91.2333 50.3199 90.8925 50.1277C90.4453 49.8066 90.1899 49.4856 89.9986 48.9728L85.08 36.1784H84.2491C82.6313 40.3296 80.9065 44.9078 79.3942 48.6513C79.0747 49.443 78.7546 49.7858 78.3079 50.0856C77.9455 50.3199 77.3291 50.4492 76.9672 50.4705V51.2191H82.5248V50.4705C81.8429 50.4284 80.3947 50.2347 80.3947 49.5505C80.3947 49.2508 80.4805 48.8658 80.6294 48.3739C80.8202 47.6892 81.1185 46.8762 81.4173 46.0845H86.5908L87.827 49.4217C87.8689 49.5282 87.9118 49.7427 87.9118 49.8706C87.9118 50.256 86.6978 50.4284 86.0164 50.4705V51.2191H92.1701ZM75.9016 51.2191V50.4705C75.5604 50.4492 74.7941 50.3199 74.5604 50.1916C74.1132 49.9364 73.9633 49.5936 73.9633 49.1219V38.4464C73.9633 37.9753 74.0925 37.5695 74.5604 37.3981C74.9016 37.2703 75.5604 37.1623 75.9016 37.1415V36.3919H69.7903V37.1415C70.1315 37.1623 70.8346 37.356 71.1527 37.5051C71.5994 37.7201 71.7498 38.0838 71.7498 38.5539V43.047H64.8293V38.4464C64.8293 37.9753 64.9353 37.5695 65.4037 37.3981C65.7662 37.2703 66.4057 37.1623 66.7444 37.1415V36.3919H60.6351V37.1415C60.9748 37.1623 61.6779 37.356 61.9975 37.5051C62.4442 37.7201 62.6153 38.0838 62.6153 38.5539V49.2507C62.6153 49.7214 62.4654 50.1063 61.9975 50.2986C61.7628 50.3853 60.9748 50.4492 60.6351 50.4705V51.2191H66.7444V50.4705C66.4057 50.4492 65.6384 50.3199 65.4037 50.1916C64.957 49.9364 64.8293 49.5936 64.8293 49.1219V43.967H71.7498V49.2507C71.7498 49.7214 71.6226 50.1063 71.1527 50.2986C70.9194 50.3853 70.1315 50.4492 69.7903 50.4705V51.2191H75.9016ZM58.729 40.4148V36.3919H45.8678V40.4148H46.6119C46.8466 39.474 47.9545 37.4199 48.8697 37.2921C49.3801 37.2267 50.2109 37.2054 50.5941 37.2054H51.1907V49.1655C51.1907 49.6367 51.0423 50.0424 50.5304 50.2347C50.2316 50.3407 49.2104 50.4492 48.8273 50.4705V51.2191H55.7902V50.4705C55.4071 50.4492 54.3218 50.256 54.0654 50.1495C53.5758 49.9136 53.4052 49.5282 53.4052 49.058V37.2054H54.023C54.5333 37.2054 55.2158 37.2267 55.7261 37.2921C56.6418 37.4199 57.7705 39.474 58.0052 40.4148H58.729ZM40.4796 45.1646H36.0506L38.2439 39.4097L40.4796 45.1646ZM46.4209 51.2191V50.4705C46.059 50.4492 45.484 50.3199 45.1443 50.1277C44.6966 49.8066 44.4406 49.4856 44.2483 48.9728L39.3303 36.1784H38.4994C36.8816 40.3296 35.1568 44.9078 33.6459 48.6513C33.3259 49.443 33.0064 49.7858 32.5597 50.0856C32.1972 50.3199 31.5789 50.4492 31.218 50.4705V51.2191H36.7751V50.4705C36.0931 50.4284 34.6464 50.2347 34.6464 49.5505C34.6464 49.2508 34.7307 48.8658 34.8801 48.3739C35.0715 47.6892 35.3708 46.8762 35.6676 46.0845H40.8416L42.0768 49.4217C42.1197 49.5282 42.1616 49.7427 42.1616 49.8706C42.1616 50.256 40.9491 50.4284 40.2676 50.4705V51.2191H46.4209ZM30.1526 51.2191V50.4705C29.8119 50.4492 29.0452 50.3199 28.8104 50.1916C28.3637 49.9364 28.2148 49.5936 28.2148 49.1219V38.4464C28.2148 37.9753 28.3415 37.5695 28.8104 37.3981C29.1517 37.2703 29.8119 37.1623 30.1526 37.1415V36.3919H24.0408V37.1415C24.382 37.1623 25.0837 37.356 25.4042 37.5051C25.8509 37.7201 26.0003 38.0838 26.0003 38.5539V43.047H19.0793V38.4464C19.0793 37.9753 19.1858 37.5695 19.6548 37.3981C20.0167 37.2703 20.6557 37.1623 20.996 37.1415V36.3919H14.8846V37.1415C15.2258 37.1623 15.929 37.356 16.2475 37.5051C16.6943 37.7201 16.8654 38.0838 16.8654 38.5539V49.2507C16.8654 49.7214 16.7169 50.1063 16.2475 50.2986C16.0138 50.3853 15.2258 50.4492 14.8846 50.4705V51.2191H20.996V50.4705C20.6557 50.4492 19.8885 50.3199 19.6548 50.1916C19.2075 49.9364 19.0793 49.5936 19.0793 49.1219V43.967H26.0003V49.2507C26.0003 49.7214 25.8721 50.1063 25.4042 50.2986C25.1695 50.3853 24.382 50.4492 24.0408 50.4705V51.2191H30.1526ZM142.72 27.137H141.959C141.742 27.792 140.917 29.5379 140.264 30.2151C139.743 30.7611 138.536 30.7175 137.407 30.7175C135.212 30.7175 134.842 30.5208 134.842 28.7298V24.1887H136.245C137.548 24.1887 137.831 24.539 138.091 24.8437C138.351 25.1721 138.678 26.1318 138.72 26.7654H139.503V20.8495H138.72C138.634 21.4168 138.395 22.2689 138.091 22.6395C137.831 22.967 137.548 23.3163 136.245 23.3163H134.842V17.3127H136.919C137.613 17.3127 138.221 17.3335 138.743 17.3994C139.656 17.5088 140.742 19.1462 141.003 20.1069H141.785V16.4605H130.432V17.225C130.779 17.2463 131.605 17.4216 131.974 17.5965C132.452 17.8145 132.583 18.1851 132.583 18.6662V29.5379C132.583 30.0179 132.431 30.3885 131.974 30.6075C131.714 30.6942 130.779 30.8037 130.432 30.8265V31.5899H142.437L142.72 27.137ZM123.634 20.3035C123.634 22.4868 122.178 23.8185 120.223 23.8185H118.832V17.3334H120.637C122.287 17.3334 123.634 18.2073 123.634 20.3035ZM129.219 31.5899V30.8265C128.849 30.8037 128.218 30.7383 127.828 30.5421C127.35 30.2805 126.872 29.9525 126.242 29.1009C124.699 27.027 124.221 26.3067 122.57 24.1466C124.655 23.5129 126.242 22.4646 126.242 20.0628C126.242 17.4652 123.982 16.4605 121.505 16.4605H114.552V17.225C114.9 17.2463 115.617 17.3781 115.965 17.4865C116.442 17.6837 116.573 18.1202 116.573 18.6008V29.5379C116.573 30.0179 116.421 30.4326 115.965 30.6293C115.704 30.7175 114.9 30.8037 114.552 30.8265V31.5899H120.918V30.8265C120.571 30.8037 119.68 30.7175 119.441 30.6293C118.963 30.4326 118.832 30.0179 118.832 29.5379V24.7347H120.354C122.07 26.9403 123.374 28.7744 125.156 31.5899H129.219ZM111.547 31.5899V30.8265C111.157 30.8037 110.222 30.6516 109.961 30.5421C109.462 30.3018 109.288 29.9525 109.288 29.472V18.5349C109.288 18.0548 109.418 17.6619 109.961 17.4865C110.352 17.3563 111.157 17.2463 111.547 17.225V16.4605H104.768V17.225C105.158 17.2463 105.964 17.4434 106.354 17.5965C106.897 17.8145 107.028 18.1638 107.028 18.6434V29.6037C107.028 30.0833 106.876 30.4554 106.354 30.6516C106.073 30.7383 105.158 30.8037 104.768 30.8265V31.5899H111.547ZM101.77 31.5899V30.8265C101.422 30.8037 100.639 30.6729 100.401 30.5421C99.9449 30.2805 99.7921 29.9312 99.7921 29.4502V18.5562C99.7921 18.0766 99.9222 17.6619 100.401 17.4865C100.749 17.3563 101.422 17.2463 101.77 17.225V16.4605H95.5337V17.225C95.8823 17.2463 96.5978 17.4434 96.9242 17.5965C97.3799 17.8145 97.5327 18.1851 97.5327 18.6662V23.2509H90.4712V18.5562C90.4712 18.0766 90.5802 17.6619 91.0585 17.4865C91.4278 17.3563 92.0796 17.2463 92.4258 17.225V16.4605H86.1907V17.225C86.5388 17.2463 87.2558 17.4434 87.5812 17.5965C88.0383 17.8145 88.2119 18.1851 88.2119 18.6662V29.5815C88.2119 30.0615 88.059 30.4554 87.5812 30.6516C87.342 30.7383 86.5388 30.8037 86.1907 30.8265V31.5899H92.4258V30.8265C92.0796 30.8037 91.2976 30.6729 91.0585 30.5421C90.6014 30.2805 90.4712 29.9312 90.4712 29.4502V24.1887H97.5327V29.5815C97.5327 30.0615 97.403 30.4554 96.9242 30.6516C96.6856 30.7383 95.8823 30.8037 95.5337 30.8265V31.5899H101.77ZM69.9021 31.5899V30.8265C69.554 30.8037 68.9228 30.7383 68.5328 30.5421C68.0545 30.2805 67.4253 29.8425 66.8381 29.1009C65.0343 26.8313 63.9919 25.4778 61.9279 23.1206C63.774 21.3514 64.7952 20.1069 66.5555 18.0979C67.2513 17.3127 68.8158 17.225 69.0323 17.225V16.4605H63.3835V17.225C63.7533 17.2463 64.948 17.3127 64.948 17.7491C64.948 18.7965 62.3835 21.5917 59.7765 23.7755H59.5813V18.5562C59.5813 18.0766 59.6907 17.6619 60.1897 17.4865C60.5379 17.3563 61.2326 17.2463 61.5802 17.225V16.4605H55.3446V17.225C55.6923 17.2463 56.387 17.4434 56.7135 17.5965C57.1691 17.8145 57.3219 18.1851 57.3219 18.6662V29.5815C57.3219 30.0615 57.1691 30.4554 56.7135 30.6516C56.4521 30.7383 55.6923 30.8037 55.3446 30.8265V31.5899H61.5802V30.8265C61.2326 30.8037 60.4077 30.6516 60.1897 30.5421C59.7341 30.3018 59.5813 29.9312 59.5813 29.4502V24.1887H59.8421C61.9496 26.4375 64.0565 29.0355 65.6862 31.5899H69.9021ZM48.26 20.3035C48.26 22.4868 46.8049 23.8185 44.8478 23.8185H43.4578V17.3334H45.2615C46.9134 17.3334 48.26 18.2073 48.26 20.3035ZM53.8432 31.5899V30.8265C53.4749 30.8037 52.8447 30.7383 52.4527 30.5421C51.9764 30.2805 51.4981 29.9525 50.8674 29.1009C49.3235 27.027 48.8472 26.3067 47.1949 24.1466C49.2816 23.5129 50.8674 22.4646 50.8674 20.0628C50.8674 17.4652 48.6081 16.4605 46.1313 16.4605H39.1773V17.225C39.5254 17.2463 40.2428 17.3781 40.5904 17.4865C41.0682 17.6837 41.1979 18.1202 41.1979 18.6008V29.5379C41.1979 30.0179 41.0461 30.4326 40.5904 30.6293C40.3286 30.7175 39.5254 30.8037 39.1773 30.8265V31.5899H45.5435V30.8265C45.1959 30.8037 44.3044 30.7175 44.0667 30.6293C43.5889 30.4326 43.4578 30.0179 43.4578 29.5379V24.7347H44.9794C46.6954 26.9403 47.9996 28.7744 49.7806 31.5899H53.8432ZM36.1918 27.137H35.4304C35.2135 27.792 34.3885 29.5379 33.7367 30.2151C33.2145 30.7611 32.0079 30.7175 30.8787 30.7175C28.683 30.7175 28.3137 30.5208 28.3137 28.7298V24.1887H29.716C31.0202 24.1887 31.3013 24.539 31.5636 24.8437C31.8235 25.1721 32.1489 26.1318 32.1933 26.7654H32.9753V20.8495H32.1933C32.107 21.4168 31.8679 22.2689 31.5636 22.6395C31.3013 22.967 31.0202 23.3163 29.716 23.3163H28.3137V17.3127H30.3896C31.0848 17.3127 31.6933 17.3335 32.2155 17.3994C33.1282 17.5088 34.2145 19.1462 34.4748 20.1069H35.2569V16.4605H23.9035V17.225C24.2511 17.2463 25.077 17.4216 25.4464 17.5965C25.9242 17.8145 26.0548 18.1851 26.0548 18.6662V29.5379C26.0548 30.0179 25.9025 30.3885 25.4464 30.6075C25.1855 30.6942 24.2511 30.8037 23.9035 30.8265V31.5899H35.9092L36.1918 27.137ZM18.1039 27.0924C18.1039 28.8833 17.4304 30.7382 14.8446 30.7382C13.5409 30.7382 12.6075 30.2804 12.6075 29.3852V24.0584C12.9985 24.0366 13.9319 24.0157 14.6488 24.0157C16.887 24.0157 18.1039 25.3029 18.1039 27.0924ZM17.3436 19.976C17.3436 21.8324 16.3436 23.1626 13.9536 23.1626H12.6075V17.3562C13.1282 17.3334 13.9536 17.3126 14.3239 17.3126C15.67 17.3126 17.3436 17.7709 17.3436 19.976ZM20.7105 27.4873C20.7105 24.6936 18.1258 23.7538 16.322 23.514V23.4273C18.1687 22.9903 19.8856 21.9643 19.8856 19.7586C19.8856 17.2919 17.5173 16.4616 15.5183 16.4616H8.37048V17.226C8.71811 17.2473 9.32559 17.3791 9.7393 17.5758C10.1954 17.7933 10.3478 18.1862 10.3478 18.6672V29.5389C10.3478 30.019 10.1954 30.3683 9.7393 30.5872C9.45676 30.6952 8.65253 30.8047 8.2832 30.8275V31.591H15.6268C18.0173 31.591 20.7105 30.3029 20.7105 27.4873ZM77.766 31.8955C76.1734 31.8955 74.5634 31.3931 73.5269 30.8264L73.0196 31.5898H72.1468L71.9791 26.4156H72.8519C73.5984 28.8179 75.1137 31.0652 77.9825 31.0652C80.2009 31.0652 81.3099 29.8424 81.3099 28.2496C81.3099 27.0487 80.3454 25.9593 78.8996 25.4133C77.5003 24.9119 76.7537 24.7162 75.4278 24.1703C73.5703 23.4058 72.4372 22.2247 72.4372 20.2381C72.4372 17.9021 74.7518 16.1334 77.5003 16.1334C79.0436 16.1334 80.2699 16.614 81.3054 17.1813L81.7882 16.4604H82.6609L82.7571 21.4821H81.8611C81.1614 19.1679 80.1763 16.9618 77.3563 16.9618C75.8617 16.9618 74.4786 18.0319 74.4786 19.2992C74.4786 20.6081 75.3469 21.432 76.6487 22.0003C77.806 22.5017 78.8671 22.7865 79.9282 23.2225C81.8814 23.987 83.4573 24.9317 83.4573 27.289C83.4573 29.996 81.0209 31.8955 77.766 31.8955Z" fill="#757575"/>
</svg>
