<svg width="150" height="81" viewBox="0 0 150 81" fill="none" xmlns="http://www.w3.org/2000/svg">
<path fill-rule="evenodd" clip-rule="evenodd" d="M12.2051 49.9731V11.9321H17.5358V33.7577L27.0344 24.3173H34.1233L40.884 39.8837L47.4592 24.3173H51.2311L57.7521 39.8837L64.4753 24.3173H69.9446L58.7753 49.9731H56.753L49.3012 32.5462L41.9677 49.9731H39.9161L30.1414 27.4402L25.1014 33.0007L32.2809 49.9731H26.8807L21.4445 37.1817L17.5358 41.0504V49.9731H12.2051ZM134.683 58.3398C133.886 57.3127 132.75 57.0688 131.881 57.0688C130.366 57.0688 129.221 58.1016 129.221 59.4675C129.221 61.0266 130.524 61.5124 131.916 62.0313C133.512 62.6262 135.225 63.2647 135.225 65.6141C135.225 67.5457 133.619 69.0542 131.564 69.0542C130.531 69.0542 129.422 68.7725 128.33 67.9489V66.8088C129.559 67.9698 130.531 68.1539 131.51 68.1539C133.009 68.1539 134.168 67.0669 134.168 65.6512C134.168 63.9313 132.776 63.4021 131.333 62.8534C129.779 62.2628 128.166 61.6496 128.166 59.5042C128.166 57.6478 129.788 56.1764 131.79 56.1704C132.806 56.1704 134.103 56.5844 134.682 57.2742L134.683 58.3398ZM102.727 68.8574L107.951 56.2114H108.43L113.651 68.8574H112.735L110.95 64.5118H105.428L103.637 68.8574H102.727ZM71.0782 56.2243L67.7165 66.6162L63.6666 56.2883H62.6277L67.4968 68.9603H67.9531L71.4343 57.7897L74.9737 68.9603H75.4312L80.2771 56.2883H79.2141L75.2217 66.6076L71.8163 56.2243H71.0782ZM135.736 67.8218C135.737 68.5102 136.298 69.0677 136.989 69.0677C137.676 69.0677 138.24 68.5089 138.24 67.8218C138.238 67.1352 137.679 66.5793 136.989 66.5781C136.299 66.5775 135.738 67.1339 135.736 67.8218ZM135.895 67.8217C135.898 67.2217 136.387 66.7368 136.989 66.7362C137.59 66.7385 138.076 67.2234 138.078 67.8217C138.078 68.1094 137.964 68.3856 137.76 68.5892C137.555 68.7929 137.278 68.9074 136.989 68.9075C136.7 68.9082 136.421 68.7942 136.216 68.5905C136.011 68.3868 135.895 68.1103 135.895 67.8217ZM84.4772 68.8573V56.2773H85.4564V68.046H90.6579V68.8573H84.4772ZM92.459 56.2773V68.8573H98.6387V68.046H93.4341V56.2773H92.459ZM101.341 68.8574H100.362V56.2785H101.341V68.8574ZM81.6928 68.8574H82.6777V56.2785H81.6928V68.8574ZM108.178 57.7937L110.617 63.7058H105.761L108.178 57.7937ZM120.793 62.1407L125.598 56.302H126.578V68.8574H125.598V57.7237H125.557L120.793 63.5901L116.023 57.7237H115.987V68.8574H115.005V56.302H115.987L120.793 62.1407ZM31.0494 68.8921V56.3162H32.864V67.2669H37.5415V68.8921H31.0494ZM38.7046 56.3162V68.8921H45.1968V67.2669H40.52V56.3162H38.7046ZM46.3666 68.8921V56.3162H53.5333V57.9384H48.1812V61.7364H53.3508V63.3616H48.1812V67.2669H53.7009V68.8921H46.3666ZM63.0194 68.8892L60.6805 63.0149C62.0706 61.8704 62.2284 61.0939 62.213 59.836C62.1935 57.6602 60.6241 56.3166 58.067 56.3166H54.8821V68.8941H56.6975V63.27C56.6975 63.27 58.1965 63.2715 58.8599 63.2674L61.1429 68.89H63.0194V68.8892ZM56.6972 57.8658V61.813L57.8631 61.8126C59.8066 61.8126 60.3636 60.8177 60.3448 59.764C60.3264 58.5862 59.6225 57.8658 57.8631 57.8658H56.6972ZM22.5445 56.3162V68.8712H29.8644V67.249H24.3572V63.3477H29.5136V61.7281H24.3572V57.9372H29.6992V56.3162H22.5445ZM18.6737 57.0081L19.3149 56.3169H21.566L20.0834 57.9335L17.3305 60.9344L19.8885 67.2314L20.5481 68.848V68.8494H18.6782L16.0392 62.3464L14.024 64.5457V68.8468H12.2124V56.3169H14.024V62.0464L18.6737 57.0081ZM137.218 67.8832L137.472 68.5243L137.265 68.5251L137.017 67.9101H136.779V68.5258H136.584V67.1546H136.933C137.211 67.1546 137.382 67.3008 137.383 67.5391C137.383 67.6756 137.366 67.7579 137.218 67.8832ZM136.779 67.323V67.755L136.91 67.7558C137.121 67.7558 137.181 67.6454 137.181 67.5321C137.18 67.4038 137.098 67.323 136.91 67.323H136.779Z" fill="#757575"/>
</svg>
