<svg width="151" height="81" viewBox="0 0 151 81" fill="none" xmlns="http://www.w3.org/2000/svg">
<path d="M113.731 35.6486C114.256 35.6486 114.656 35.2236 114.656 34.7237C114.656 34.1988 114.231 33.7989 113.731 33.7989C113.206 33.7989 112.806 34.2238 112.806 34.7237C112.806 35.2236 113.231 35.6486 113.731 35.6486ZM97.5838 46.5718H94.7592V39.6479H96.284C98.4586 39.6479 98.6586 40.5978 98.6586 42.1725H98.9835V36.6734H98.6586C98.6586 38.0232 98.4586 39.323 96.309 39.323H94.7592V32.6491H98.0087C100.208 32.6491 101.783 33.4489 101.783 35.8485H102.108L101.858 32.3241H91.7847V32.6491H92.6596V46.5718H91.7847V46.8967H102.908V42.6474H102.558C102.558 46.1719 100.933 46.5718 97.5838 46.5718ZM114.756 37.9482C114.331 38.3731 113.681 38.3981 113.006 38.3981H112.306V38.7231H113.006V46.5468H112.306V46.8717H115.456V46.5468H114.756V37.9482ZM106.932 46.5718H106.232V31.6742C105.807 32.1491 105.157 32.1991 104.482 32.1991H103.783V32.5241H104.482V46.5718H103.783V46.8967H106.932V46.5718ZM111.231 46.5718H110.531V31.6742C110.106 32.1491 109.457 32.1991 108.782 32.1991H108.082V32.5241H108.782V46.5718H108.082V46.8967H111.231V46.5718ZM149.3 46.5718V40.2978C149.3 39.073 148.675 37.9482 146.475 37.9482C144.976 37.9482 143.926 39.073 143.401 40.0729H143.351V37.9482C142.976 38.3981 142.601 38.3981 141.601 38.3981H140.926V38.7231H141.601V46.5468H140.926V46.8717H143.976V46.5468H143.351V40.7228C143.726 40.0229 144.626 38.2732 146.35 38.2732C147.025 38.2732 147.575 38.6481 147.575 39.7729V46.5468H146.9V46.8717H150V46.5468H149.3V46.5718ZM137.152 45.072C137.152 45.497 136.477 46.6468 134.927 46.6468C133.603 46.6468 133.428 45.7719 133.428 44.6221C133.428 42.3975 135.302 42.3725 136.827 42.3725H137.177V45.072H137.152ZM139.502 46.6968C138.952 46.6968 138.877 46.1718 138.877 45.7969V40.3728C138.877 38.7731 137.002 37.9732 135.452 37.9732C133.378 37.9732 132.253 39.123 132.253 40.1978C132.253 40.8977 132.578 41.3477 133.153 41.3477C133.703 41.3477 134.102 40.9727 134.102 40.4728C134.102 39.548 133.428 39.7729 133.428 39.273C133.428 38.5231 134.827 38.2982 135.427 38.2982C136.202 38.2982 137.127 38.5231 137.127 39.498V42.0475H136.727C134.602 42.0475 131.503 42.6224 131.503 44.9471C131.503 46.3468 132.478 47.1717 134.102 47.1717C135.477 47.1717 136.402 46.8217 137.102 45.8969H137.152C137.302 46.6218 138.002 47.1717 138.977 47.1717C139.877 47.1717 140.401 46.7468 140.801 46.0469L140.576 45.8719C140.276 46.2968 139.976 46.6968 139.502 46.6968ZM19.7467 39.398V41.5226H16.8972V47.5466C19.2468 46.4468 20.9465 44.1972 21.2465 41.5226H23.3711C22.9712 46.1219 19.3468 49.8212 14.7726 50.3212V31.0743C19.1968 31.5492 22.7212 35.0237 23.3211 39.398H21.1715C20.7466 36.9234 19.0968 34.8737 16.8972 33.8489V39.398H19.7467ZM12.6729 50.3212C7.8237 49.7962 4.04933 45.6719 4.04933 40.6978C4.04933 35.7235 7.8237 31.5992 12.6729 31.0743V50.3212ZM13.6977 29.5496C7.54874 29.5496 2.54958 34.5487 2.54958 40.6978C2.54958 46.8467 7.54874 51.8459 13.6977 51.8459C19.8467 51.8459 24.8459 46.8467 24.8459 40.6978C24.8459 34.5487 19.8467 29.5496 13.6977 29.5496ZM13.6977 53.0207C6.89885 53.0207 1.37477 47.4966 1.37477 40.6978C1.37477 33.8988 6.89885 28.3748 13.6977 28.3748C20.4966 28.3748 26.0207 33.8988 26.0207 40.6978C26.0207 47.4966 20.4966 53.0207 13.6977 53.0207ZM13.6977 27C6.14898 27 0 33.149 0 40.6978C0 48.2465 6.14898 54.3955 13.6977 54.3955C21.2465 54.3955 27.3954 48.2465 27.3954 40.6978C27.3954 33.149 21.2465 27 13.6977 27ZM10.5483 47.5716V33.8489C7.94868 35.0487 6.17397 37.6733 6.17397 40.6978C6.14898 43.7473 7.94868 46.3468 10.5483 47.5716ZM119.28 46.5718H118.655V40.7228C119.255 39.248 120.18 38.2732 121.43 38.2732C122.254 38.2732 122.779 38.6731 122.779 39.6979V46.5468H122.104V46.8717H125.154V46.5468H124.529V41.0227C124.954 39.573 126.004 38.2732 127.204 38.2732C127.978 38.2732 128.653 38.5981 128.653 40.0979V46.5468H127.978V46.8717H131.078V46.5468H130.403V40.4728C130.403 39.173 129.703 37.9732 127.579 37.9482C126.029 37.9232 124.979 38.973 124.579 40.1728H124.529C124.354 38.3232 123.029 37.9482 121.705 37.9482C120.155 37.9482 119.28 38.973 118.73 39.9729H118.68V37.9482C118.305 38.3981 117.93 38.3981 116.93 38.3981H116.255V38.7231H116.93V46.5468H116.255V46.8717H119.305V46.5718H119.28Z" fill="#757575"/>
<path d="M43.1171 36.6485C43.0172 36.3985 42.8922 36.1235 42.7672 35.8735C42.8922 36.0985 43.0172 36.3735 43.1171 36.6485ZM35.9683 46.4968H34.2436V32.6991H35.1935C40.5926 32.6991 41.2175 36.6485 41.2175 39.598C41.2424 45.297 38.3929 46.4968 35.9683 46.4968ZM36.5932 32.2491H30.9942V32.6991H32.019V46.4968H30.9942V46.9467H36.5932C40.9175 46.9467 43.692 44.0722 43.692 39.598C43.692 37.9232 43.1421 36.1485 42.2173 34.8737C40.9925 33.174 39.0428 32.2491 36.5932 32.2491ZM81.2108 45.072C81.2108 45.447 80.5609 46.5968 79.0361 46.5968C77.8114 46.5968 77.5864 45.8719 77.5864 44.6221C77.5864 42.4225 79.5111 42.4225 80.9108 42.4225H81.2108V45.072ZM84.6602 45.8219C84.3603 46.2469 84.0853 46.6218 83.6354 46.6218C83.2354 46.6218 83.0855 46.3468 83.0855 45.7719V40.3478C83.0855 39.598 82.6855 38.9481 81.9357 38.4981C81.2858 38.0982 80.4359 37.8982 79.5861 37.8982C77.4864 37.8982 76.3366 39.073 76.3366 40.1729C76.3366 40.9227 76.7115 41.3977 77.3114 41.3977C77.8863 41.3977 78.3113 40.9977 78.3113 40.4728C78.3113 39.8979 78.0613 39.7479 77.8613 39.598C77.7364 39.498 77.6364 39.448 77.6364 39.273C77.6364 38.5981 78.9862 38.3482 79.5861 38.3482C80.3359 38.3482 81.2358 38.5481 81.2358 39.498V41.9726H80.9108C78.3613 41.9726 75.6367 42.7474 75.6367 44.9221C75.6367 46.3468 76.6365 47.1967 78.2863 47.1967C79.711 47.1967 80.6109 46.8218 81.2858 45.9469C81.4857 46.6968 82.2356 47.1967 83.1355 47.1967C83.9603 47.1967 84.5602 46.8218 85.0102 46.0469L85.0351 45.9969L84.7102 45.7719L84.6602 45.8219ZM50.8658 43.3473C50.8658 45.347 50.6909 46.7468 48.5162 46.7468C46.3416 46.7468 46.1666 45.347 46.1666 43.3473V41.7226C46.1666 39.7229 46.3416 38.3232 48.5162 38.3232C50.6909 38.3232 50.8658 39.7229 50.8658 41.7226V43.3473ZM48.5412 37.8733C45.7667 37.8733 44.092 40.2479 44.092 42.5225C44.092 44.8221 45.7667 47.1717 48.5412 47.1717C51.3158 47.1717 52.9905 44.7971 52.9905 42.5225C52.9905 40.2479 51.3158 37.8733 48.5412 37.8733ZM66.5882 43.7723C64.9385 43.7723 64.9385 42.3975 64.9385 41.0477C64.9385 39.9729 64.9385 38.3232 66.5882 38.3232C68.238 38.3232 68.238 39.398 68.238 41.0477C68.238 42.4975 68.238 43.7723 66.5882 43.7723ZM68.6129 47.5966C69.8877 47.5966 70.4876 48.0216 70.4876 48.9214C70.4876 50.5711 68.9378 52.2709 66.3633 52.2709C63.5387 52.2709 63.3138 50.4712 63.3138 49.8963C63.3138 48.5965 63.8887 47.8466 65.1385 47.5716H68.6129V47.5966ZM70.6126 37.8733C69.9127 37.8733 69.3878 38.3232 69.0128 38.7481C68.4379 38.1982 67.5881 37.8733 66.5882 37.8733C64.6635 37.8733 63.0888 39.348 63.0888 41.1727C63.0888 42.3475 63.7887 42.9974 64.5636 43.5223C63.2388 43.5723 62.6139 44.2472 62.6139 45.622C62.6139 46.8218 63.1888 47.5216 64.1886 47.5966C63.2638 48.0466 62.239 48.9214 62.239 49.9962C62.239 52.0209 64.3386 52.7208 66.2883 52.7208C67.5881 52.7208 68.7879 52.3208 69.6627 51.571C70.6375 50.7711 71.1375 49.6213 71.1375 48.2965C71.1375 46.6968 70.3126 45.8469 68.7879 45.8469H63.9387C63.4387 45.8469 63.0888 45.522 63.0888 45.0471C63.0888 44.2472 63.7387 43.8223 65.0385 43.7973C65.0635 43.7973 65.0885 43.8223 65.1135 43.8223C65.3634 43.9472 65.8134 44.1472 66.6132 44.1472C67.4131 44.1472 68.3129 43.8223 68.9628 43.2474C69.6877 42.6475 70.0876 41.8476 70.0876 41.0227C70.0876 40.2978 69.7877 39.498 69.2878 38.9481C69.5377 38.6231 69.9127 38.3482 70.2376 38.2732C70.1626 38.3982 70.0876 38.5481 70.0876 38.8731C70.0876 39.223 70.3876 39.573 70.8125 39.573C71.2125 39.573 71.6874 39.373 71.6874 38.7981C71.7124 38.2732 71.2874 37.8733 70.6126 37.8733ZM61.3391 37.7983L61.2391 37.8982C60.8392 38.2982 60.1893 38.3482 59.5394 38.3482H58.7895V38.7981H59.4644V43.6473C59.4644 45.222 58.1396 46.7468 56.7899 46.7468C56.04 46.7468 55.5651 46.2219 55.5651 45.347V37.7983L55.4651 37.8982C55.0651 38.2982 54.4153 38.3482 53.7654 38.3482H53.0155V38.7981H53.7154V44.8471C53.7154 45.547 53.9903 47.1967 56.5899 47.1967C58.3396 47.1967 59.2145 45.6969 59.4644 45.197V46.9467H62.014V46.4968H61.3141V37.7983H61.3391ZM74.3619 31.4993L74.2619 31.6242C73.862 32.0742 73.2121 32.1242 72.5622 32.1242H71.8124V32.5741H72.5122V46.4968H71.8124V46.9467H75.0618V46.4968H74.3619V31.4993ZM88.9095 41.4477L88.2096 41.3977C86.7349 41.2977 86.085 40.8727 86.085 39.9229C86.085 38.9481 86.8099 38.3232 87.9347 38.3232C89.6594 38.3232 90.1593 39.523 90.2843 40.5228V40.5728H90.6592L90.5842 37.9982H90.1843V38.2232C90.1843 38.4981 90.1593 38.5981 90.1093 38.5981C90.0593 38.5981 89.9343 38.5231 89.8094 38.4482C89.4344 38.2232 88.8095 37.8733 88.0097 37.8733C86.4599 37.8733 85.3601 38.9981 85.3601 40.5978C85.3601 42.8474 86.7849 42.9974 88.0596 43.1474L88.2596 43.1724C89.2844 43.2723 90.3343 43.3973 90.3343 44.8721C90.3343 45.9719 89.5344 46.7468 88.3846 46.7468C86.8348 46.7468 85.86 45.7469 85.5601 43.8723V43.8223H85.1851L85.2351 46.9967V47.0467H85.66V46.9967C85.66 46.8967 85.685 46.7968 85.685 46.7218C85.71 46.3968 85.71 46.2719 85.86 46.2719C85.985 46.2719 86.135 46.3718 86.3099 46.4968C86.7099 46.7718 87.3098 47.1717 88.4096 47.1717C90.1093 47.1717 91.3591 45.7969 91.3591 43.9222C91.3341 42.3725 90.5092 41.5476 88.9095 41.4477Z" fill="#757575"/>
</svg>
