<svg width="150" height="81" viewBox="0 0 150 81" fill="none" xmlns="http://www.w3.org/2000/svg">
<path d="M24.7627 41.8054H26.9041V50.8672H33.3968V41.8054H44.5492L34.6645 31.8478L24.7627 41.8054Z" fill="#757575"/>
<path d="M42.4087 44.3379H35.916V50.8672H42.4087V44.3379Z" fill="#757575"/>
<path d="M53.1667 40.6855C53.1667 34.1734 54.8284 28.0231 58.2718 23.5784C59.865 21.5283 60.0877 18.7718 58.2718 16.9285C56.4559 15.1023 53.6806 15.3435 51.6591 16.9285C47.2393 20.3912 41.1235 22.0623 34.6479 22.0623C28.1723 22.0623 22.0564 20.3912 17.6366 16.9285C15.6151 15.3435 12.8398 15.1023 11.0239 16.9285C9.20801 18.7718 9.43072 21.5283 11.0239 23.5784C14.4673 28.0231 16.129 34.1907 16.129 40.6855C16.129 47.1976 14.4673 53.3479 11.0239 57.7927C9.44785 59.8256 9.20801 62.6165 11.0239 64.4426C12.8398 66.2688 15.6151 66.0276 17.6366 64.4426C22.0564 60.9798 28.1894 59.3087 34.6479 59.3087C41.1235 59.3087 47.2393 60.9798 51.6591 64.4426C53.6806 66.0276 56.4559 66.2688 58.2718 64.4426C60.0877 62.6165 59.8479 59.8256 58.2718 57.7927C54.8456 53.3479 53.1667 47.1976 53.1667 40.6855ZM47.7018 44.958L44.9437 42.1844V53.3996H35.9327V55.8287H33.4144V53.3996H24.4034V42.1844L21.6453 44.958L19.8465 43.1663L32.8833 30.056L30.1766 27.334L31.9583 25.5423L34.665 28.2643L37.3717 25.5423L39.1534 27.334L36.4466 30.056L49.4835 43.1663L47.7018 44.958Z" fill="#757575"/>
<path d="M85.0989 43.1149L85.3558 42.6153L81.724 40.6858L81.4499 41.1509C80.7647 42.2879 79.8738 43.6489 78.8802 44.5275C78.0579 45.2511 77.0643 45.7852 76.0364 46.1814C74.9229 46.5949 73.7751 46.8016 72.5931 46.8016C70.1776 46.8016 68.1561 45.9575 66.4772 44.2174C64.8497 42.5119 64.0788 40.4273 63.9418 38.1188H85.9897V37.5331C85.9554 34.3287 85.1503 31.2794 83.163 28.7469C80.5077 25.3531 76.9787 23.7336 72.6958 23.7336C68.533 23.7336 65.0896 25.3186 62.5199 28.6263C60.5327 31.176 59.5391 34.1048 59.5391 37.3608C59.5391 40.9097 60.7725 44.0107 63.051 46.6982C65.6035 49.6786 69.0298 50.8501 72.8672 50.8501C74.5803 50.8501 76.3105 50.6089 77.9209 49.9887C79.4284 49.403 80.7818 48.5588 81.9638 47.4563C83.2658 46.2331 84.2937 44.7171 85.0989 43.1149ZM66.8884 30.1251C68.5501 28.6263 70.4859 27.9372 72.713 27.9372C74.0835 27.9372 75.4026 28.2301 76.6532 28.8158C77.8181 29.3499 78.846 30.1079 79.6511 31.1071C80.3706 32.003 80.8503 33.1228 81.1929 34.2426H64.4386C64.9354 32.7093 65.7063 31.1933 66.8884 30.1251Z" fill="#757575"/>
<path d="M110.197 24.3708H104.989L98.7875 33.1053L92.5689 24.3708H87.3781L96.2178 36.6887L86.4873 50.2125H91.6781L98.7875 40.2548L106 50.2125H111.259L101.391 36.6887L110.197 24.3708Z" fill="#757575"/>
<path d="M126.42 23.7336C124.415 23.7336 122.497 24.1471 120.715 25.0946C119.379 25.801 118.231 26.7485 117.237 27.8683V24.3711H112.972V59.2573H117.237V46.905C118.299 47.9903 119.499 48.9034 120.852 49.5753C122.617 50.4539 124.535 50.8674 126.505 50.8674C130.154 50.8674 133.272 49.5236 135.825 46.8878C138.429 44.2175 139.679 40.9786 139.679 37.2402C139.679 33.5362 138.377 30.3491 135.79 27.7133C133.204 25.0946 130.069 23.7336 126.42 23.7336ZM134.077 42.064C133.255 43.5283 132.142 44.6998 130.702 45.5612C129.315 46.3882 127.807 46.8016 126.197 46.8016C124.535 46.8016 122.993 46.3709 121.537 45.5612C120.098 44.7515 118.968 43.6489 118.162 42.219C117.34 40.7374 116.98 39.118 116.98 37.4469C116.98 34.8283 117.803 32.5543 119.636 30.6764C121.417 28.8331 123.593 27.9717 126.146 27.9717C127.773 27.9717 129.315 28.3679 130.72 29.1948C132.159 30.039 133.255 31.1933 134.06 32.6576C134.882 34.122 135.311 35.6897 135.311 37.3608C135.345 39.0319 134.9 40.5996 134.077 42.064Z" fill="#757575"/>
<path d="M67.1628 56.1387C67.0429 56.0353 66.8887 55.932 66.666 55.8286C67.2656 55.7425 67.711 55.5529 67.9851 55.2428C68.2763 54.9327 68.4134 54.571 68.4134 54.123C68.4134 53.7785 68.3277 53.4684 68.1564 53.1755C67.9851 52.8999 67.7452 52.6931 67.4711 52.5725C67.1799 52.452 66.7688 52.4003 66.2034 52.4003H63.4453V58.6712H64.2676V55.8975H65.227C65.4325 55.8975 65.5867 55.9147 65.6895 55.932C65.8094 55.9664 65.9465 56.0181 66.0664 56.1042C66.1863 56.1904 66.3234 56.3282 66.4775 56.5177C66.6317 56.7244 66.8373 57.0001 67.0771 57.3791L67.8994 58.6884H68.9444L67.8652 56.9829C67.6253 56.6383 67.4026 56.3626 67.1628 56.1387ZM66.0321 55.1739H64.2676V53.1066H66.2377C66.7002 53.1066 67.0429 53.21 67.2484 53.3995C67.4711 53.589 67.5739 53.8302 67.5739 54.123C67.5739 54.3298 67.5225 54.5193 67.4026 54.6916C67.2998 54.8638 67.1285 54.9844 66.9229 55.0706C66.7002 55.1395 66.409 55.1739 66.0321 55.1739Z" fill="#757575"/>
<path d="M73.4844 55.8117H76.9278V55.0709H73.4844V53.1586H77.1505V52.4178H72.6621V58.6715H77.3047V57.948H73.4844V55.8117Z" fill="#757575"/>
<path d="M83.078 52.4178L80.6797 58.6715H81.5534L82.2386 56.7765H84.8426L85.5621 58.6715H86.5043L83.9517 52.4178H83.078ZM82.4785 56.1046L83.1637 54.2612C83.3008 53.865 83.4207 53.4687 83.5063 53.0725C83.6091 53.4171 83.7462 53.8478 83.9517 54.3646L84.6027 56.1046H82.4785Z" fill="#757575"/>
<path d="M90.8897 52.4178H90.0674V58.6715H93.9562V57.948H90.8897V52.4178Z" fill="#757575"/>
<path d="M96.748 53.1586H98.8038V58.6715H99.6261V53.1586H101.699V52.4178H96.748V53.1586Z" fill="#757575"/>
<path d="M108.364 54.2609C108.089 54.6743 107.867 55.0361 107.678 55.3634C107.49 55.0017 107.267 54.6571 107.044 54.2953L105.811 52.4003H104.817L107.216 56.0181V58.6712H108.038V56.0181L110.522 52.4003H109.563L108.364 54.2609Z" fill="#757575"/>
<path d="M139.319 23.1477C138.565 23.1477 137.966 23.7334 137.966 24.4742C137.966 25.2323 138.565 25.818 139.319 25.818C140.09 25.818 140.673 25.2323 140.673 24.4742C140.673 23.7334 140.09 23.1477 139.319 23.1477ZM139.336 25.5424C138.737 25.5424 138.308 25.0772 138.308 24.4742C138.308 23.8885 138.737 23.4061 139.336 23.4061C139.936 23.4061 140.347 23.8885 140.347 24.4742C140.347 25.06 139.919 25.5424 139.336 25.5424Z" fill="#757575"/>
<path d="M139.628 24.5086C139.782 24.4397 139.902 24.3363 139.902 24.1813C139.902 24.0435 139.85 23.9401 139.765 23.8884C139.662 23.8367 139.559 23.785 139.302 23.785C139.079 23.785 138.908 23.8023 138.788 23.8195V25.146H139.096V24.612H139.234C139.405 24.612 139.49 24.6809 139.508 24.8187C139.542 24.9738 139.576 25.0943 139.61 25.146H139.936C139.902 25.0943 139.885 25.0082 139.833 24.8187C139.833 24.6637 139.765 24.5603 139.628 24.5086ZM139.268 24.4225H139.131V24.0435C139.165 24.0435 139.216 24.0262 139.302 24.0262C139.49 24.0262 139.576 24.1124 139.576 24.233C139.576 24.3536 139.439 24.4225 139.268 24.4225Z" fill="#757575"/>
</svg>
