<svg width="149" height="81" viewBox="0 0 149 81" fill="none" xmlns="http://www.w3.org/2000/svg">
<path fill-rule="evenodd" clip-rule="evenodd" d="M16.5762 47.3387C13.5031 47.3412 10.8403 45.2547 10.1704 42.3192C9.50054 39.3837 11.0032 36.3867 13.7855 35.1092C16.5677 33.8317 19.8832 34.6165 21.7615 36.9971L23.5248 35.3007C21.1031 32.4323 17.1029 31.3594 13.5254 32.6188C9.94791 33.8782 7.56247 37.1992 7.5625 40.9201C7.56253 44.6411 9.94801 47.962 13.5255 49.2214C17.103 50.4808 21.1032 49.4078 23.5249 46.5393L21.7615 44.8429C20.5218 46.4165 18.6064 47.3384 16.5762 47.3387H16.5762ZM36.8619 32.0981C31.8838 32.0981 27.8482 36.0478 27.8482 40.9201C27.8482 45.7923 31.8838 49.742 36.8619 49.742C41.8401 49.742 45.8756 45.7923 45.8756 40.9201C45.8756 36.0478 41.8401 32.0981 36.8619 32.0981ZM36.8619 47.3385C33.2399 47.3385 30.3038 44.4648 30.3038 40.9199C30.3038 37.375 33.2399 34.5014 36.8619 34.5014C40.4838 34.5014 43.42 37.375 43.42 40.9199C43.4159 44.4631 40.4821 47.3345 36.8619 47.3385ZM70.1228 32.7316C70.1671 32.6619 70.2447 32.6193 70.3286 32.6186L70.3286 32.6184C70.3934 32.6177 70.4559 32.6422 70.5023 32.6866C70.5487 32.7309 70.5752 32.7915 70.5759 32.855V49.2216H68.1201V39.5568L60.98 48.9307C60.9447 48.9729 60.8918 48.9974 60.8361 48.9974C60.7803 48.9974 60.7275 48.9729 60.6921 48.9307L53.552 39.5568V49.2217H51.0964V32.8552C51.0978 32.7487 51.1708 32.656 51.2756 32.6274C51.3804 32.5988 51.4919 32.6412 51.5494 32.7316L60.8362 45.0149L70.1228 32.7316ZM85.5978 32.6185H77.4149V49.2213H79.8706V43.27H85.5976C87.5487 43.2802 89.356 42.2673 90.3346 40.6153C91.3131 38.9633 91.3131 36.9249 90.3346 35.2729C89.356 33.6209 87.5487 32.608 85.5976 32.6182L85.5978 32.6185ZM79.8708 40.8669H85.5978C86.6646 40.8669 87.6504 40.3098 88.1838 39.4056C88.7172 38.5014 88.7172 37.3874 88.1838 36.4831C87.6504 35.5789 86.6646 35.0219 85.5978 35.0219H79.8708V40.8669ZM118.311 38.9887L120.193 39.4035V39.4033C123.642 40.1956 125.466 41.9647 125.466 44.5189C125.466 47.368 122.795 49.5166 119.253 49.5166C116.413 49.5166 114.429 47.9783 113.264 46.688L114.995 45.0349C115.43 45.585 116.887 47.1683 119.253 47.1683C121.465 47.1683 123.01 46.0787 123.01 44.5187C123.01 43.1847 122.083 42.2875 120.174 41.7756L118.105 41.3159C113.679 40.2544 113.679 37.6595 113.679 36.8067C113.679 34.1247 115.891 32.3228 119.185 32.3228C121.347 32.3228 123.187 33.1281 124.81 34.785L123.079 36.4407C122.635 35.9861 121.179 34.6714 119.185 34.6714C117.246 34.6714 116.134 35.4496 116.134 36.8068C116.134 37.2115 116.291 38.5643 118.311 38.9887ZM136.727 39.4033L134.845 38.9887C132.825 38.5643 132.668 37.2115 132.668 36.8068C132.668 35.4496 133.78 34.6714 135.719 34.6714C137.713 34.6714 139.169 35.9861 139.613 36.4407L141.344 34.785C139.721 33.1281 137.881 32.3228 135.719 32.3228C132.425 32.3228 130.213 34.1247 130.213 36.8067C130.213 37.6595 130.213 40.2544 134.639 41.3159L136.708 41.7756C138.616 42.2875 139.544 43.1847 139.544 44.5187C139.544 46.0787 137.999 47.1683 135.787 47.1683C133.421 47.1683 131.964 45.585 131.529 45.0349L129.798 46.688C130.962 47.9783 132.947 49.5166 135.787 49.5166C139.329 49.5166 142 47.368 142 44.5189C142 41.9647 140.176 40.1956 136.727 39.4033ZM38.9938 37.1316L32.9887 43.0085L34.7251 44.708L40.7302 38.831L38.9938 37.1316ZM101.043 32.4719C100.948 32.4717 100.86 32.5258 100.819 32.6106L91.8662 49.221H94.6436L96.9364 44.9656H105.15L107.443 49.221H110.221L101.267 32.6106C101.227 32.5258 101.139 32.4717 101.044 32.4719L101.043 32.4719ZM101.043 37.3437L98.2311 42.5627H103.855L101.043 37.3437Z" fill="#757575"/>
</svg>
