<svg width="149" height="81" viewBox="0 0 149 81" fill="none" xmlns="http://www.w3.org/2000/svg">
<path fill-rule="evenodd" clip-rule="evenodd" d="M48.9923 27.9211C48.0268 28.0471 47.0817 28.3522 46.3002 28.7955C44.2259 29.9708 42.7735 32.3052 42.4666 34.965C42.4012 35.51 42.4339 36.8155 42.5239 37.3076C42.753 38.5724 43.2276 39.7315 43.8904 40.6628C44.2259 41.1345 45.0278 41.9439 45.4738 42.257C46.337 42.863 47.2862 43.2249 48.4155 43.3714C49.0292 43.4527 50.4448 43.4283 51.0994 43.3266C52.335 43.1355 53.8488 42.6393 54.8021 42.1106L55.068 41.9601V40.1544C55.068 38.304 55.0844 38.064 55.2357 37.7712C55.3871 37.4702 55.7267 37.271 56.2872 37.1652L56.5409 37.1123V36.8561V36.5958H53.636H50.7312V36.8561V37.1123L51.2139 37.1408C52.0118 37.1896 52.5436 37.3279 52.785 37.5597C52.9364 37.7021 53.096 38.0803 53.1451 38.4097C53.1655 38.5642 53.186 39.402 53.186 40.2683V41.8463L52.8709 42.0455C51.9217 42.6515 50.5061 42.8711 49.1069 42.6312C46.9303 42.257 45.3019 40.5367 44.7455 38.0152C44.5655 37.214 44.5328 36.8439 44.5328 35.7011C44.5328 34.8715 44.5491 34.5176 44.6064 34.1557C44.8846 32.3703 45.4983 31.0933 46.5989 30.0074C47.3312 29.2835 47.9572 28.9175 48.8778 28.6775C49.3728 28.5514 50.4529 28.5026 50.9685 28.584C52.5845 28.8402 53.7792 30.0277 54.3275 31.9189L54.4379 32.3052H54.7284C54.888 32.3052 55.0271 32.2971 55.0353 32.2849C55.0557 32.2646 54.9453 28.6124 54.9248 28.5921C54.9207 28.588 54.7448 28.6043 54.5361 28.6287C54.0411 28.6938 53.8038 28.6572 52.3882 28.2993C51.0135 27.9536 50.6043 27.8926 49.7656 27.8967C49.4056 27.9007 49.0619 27.9129 48.9923 27.9211ZM14.912 28.6694C15.7261 28.2668 16.5117 28.0391 17.4322 27.9374C17.8987 27.8845 19.0811 27.9171 19.5557 27.9943C21.2699 28.2749 22.6815 28.9948 23.8352 30.1783C24.9112 31.2804 25.5822 32.6998 25.795 34.3021C25.8727 34.8959 25.8727 36.0021 25.795 36.5552C25.5004 38.6375 24.5062 40.4432 22.931 41.7528C21.9246 42.5906 20.869 43.0786 19.4943 43.3348C19.0483 43.4161 17.7064 43.4528 17.199 43.3917C15.0511 43.1396 13.2713 42.1595 12.0685 40.5612C11.0415 39.1947 10.5547 37.7062 10.5547 35.9249C10.5547 34.5909 10.8288 33.4115 11.4098 32.2239C11.8475 31.3374 12.3344 30.6785 13.0995 29.9465C13.6968 29.373 14.2001 29.0192 14.912 28.6694ZM20.0261 29.0721C19.527 28.8322 19.1628 28.7183 18.6555 28.6451C17.514 28.4702 16.2989 28.7183 15.317 29.3202C14.8178 29.6252 14.0568 30.3776 13.6927 30.9226C13.0667 31.8661 12.7271 32.8544 12.5962 34.1111C12.5389 34.6804 12.5717 35.9493 12.6576 36.5472C13.1076 39.5404 14.6051 41.6674 16.8349 42.4646C17.9886 42.8753 19.4492 42.7899 20.558 42.2531C21.9859 41.5576 23.0783 40.1301 23.5242 38.3691C23.6961 37.6859 23.7697 37.0271 23.7697 36.1161C23.7697 34.4324 23.516 33.2489 22.8819 32.0003C22.5055 31.2561 22.1454 30.7558 21.6013 30.2109C21.094 29.7066 20.5907 29.3406 20.0261 29.0721ZM93.67 27.9374C90.847 28.2302 88.4535 30.101 87.3693 32.8706C86.1092 36.0875 86.9438 39.6745 89.4355 41.7406C90.7856 42.8549 92.4631 43.4283 94.3778 43.4283C96.5381 43.4243 98.2646 42.7166 99.7539 41.2241C100.646 40.3293 101.276 39.2923 101.685 38.0559C102.376 35.9736 102.237 33.7897 101.296 31.8986C100.458 30.2067 99.0174 28.9663 97.1395 28.3237C96.0962 27.9658 94.7911 27.8235 93.67 27.9374ZM95.1469 28.6816C95.7688 28.8118 96.4848 29.1331 97.0453 29.5235C97.4381 29.8 98.0477 30.3857 98.375 30.8005C99.2219 31.8782 99.7456 33.1959 99.9584 34.7658C100.036 35.3636 100.028 36.9578 99.9379 37.5313C99.6024 39.6949 98.4978 41.3908 96.8981 42.2083C96.2025 42.5621 95.5234 42.7126 94.6314 42.7126C93.2445 42.7085 92.0743 42.2001 91.0106 41.1346C89.7055 39.8291 88.9731 37.9908 88.8217 35.6442C88.7031 33.8263 89.059 32.2809 89.8773 31.0242C90.7774 29.6414 92.0416 28.8118 93.5309 28.6247C93.9359 28.5759 94.7869 28.6044 95.1469 28.6816ZM105.654 27.9903C104.709 28.1692 104.066 28.5068 103.473 29.1372C103.264 29.3608 103.129 29.552 102.998 29.8204C102.716 30.3938 102.671 30.6053 102.671 31.4106C102.671 32.0084 102.683 32.1467 102.765 32.4232C103.15 33.7409 103.682 34.3103 106.517 36.4129C107.83 37.389 108.501 38.0397 108.972 38.7961C109.663 39.9105 109.43 41.22 108.391 42.0863C107.875 42.5133 107.364 42.7004 106.615 42.7289C105.936 42.7533 105.555 42.68 104.995 42.4116C104.115 41.9887 103.453 41.1427 103.043 39.9267C102.966 39.7031 102.896 39.5078 102.884 39.4997C102.855 39.4672 102.446 39.4102 102.446 39.4387C102.454 39.5851 102.888 42.9444 102.9 42.9607C102.912 42.9688 103.06 42.9525 103.228 42.9159C103.624 42.8305 103.898 42.859 104.533 43.0461L104.749 43.1096C105.372 43.292 105.611 43.3621 105.855 43.3886C106.007 43.4052 106.161 43.4048 106.411 43.4042L106.578 43.404C107.298 43.404 107.421 43.3958 107.83 43.2982C108.681 43.0989 109.262 42.8061 109.806 42.3059C110.469 41.6959 110.842 40.8865 110.96 39.8169C111.062 38.8653 110.842 37.9217 110.326 37.1206C109.933 36.5146 108.849 35.5507 107.397 34.5218C106.509 33.8914 106.079 33.5416 105.535 32.9967C104.565 32.0369 104.214 31.2886 104.328 30.463C104.455 29.5886 105.122 28.8769 106.026 28.6451C106.345 28.5637 107.061 28.5637 107.376 28.6451C108.125 28.8403 108.837 29.373 109.328 30.1132C109.528 30.4142 109.794 30.9266 109.909 31.2276L109.978 31.4106L110.203 31.3984L110.428 31.3821L110.404 31.256C110.391 31.1828 110.31 30.5036 110.22 29.7472C110.13 28.9867 110.048 28.3604 110.04 28.3522C110.036 28.3441 109.921 28.3766 109.79 28.4214C109.467 28.5312 109.295 28.523 108.747 28.3563C107.528 27.9943 107.388 27.9659 106.64 27.9496C106.173 27.9415 105.85 27.9537 105.654 27.9903ZM111.243 31.7643C111.243 31.6179 111.525 28.2342 111.553 28.0634C111.574 27.9373 111.578 27.9332 111.779 27.9332C111.954 27.9332 111.995 27.9495 112.098 28.0634L112.216 28.1976L117.47 28.2098C121.16 28.2179 122.764 28.2098 122.874 28.1773C122.956 28.1529 123.054 28.0878 123.091 28.0349C123.148 27.9495 123.189 27.9332 123.369 27.9332H123.582L123.738 29.7512C123.819 30.7557 123.901 31.6423 123.913 31.7236L123.938 31.8782H123.684C123.439 31.8782 123.435 31.8782 123.435 31.7643C123.435 31.5894 123.279 30.7598 123.181 30.4141C122.997 29.7512 122.768 29.4665 122.289 29.3079C122.036 29.2225 121.946 29.2143 120.252 29.2021L118.484 29.1899L118.492 35.3229C118.505 41.0735 118.509 41.468 118.578 41.6673C118.693 42.0048 118.873 42.2082 119.196 42.3709C119.458 42.501 119.519 42.5132 119.904 42.5254L120.325 42.5417V42.8223V43.1029H117.584H114.843V42.8223V42.5457L115.273 42.5254C115.661 42.5091 115.731 42.4929 115.98 42.3668C116.287 42.2123 116.463 41.9967 116.59 41.6266C116.659 41.4273 116.664 41.0044 116.676 35.3025L116.688 29.1899L114.917 29.2021L114.88 29.2025C113.201 29.2184 113.135 29.219 112.867 29.3079C112.368 29.4746 112.143 29.7715 111.946 30.5158C111.873 30.7923 111.693 31.7318 111.693 31.8416C111.693 31.8619 111.59 31.8782 111.468 31.8782C111.251 31.8782 111.243 31.8741 111.243 31.7643ZM0.203416 28.4741V28.7304L0.604369 28.7751C0.837577 28.7995 1.09533 28.8564 1.21807 28.9093C1.59448 29.072 1.83587 29.4258 1.92179 29.9382C1.97906 30.2921 1.97497 41.041 1.91769 41.3948C1.79495 42.1472 1.39809 42.4888 0.604369 42.5254L0.203416 42.5417V42.8223V43.1029L4.63435 43.0948L9.0612 43.0826L9.80583 41.3582C10.2191 40.4065 10.5505 39.6257 10.5423 39.6216C10.5382 39.6135 10.44 39.5972 10.3254 39.585L10.1168 39.5565L10.0022 39.7518C9.94084 39.8616 9.724 40.1869 9.52761 40.4797C8.69707 41.6998 8.27157 42.0455 7.4983 42.1269C7.01143 42.1797 5.05985 42.1757 4.60571 42.1269C4.11475 42.0699 3.93473 41.9723 3.82427 41.6998C3.74263 41.501 3.74244 41.4155 3.73025 35.9023V35.9023L3.73016 35.8638C3.72198 32.0083 3.73426 30.1416 3.7629 29.9504C3.86518 29.2916 4.20067 28.9215 4.81846 28.7914C4.93711 28.767 5.23578 28.7466 5.48126 28.7466H5.93131V28.4823V28.2179H3.06736H0.203416V28.4741ZM26.0406 28.7182L26.0284 28.4661L26.0161 28.218H27.6526C29.0437 28.218 29.2974 28.2261 29.3465 28.279C29.3767 28.3057 30.9082 30.0996 32.9705 32.5151L34.3747 34.1598L39.3376 39.9836L39.3498 35.148C39.358 31.6464 39.3498 30.227 39.313 30.0074C39.1903 29.19 38.7648 28.8402 37.8074 28.767L37.431 28.7345L37.4433 28.4864L37.4555 28.2383H39.9308H42.4061L42.4183 28.4823L42.4306 28.7304L41.9478 28.7792C41.1623 28.8565 40.8104 29.0883 40.5977 29.6617C40.5281 29.857 40.524 30.1904 40.5118 36.5674L40.5036 43.2697L40.1763 43.2575L39.8531 43.2453L34.4893 36.9822C31.5353 33.5375 29.0683 30.6663 29.0028 30.5971L28.8841 30.4751V35.6198C28.8841 38.5968 28.9046 40.9353 28.9251 41.1671C28.9905 41.8381 29.2033 42.1838 29.6779 42.3953C29.8865 42.4889 30.0011 42.5092 30.3693 42.5255L30.8071 42.5458V42.8223V43.103H28.3318H25.8565V42.8223V42.5458L26.3025 42.5255C26.7034 42.5092 26.7771 42.4929 27.0185 42.375C27.3253 42.2245 27.4972 42.0415 27.6281 41.7202L27.7181 41.4965L27.7304 35.6239L27.732 34.8041C27.7418 29.8039 27.7425 29.4361 27.5591 29.2483C27.5445 29.2334 27.5288 29.2197 27.5119 29.2049L27.5118 29.2048L27.5118 29.2048C27.4994 29.1939 27.4864 29.1825 27.4726 29.1696C27.3212 29.0273 26.9735 28.9053 26.4089 28.7914L26.0406 28.7182ZM76.3725 28.2464C76.3561 28.2586 76.3438 28.3766 76.3438 28.5027V28.7304L76.8184 28.7792C77.5099 28.8443 77.8536 29.0314 78.0663 29.4462L78.0725 29.4582C78.0869 29.4863 78.1003 29.5123 78.1127 29.5388C78.2668 29.8683 78.2668 30.2699 78.2668 35.6605C78.2668 41.0529 78.2668 41.4531 78.1132 41.7813C78.0989 41.8117 78.0833 41.8416 78.0663 41.8747C77.8495 42.2977 77.4731 42.4889 76.7939 42.5295L76.3643 42.5539V42.8183V43.0826H79.2078H82.0513V42.8183V42.5539L81.6421 42.5295C81.0857 42.5011 80.8402 42.4116 80.5743 42.1472C80.4066 41.9805 80.3411 41.8747 80.2674 41.6551L80.1733 41.3745L80.157 38.5358L80.1447 35.6971L82.1822 35.7133C84.3138 35.7296 84.4079 35.7377 84.7598 35.9167C85.0257 36.055 85.2303 36.4698 85.3448 37.1083L85.398 37.4011L85.5862 37.4214C85.6885 37.4337 85.7867 37.4337 85.8031 37.4214C85.8235 37.4133 85.8358 36.4739 85.8358 35.331V33.261H85.6394H85.4389L85.3898 33.4725C85.2712 33.989 85.0339 34.4119 84.772 34.5583C84.4324 34.7454 84.1501 34.7739 82.084 34.7942L80.1488 34.8145V32.0246V29.2306L82.2886 29.2428C84.1665 29.2591 84.4529 29.2672 84.6697 29.3282C85.3203 29.5153 85.5821 29.8814 85.7785 30.8777L85.8481 31.2275H86.1099H86.3718L86.3472 30.9713C86.3349 30.833 86.2981 30.1701 86.2613 29.5031C86.2286 28.8321 86.1917 28.2708 86.1795 28.2505C86.1549 28.2098 76.4093 28.2058 76.3725 28.2464ZM124.049 28.5026C124.049 28.3765 124.061 28.2586 124.077 28.2464C124.09 28.2301 126.364 28.2179 129.13 28.2179C133.115 28.2179 134.158 28.2301 134.175 28.2667C134.183 28.2952 134.224 29.0557 134.265 29.9586L134.338 31.5935H134.085L134.036 31.5937C133.945 31.5943 133.892 31.5947 133.859 31.5697C133.814 31.5361 133.803 31.4565 133.777 31.2695L133.766 31.1868C133.712 30.8411 133.569 30.3124 133.459 30.0684C133.238 29.5763 132.951 29.3689 132.293 29.2265C131.961 29.1493 131.732 29.1411 129.912 29.1249L127.895 29.1045V32.0409V34.9731L129.748 34.9609C131.724 34.9406 131.855 34.9284 132.227 34.721C132.501 34.5705 132.714 34.1353 132.812 33.5456L132.87 33.1999L133.062 33.1877L133.254 33.1755V35.4774V37.7793L133.041 37.7671L132.829 37.7549L132.78 37.3645C132.751 37.153 132.702 36.8846 132.669 36.7707C132.415 35.9207 132.219 35.8638 129.609 35.8638H127.895V38.3121C127.895 39.8046 127.911 40.8661 127.94 41.0288C127.96 41.1752 128.034 41.407 128.099 41.5453C128.242 41.8544 128.402 41.9682 128.856 42.0903C129.146 42.1675 129.331 42.1797 130.431 42.196C132.358 42.2285 133.05 42.1309 133.577 41.7446C133.958 41.468 134.269 40.8783 134.465 40.0649C134.523 39.825 134.58 39.6013 134.588 39.5728C134.596 39.5403 134.682 39.524 134.833 39.524H135.063L135.038 39.6745C135.026 39.7599 134.96 40.5245 134.891 41.3745C134.821 42.2245 134.756 42.9606 134.743 43.0094L134.727 43.1029H129.061H123.394V42.8182V42.5335H123.938C125.206 42.5295 125.767 42.2041 125.931 41.3745C125.963 41.1955 125.972 39.5932 125.963 35.4774L125.951 29.8244L125.861 29.6007C125.644 29.072 125.276 28.8442 124.519 28.7751L124.049 28.7304V28.5026ZM135.709 28.5026C135.709 28.3766 135.721 28.2586 135.737 28.2464C135.778 28.2017 140.434 28.2139 141.212 28.2586C143.437 28.3847 144.861 28.8565 145.778 29.7634C146.252 30.2311 146.555 30.7964 146.723 31.5244C146.788 31.8131 146.809 32.0368 146.809 32.5086C146.809 33.1674 146.751 33.5456 146.567 34.0296C146.232 34.9203 145.409 35.7296 144.395 36.1688C144.26 36.2303 144.138 36.2841 144.073 36.3131L144.072 36.3133L144.072 36.3134L144.07 36.3142L144.069 36.3148L144.068 36.3152L144.067 36.3157L144.066 36.3163L144.062 36.3179L144.022 36.3356C144.018 36.3396 144.362 36.9619 144.796 37.7183C146.428 40.5936 147.07 41.5575 147.848 42.2896C148.196 42.619 148.642 42.8996 148.818 42.8996C148.871 42.8996 148.883 42.9443 148.883 43.1436V43.3876H148.507C147.476 43.3876 146.559 43.0013 145.745 42.2326C145.037 41.5616 144.423 40.6424 143.351 38.6578C142.644 37.3401 142.505 37.1164 142.349 37.0147C142.226 36.9334 142.181 36.9334 140.443 36.9497L139.51 36.9619L139.522 39.1661C139.534 41.3257 139.538 41.3826 139.628 41.647C139.743 41.9927 140.001 42.2814 140.299 42.4116C140.463 42.4807 140.627 42.5132 140.966 42.5295L141.416 42.5539V42.8183V43.0826H138.573H135.729V42.8183V42.5539L136.138 42.5295C136.658 42.501 136.92 42.4156 137.174 42.1879C137.407 41.9764 137.529 41.7283 137.591 41.3298C137.619 41.1386 137.632 39.2597 137.624 35.4978L137.611 29.9464L137.517 29.6658C137.439 29.4462 137.374 29.3404 137.206 29.1696C136.944 28.9134 136.658 28.8117 136.085 28.767L135.709 28.7345V28.5026ZM142.763 29.3121C142.276 29.0843 141.854 28.9949 141.048 28.9501C140.304 28.9095 139.649 28.9013 139.567 28.9379C139.526 28.9542 139.514 29.7473 139.514 32.7202V36.4821L140.611 36.4618C141.777 36.4374 142.055 36.4008 142.558 36.2137C143.421 35.8883 144.1 35.1725 144.395 34.2778C144.612 33.6271 144.673 32.529 144.534 31.7726C144.321 30.5972 143.712 29.7554 142.763 29.3121ZM64.9036 28.9256C63.8399 29.1696 63.0789 29.8691 62.817 30.8411C62.592 31.6911 62.7843 32.7811 63.3162 33.6799C63.4635 33.932 63.4798 33.9767 63.4226 33.9971C63.3816 34.0133 63.2425 34.0662 63.1075 34.115C61.5692 34.6885 60.6732 36.3925 60.7673 38.5683C60.8164 39.6705 61.1068 40.6262 61.6264 41.403C63.1607 43.6967 66.2333 44.1807 68.5817 42.501C68.7577 42.375 69.0932 42.0862 69.3264 41.8625L69.7519 41.4558L70.3369 42.0171C71.323 42.9647 71.8794 43.3307 72.5463 43.4608C72.9268 43.534 73.3318 43.4974 73.7328 43.347C74.1419 43.1965 74.416 42.9525 74.3628 42.7857C74.326 42.6719 74.2278 42.6434 74.056 42.7003C73.8023 42.7857 73.4423 42.7695 73.2336 42.6678C72.7918 42.4482 72.0717 41.7975 71.0079 40.6506L70.562 40.1748L70.7133 39.7884C70.9997 39.0401 71.1634 38.2592 71.3066 36.909C71.3557 36.4901 71.4171 36.0956 71.4498 36.0346C71.5275 35.8841 71.7076 35.7255 71.9162 35.6239C72.0676 35.5466 72.088 35.5222 72.088 35.4002C72.088 35.1765 72.0267 35.1562 71.4621 35.1928C70.8361 35.2334 70.6479 35.2334 69.7273 35.1928C68.9172 35.1562 68.8559 35.1684 68.8559 35.3676C68.8559 35.5262 68.9622 35.6117 69.2814 35.7052C69.8583 35.876 70.0833 36.0468 70.2715 36.4535C70.4229 36.7829 70.4638 37.1449 70.4392 37.9135C70.4147 38.7025 70.3369 39.0807 70.116 39.4915L69.9851 39.7396L69.7191 39.459C68.86 38.5398 66.9943 36.364 66.1515 35.2944C64.7932 33.5741 63.9176 32.1466 63.7621 31.3942C63.6353 30.7883 63.8235 30.162 64.2531 29.7715C64.5477 29.5031 64.7809 29.4258 65.2309 29.4421C65.5255 29.4584 65.6073 29.4787 65.8937 29.617C66.4952 29.9139 67.0639 30.589 67.4321 31.443C67.6244 31.8904 67.6653 31.9392 67.8167 31.9026L67.9271 31.8741L67.8985 30.6459C67.878 29.6577 67.8617 29.4055 67.8126 29.3282C67.7308 29.2062 67.6203 29.2103 67.4771 29.3323L67.3625 29.4299L67.0761 29.2754C66.6097 29.0232 66.1719 28.9053 65.6237 28.8849C65.3087 28.8768 65.0714 28.889 64.9036 28.9256ZM64.0082 34.8146C64.1678 34.9773 64.6506 35.5792 65.0802 36.1526C66.5162 38.0641 67.4859 39.2231 68.746 40.5327C68.9669 40.7645 69.1429 40.976 69.1306 41.0004C69.0938 41.1224 68.3983 41.6145 67.9768 41.8219C66.5408 42.5255 65.1006 42.4076 63.82 41.4722C63.4641 41.2119 62.8667 40.5896 62.6294 40.2358C62.2162 39.6136 61.8971 38.8246 61.7743 38.1413C61.6966 37.7062 61.7048 36.8847 61.7907 36.539C62.0812 35.388 62.8176 34.5218 63.5173 34.5218C63.7136 34.5218 63.7259 34.5299 64.0082 34.8146ZM62.1821 48.0022L62.2484 47.849L62.3097 47.6986H62.6329C62.8539 47.6986 62.9602 47.7148 62.9766 47.7474C63.9954 50.2851 65.0468 52.9612 65.0346 52.9734C65.0264 52.9856 64.8259 52.9937 64.5968 52.9978L64.1754 53.0059L63.8726 52.2007L63.5658 51.3995L62.4856 51.4076L61.4055 51.4198L61.1028 52.1356C61.0635 52.2298 61.0285 52.3144 60.9972 52.3902C60.8099 52.8437 60.7518 52.9843 60.6552 53.0197C60.6117 53.0356 60.5605 53.0302 60.4862 53.0223L60.4861 53.0223C60.4601 53.0196 60.4313 53.0166 60.3991 53.014C60.2313 53.0018 60.0799 52.9815 60.0677 52.9693C60.0554 52.953 60.5259 51.8306 61.115 50.4722C61.5907 49.3679 62.0176 48.3819 62.1805 48.0058L62.1821 48.0022ZM63.3244 50.8504C63.3366 50.8423 63.1812 50.4071 62.9848 49.8906C62.7884 49.3741 62.6043 48.8657 62.5797 48.7681L62.5306 48.5851L62.4611 48.8047C62.4243 48.9227 62.2197 49.4351 62.011 49.9354L61.6265 50.8504L62.4652 50.8626C62.9275 50.8667 63.3121 50.8626 63.3244 50.8504ZM76.3841 49.1588C76.3841 48.504 76.8628 47.9793 77.6524 47.7597C78.0125 47.6621 78.6916 47.6987 79.1171 47.8411C79.3053 47.9061 79.469 47.9793 79.4772 48.0037C79.4895 48.0322 79.4404 48.1827 79.3708 48.3413L79.2399 48.626L78.9289 48.4796C78.6425 48.3454 78.573 48.3291 78.1966 48.3169C77.8202 48.3006 77.7588 48.3088 77.5542 48.4023C77.2842 48.5284 77.1615 48.6951 77.1615 48.9513C77.1615 49.3011 77.3169 49.4597 77.9634 49.7525C79.1785 50.3138 79.3831 50.448 79.5876 50.8181C79.7431 51.1109 79.7963 51.3834 79.7431 51.6681C79.6081 52.3757 79.0844 52.8719 78.2784 53.0508C77.7261 53.1728 76.8792 53.0752 76.4168 52.8393L76.3064 52.7824L76.4209 52.5099C76.4905 52.3391 76.56 52.2374 76.5928 52.2415C76.6255 52.2456 76.7892 52.2984 76.9569 52.3594C77.3169 52.4896 77.8693 52.5343 78.2048 52.4611C78.8185 52.3228 79.1131 51.8348 78.8839 51.3346C78.7817 51.1109 78.5198 50.9197 78.0288 50.7083C77.1901 50.3463 76.9446 50.2162 76.7319 50.0006C76.4864 49.7566 76.3841 49.5085 76.3841 49.1588ZM84.5837 52.9777C84.5756 52.9655 85.0788 51.7779 85.7048 50.3301L86.8381 47.7028L87.1654 47.6988H87.4927L88.5401 50.3341L89.5875 52.9655L89.3993 52.9939C89.297 53.0061 89.0965 53.0224 88.9615 53.0224L88.7119 53.0265L88.4051 52.2212L88.1023 51.42L87.0222 51.4078L85.938 51.3997L85.6025 52.2009L85.267 53.0061L84.9356 52.998C84.7515 52.9939 84.5919 52.9858 84.5837 52.9777ZM87.8605 50.7977C87.6069 50.1592 87.1036 48.7886 87.1036 48.7439C87.1036 48.6219 87.03 48.6341 87.0055 48.7561C86.9932 48.8252 86.805 49.3011 86.5922 49.8176C86.4838 50.0738 86.3836 50.3138 86.3084 50.4937C86.2332 50.6737 86.1831 50.7936 86.1749 50.8099C86.1585 50.8628 86.2772 50.8709 87.0218 50.8709C87.8319 50.8709 87.8892 50.8668 87.8605 50.7977ZM50.997 53.0061L50.9847 50.4114L50.9765 47.8126L52.1303 47.8289C53.1981 47.8452 53.3086 47.8533 53.5704 47.9387C53.9182 48.0526 54.1187 48.1746 54.2864 48.3779C54.5646 48.7114 54.6137 49.3093 54.3969 49.7485C54.225 50.0983 53.9141 50.3423 53.3577 50.57C53.2677 50.6066 53.3168 50.6717 54.266 51.786L55.2683 52.9655L55.0556 52.9939C54.9369 53.0061 54.7037 53.0183 54.536 53.0224L54.2291 53.0265L53.1327 51.6884C52.5312 50.9483 52.0403 50.3382 52.0403 50.326C52.0403 50.3138 52.1753 50.3016 52.343 50.3016C52.699 50.3016 53.0836 50.1959 53.2881 50.0373C53.5622 49.8298 53.6932 49.3987 53.5991 49.0165C53.5295 48.7399 53.4109 48.5976 53.149 48.4796C52.9485 48.3861 52.8544 48.3698 52.3798 48.3576L51.8357 48.3413L51.8275 50.6717L51.8152 53.0061H51.4061H50.997ZM56.173 50.4236V53.0265H57.785H59.397L59.4257 52.8516C59.4355 52.7768 59.4531 52.6734 59.4661 52.5976L59.4748 52.5466L59.4952 52.4164H58.3415C57.6255 52.4164 57.159 52.4001 57.11 52.3757C57.0363 52.3351 57.0322 52.2822 57.0322 51.4403V50.5456L58.0469 50.5375L59.0574 50.5253L59.0697 50.2284L59.082 49.9356H58.0551H57.0322V49.1832V48.4308L58.1696 48.4227L59.3029 48.4105L59.3152 48.1136L59.3275 47.8208H57.7482H56.173V50.4236ZM65.9304 53.006L65.9182 50.4113L65.91 47.8207H66.3396H66.7692V50.0534C66.7692 52.0299 66.7773 52.2943 66.8346 52.3512C66.8878 52.4082 67.0596 52.4163 68.0661 52.4163H69.2322L69.2076 52.6481C69.1912 52.7783 69.1708 52.9165 69.1585 52.9572C69.1381 53.0223 69.0358 53.0263 67.5342 53.0182L65.9304 53.006ZM72.1786 50.4113L72.1908 53.006L73.7947 53.0182C75.2962 53.0263 75.3985 53.0223 75.4189 52.9572C75.4312 52.9165 75.4517 52.7783 75.468 52.6481L75.4926 52.4163H74.3388C73.6228 52.4163 73.1564 52.4 73.1073 52.3756C73.0337 52.335 73.0296 52.2821 73.0296 51.4402V50.5455H74.0524H75.0753V50.2405V49.9355H74.0524H73.0296V49.1831V48.4307H74.1752H75.3207V48.1257V47.8207H73.7456H72.1704L72.1786 50.4113ZM80.3122 48.4308V48.1258V47.8208H82.6852H85.0623L85.05 48.1136L85.0377 48.4105L84.0681 48.4227L83.0943 48.4308V50.7286V53.0265H82.6852H82.2761V50.7286V48.4308H81.2941H80.3122ZM89.1903 48.1258V48.4308H90.1723H91.1542V50.7286V53.0265H91.5633H91.9725V50.7286V48.4308H92.9544H93.9363V48.1258V47.8208H91.5633H89.1903V48.1258ZM94.836 53.0265V50.4236V47.8208H96.3907H97.9454V48.1258V48.4308H96.7998H95.6542V49.1832V49.9356H96.6771H97.6999V50.2406V50.5456H96.6771H95.6542V51.4078C95.6542 52.1521 95.6624 52.2781 95.7238 52.3432C95.7851 52.4123 95.8792 52.4164 96.9676 52.4164H98.1459L98.1213 52.571C98.109 52.6523 98.0886 52.7865 98.0722 52.8638L98.0436 53.0061L96.4398 53.0183L94.836 53.0265ZM0.162109 50.2404V50.5861L24.1906 50.578L48.2151 50.5658L48.2274 50.2282L48.2396 49.8947H24.1988H0.162109V50.2404ZM99.8687 50.5861V50.2404V49.8947H123.967H148.069L148.057 50.2282L148.044 50.5658L123.959 50.578L99.8687 50.5861Z" fill="#757575"/>
</svg>
