<svg fill="none" height="48" viewBox="0 0 48 48" width="48" xmlns="http://www.w3.org/2000/svg"><path d="m40.7866 19.9269c0 8.534-7.6289 18.2076-12.603 23.6078-2.2932 2.4897-6.0882 2.4897-8.3814 0-4.9741-5.4002-12.60298-15.0738-12.60298-23.6078 0-9.7902 7.51878-17.7267 16.79368-17.7267s16.7937 7.9365 16.7937 17.7267z" fill="#fff"/><path d="m8 20.5009c0 10.4991 11 23.9996 16 23.9996 0 0-5.284-6.7414-8-11.0005-2.9156-4.5721-5.3179-9.0867-5-14.5.2662-4.5339 1.5714-6.5286 4.5-10 2.7957-3.3138 8.5-5.49947 8.5-5.49947-3.5-1.00027-16 2.50036-16 17.00037z" fill="#c4c4c4"/><path d="m40.7866 19.9269c0 8.534-7.6289 18.2076-12.603 23.6078-2.2932 2.4897-6.0882 2.4897-8.3814 0-4.9741-5.4002-12.60298-15.0738-12.60298-23.6078 0-9.7902 7.51878-17.7267 16.79368-17.7267s16.7937 7.9365 16.7937 17.7267z" stroke="#000" stroke-linecap="round" stroke-linejoin="round" stroke-width="2.3991"/><circle cx="23.9932" cy="18.9932" fill="#d92228" r="7.19729"/><path d="m17 19c0-6.5 7-7 7-7s-4 3-4 7 4 7 4 7-7-.5-7-7z" fill="#a71a1f"/><circle cx="23.9932" cy="18.9936" r="7.19729" stroke="#000" stroke-linecap="round" stroke-linejoin="round" stroke-width="2.3991"/></svg>