<svg height="24" viewBox="0 0 24 24" width="24" xmlns="http://www.w3.org/2000/svg" xmlns:xlink="http://www.w3.org/1999/xlink"><defs><path id="a" d="m3.6 16.5c0 .504.405.917.9.917h.9v3.208c0 .76.603 1.375 1.35 1.375a1.36 1.36 0 0 0 1.35-1.375v-3.208h1.8v3.208c0 .76.603 1.375 1.35 1.375a1.36 1.36 0 0 0 1.35-1.375v-3.208h.9c.495 0 .9-.413.9-.917v-9.167h-10.8zm-2.25-9.167a1.36 1.36 0 0 0 -1.35 1.375v6.417c0 .76.603 1.375 1.35 1.375a1.36 1.36 0 0 0 1.35-1.375v-6.417a1.36 1.36 0 0 0 -1.35-1.375zm15.3 0a1.36 1.36 0 0 0 -1.35 1.375v6.417c0 .76.603 1.375 1.35 1.375a1.36 1.36 0 0 0 1.35-1.375v-6.417a1.36 1.36 0 0 0 -1.35-1.375zm-4.473-5.353 1.17-1.192a.46.46 0 0 0 0-.65.44.44 0 0 0 -.639 0l-1.332 1.356a5.178 5.178 0 0 0 -2.376-.577c-.864 0-1.674.21-2.394.577l-1.341-1.357a.44.44 0 0 0 -.639 0 .46.46 0 0 0 0 .651l1.179 1.202a5.517 5.517 0 0 0 -2.205 4.427h10.8a5.5 5.5 0 0 0 -2.223-4.437zm-4.977 2.603h-.9v-.916h.9zm4.5 0h-.9v-.916h.9z"/><mask id="b" fill="#fff"><use fill="#fff" fill-rule="evenodd" xlink:href="#a"/></mask></defs><g fill="none" fill-rule="evenodd" transform="translate(3 1)"><use fill="#a4c639" fill-rule="nonzero" xlink:href="#a"/><path d="m-3-1h24v24h-24z" fill="#fff" mask="url(#b)"/></g></svg>