<svg height="24" viewBox="0 0 24 24" width="24" xmlns="http://www.w3.org/2000/svg" xmlns:xlink="http://www.w3.org/1999/xlink"><defs><path id="a" d="m13.363 10.626c.027 3.026 2.606 4.03 2.637 4.047-.024.069-.414 1.435-1.363 2.845-.818 1.217-1.665 2.43-3.005 2.456-1.316.025-1.738-.795-3.243-.795s-1.975.77-3.22.82c-1.29.048-2.276-1.316-3.102-2.53-1.687-2.485-2.977-7.019-1.244-10.079.86-1.518 2.396-2.48 4.065-2.507 1.268-.023 2.467.871 3.241.871.778 0 2.234-1.075 3.762-.916.642.027 2.439.263 3.594 1.98-.092.06-2.147 1.274-2.122 3.808zm-2.473-7.432c-.685.843-1.813 1.502-2.915 1.414-.148-1.149.406-2.345 1.042-3.094.709-.846 1.904-1.473 2.894-1.514.127 1.172-.337 2.349-1.022 3.194z"/><mask id="b" fill="#fff"><use fill="#fff" fill-rule="evenodd" xlink:href="#a"/></mask></defs><g fill="none" fill-rule="evenodd" transform="translate(4 2)"><use fill="#7d7d7d" xlink:href="#a"/><path d="m-4-2h24v24h-24z" fill="#fff" mask="url(#b)"/></g></svg>