<svg width="28" height="28" viewBox="0 0 28 28" fill="none" xmlns="http://www.w3.org/2000/svg">
<path d="M12.0423 11.4175C12.7508 11.4175 13.3534 11.1693 13.8499 10.673C14.3462 10.1764 14.5944 9.5739 14.5944 8.8654C14.5944 8.15689 14.3462 7.55435 13.8499 7.05779C13.3534 6.56147 12.7508 6.31331 12.0423 6.31331C11.3338 6.31331 10.7313 6.56147 10.2347 7.05779C9.7384 7.55435 9.49024 8.15689 9.49024 8.8654C9.49024 9.5739 9.7384 10.1764 10.2347 10.673C10.7313 11.1693 11.3338 11.4175 12.0423 11.4175ZM12.0562 17.2508C13.0097 17.2508 13.9151 17.0597 14.7723 16.6773C15.6296 16.295 16.3873 15.7486 17.0455 15.0382C16.2415 14.5632 15.4207 14.2057 14.5831 13.9656C13.7455 13.7252 12.9032 13.605 12.0562 13.605C11.1158 13.605 10.2175 13.7275 9.36117 13.9725C8.50489 14.2172 7.73562 14.5725 7.05336 15.0382C7.70208 15.7486 8.45506 16.295 9.31232 16.6773C10.1696 17.0597 11.0842 17.2508 12.0562 17.2508ZM12.0423 23.0841C8.88819 23.0841 6.21603 21.9889 4.02586 19.7985C1.83544 17.6084 0.740234 14.9362 0.740234 11.7821C0.740234 8.62793 1.83544 5.95578 4.02586 3.76561C6.21603 1.57519 8.88819 0.47998 12.0423 0.47998C15.1965 0.47998 17.8686 1.57519 20.0588 3.76561C22.2492 5.95578 23.3444 8.62793 23.3444 11.7821C23.3444 13.1806 23.1163 14.4673 22.6601 15.6423C22.2039 16.8174 21.5635 17.922 20.7391 18.956L27.2316 25.4343C27.4428 25.6457 27.5461 25.9019 27.5415 26.2028C27.5366 26.5037 27.4333 26.7599 27.2316 26.9713C27.0201 27.1826 26.7616 27.2882 26.4561 27.2882C26.1504 27.2882 25.8919 27.1826 25.6807 26.9713L19.202 20.4927C18.1683 21.3174 17.0662 21.9554 15.8956 22.4068C14.7253 22.8584 13.4409 23.0841 12.0423 23.0841Z" fill="#42CC93"/>
</svg>
