<svg fill="none" height="40" viewBox="0 0 120 40" width="120" xmlns="http://www.w3.org/2000/svg" xmlns:xlink="http://www.w3.org/1999/xlink"><clipPath id="a"><path d="m.5 0h119v40h-119z"/></clipPath><g clip-path="url(#a)"><path d="m114 .5h-107.5c-3.03757 0-5.5 2.46243-5.5 5.5v28c0 3.0376 2.46243 5.5 5.5 5.5h107.5c3.038 0 5.5-2.4624 5.5-5.5v-28c0-3.03757-2.462-5.5-5.5-5.5z" fill="#fff"/><path d="m25.3 20.3c.0287-.8288.263-1.6375.682-2.3533.4189-.7157 1.0093-1.3159 1.718-1.7467-.4442-.6579-1.0387-1.2006-1.7342-1.5831-.6956-.3826-1.4723-.5941-2.2658-.6169-1.7-.1-3.3 1-4.2 1s-2.2-1-3.6-1c-.9298.0307-1.8352.3056-2.6251.7971s-1.4365 1.1823-1.8749 2.0029c-1.99997 3.3-.5 8.3 1.4 11 1 1.3 2 2.8 3.4 2.7 1.4 0 2-.9 3.6-.9s2.1 1 3.6.9c1.5 0 2.4-1.3 3.3-2.7.7-1 1.2-2 1.5-3-.8756-.3772-1.6191-1.0067-2.1356-1.8082-.5165-.8014-.7826-1.7385-.7644-2.6918zm-2.8-8.1c.9-1 1.3-2.2 1.2-3.4-.9289.08834-1.8146.43487-2.5568 1.00038-.7423.56552-1.3114 1.32742-1.6432 2.19962l-.3 1.8c.6365.0078 1.2661-.1327 1.8389-.4105.5728-.2777 1.073-.6849 1.4611-1.1895zm20.3 15h-4.7l-1.1 3.3h-2l4.4-12.4h2.1l4.5 12.4h-2zm-4.2-1.6h3.7l-1.8-5.4-2 5.4zm17.1.4c0 2.8-1.5 4.6-3.8 4.6-.5706.0276-1.1372-.1083-1.6332-.3918-.4961-.2834-.9008-.7026-1.1668-1.2082v4.5h-2v-12h1.9v1.5c.2915-.5059.7158-.9224 1.2269-1.2044.5112-.282 1.0898-.4188 1.6731-.3956 2.3 0 3.8 1.8 3.8 4.6zm-2 0c0-1.8-.9-3-2.3-3s-2.4 1.2-2.4 3 1 3 2.4 3 2.4-1.1 2.4-3zm12 0c0 2.8-1.6 4.6-3.8 4.6-.587.0474-1.1751-.079-1.6908-.3635s-.9362-.7146-1.2092-1.2365v4.5h-1.9v-12h1.8v1.5c.2992-.5216.7394-.9484 1.27-1.2314s1.1302-.4107 1.73-.3686c2.2 0 3.8 1.8 3.8 4.6zm-2 0c0-1.8-.9-3-2.3-3-1.5 0-2.4 1.2-2.4 3s1 3 2.4 3 2.3-1.1 2.3-3zm8.5 1c.2 1.3 1.4 2.1 3 2.1s2.7-.8 2.7-2c0-.9-.7-1.4-2.3-1.8l-1.6-.4c-2.3-.6-3.3-1.6-3.3-3.4 0-2.1 1.8-3.6 4.5-3.6 2.6 0 4.4 1.5 4.5 3.6h-2c0-1.2-1-2-2.5-2s-2.6.8-2.6 1.9c0 .9.7 1.4 2.3 1.8l1.4.3c2.5.6 3.6 1.6 3.6 3.5 0 2.3-1.9 3.7-4.8 3.7-2.8 0-4.6-1.4-4.8-3.6h2zm11.7-7.7v2.2h1.6v1.4h-1.7v5c0 .8.3 1.2 1 1.2h.7v1.4h-1c-1.9 0-2.6-.6-2.6-2.4v-5.1h-1.3v-1.4h1.3v-2.2h1.9zm2.6 6.7c0-2.8 1.8-4.6 4.4-4.6s4.3 1.8 4.3 4.6c0 2.9-1.7 4.6-4.3 4.6s-4.3-1.7-4.3-4.6zm6.8 0c0-2-1-3.1-2.4-3.1-1.5 0-2.4 1.2-2.4 3.1 0 2 .9 3.1 2.4 3.1s2.4-1.1 2.4-3zm3.4-4.5h1.8v1.5c.1342-.4747.4241-.8906.8231-1.1808s.8839-.4378 1.3769-.4192h.6v1.8l-.8-.1c-.266-.0144-.5329.0274-.7821.1228s-.4755.2422-.6642.4309c-.1886.1887-.3354.415-.4309.6642-.0954.2492-.1372.5157-.1228.7821v5.4h-1.8zm13.2 6.4c-.2 1.6-1.8 2.7-3.9 2.7-2.6 0-4.3-1.7-4.3-4.6 0-2.8 1.7-4.6 4.2-4.6s4.1 1.7 4.1 4.4v.7h-6.4c-.029.3402.015.6826.129 1.0043.114.3218.296.6155.532.8616.237.2461.523.4389.841.5655.317.1265.657.184.998.1686.417.0343.834-.063 1.193-.2783.359-.2152.641-.5376.807-.9217zm-6.3-2.7h4.6c.014-.3058-.035-.6113-.146-.8968s-.279-.5447-.496-.7612c-.216-.2165-.476-.3854-.761-.496-.286-.1105-.591-.1602-.897-.146-.61 0-1.195.2423-1.626.6737-.432.4313-.674 1.0163-.674 1.6263zm-65.2-16.4c.3942-.03541.7913.01965 1.161.16099.3698.14133.7023.36521.9724.65456.27.28935.4705.63655.586 1.01515.1155.3785.1431.7785.0806 1.1693 0 1.8-1 3-2.8 3h-2.2v-6zm-1.3 5h1.2c.2665.0144.533-.0274.7821-.1228.2492-.0954.4755-.2422.6642-.4309s.3355-.415.4309-.6642.1373-.5157.1228-.7821c.0458-.2821.0273-.5708-.054-.8447-.0813-.274-.2234-.526-.4156-.7375-.1922-.2114-.4296-.37675-.6946-.48372s-.5506-.1528-.8358-.13408h-1.2v4.4zm5.1-1.3c0-.5702.2265-1.1171.6298-1.5203.4032-.4032.95-.6297 1.5202-.6297s1.1171.2265 1.5203.6297.6297.9501.6297 1.5203-.2265 1.1171-.6297 1.5203-.9501.6297-1.5203.6297-1.117-.2265-1.5202-.6297c-.4033-.4032-.6298-.9501-.6298-1.5203zm3.3 0c0-1-.4-1.6-1.2-1.6-.7 0-1.2.6-1.2 1.6s.5 1.5 1.2 1.5c.8 0 1.2-.5 1.2-1.5zm6.6 2.2h-1l-.9-3.3-1 3.3h-.9l-1.2-4.5h.9l.8 3.5 1-3.5h.9l.9 3.5.8-3.5h1zm2.3-4.5h.8v.7h.1c.1047-.2534.2868-.4672.5203-.6109.2334-.1437.5064-.2099.7797-.1891.2232-.017.4474.0162.6562.0971.2087.0809.3967.2075.5501.3705s.2684.3583.3366.5716c.0681.2132.0876.439.0571.6608v3h-.9v-2.8c0-.7-.3-1-1-1-.1401-.0007-.2789.0281-.4072.0845-.1284.0564-.2434.1391-.3377.2428s-.1658.2261-.2097.3592c-.0439.1332-.0594.274-.0454.4135v2.6h-1v-4.5zm5.2-1.7h1v6.2h-1zm2.1 4c0-.5702.2265-1.1171.6298-1.5203.4032-.4032.95-.6297 1.5202-.6297s1.1171.2265 1.5203.6297.6297.9501.6297 1.5203-.2265 1.1171-.6297 1.5203-.9501.6297-1.5203.6297-1.117-.2265-1.5202-.6297c-.4033-.4032-.6298-.9501-.6298-1.5203zm3.4 0c0-1-.5-1.6-1.2-1.6-.8 0-1.2.6-1.2 1.6s.4 1.5 1.2 1.5c.7 0 1.2-.5 1.2-1.5zm1.8 1c0-.9.6-1.3 1.7-1.4h1.2v-.4c0-.5-.3-.8-.9-.8-.5 0-.8.2-1 .5h-.8c0-.8.8-1.3 1.8-1.3 1.2 0 1.8.6 1.8 1.6v3h-.8v-.6h-.1c-.1463.2343-.3544.4236-.6014.5471-.2471.1235-.5234.1764-.7986.1529-.1839.0136-.3687-.0093-.5438-.0673s-.337-.1501-.4764-.2709-.2535-.268-.3358-.433c-.0824-.1651-.1313-.3448-.144-.5288zm3-.4v-.4h-1.2c-.6.1-.9.3-.9.7s.4.7.9.7c.1395.014.2804-.0014.4135-.0454.1331-.0439.2555-.1154.3592-.2096.1037-.0943.1865-.2094.2429-.3377.0564-.1284.0851-.2671.0844-.4073zm2-.6c0-1.4.7-2.3 1.8-2.3.2752-.0235.5515.0294.7986.1529.247.1235.4551.3128.6014.5471v-2.4h1v6.2h-.9v-.7c-.1496.2608-.3696.4742-.6349.6157s-.5651.2054-.8651.1843c-1.1 0-1.8-.9-1.8-2.3zm.9 0c0 1 .4 1.5 1.2 1.5.7 0 1.2-.6 1.2-1.5 0-1-.5-1.5-1.2-1.5-.8 0-1.2.5-1.2 1.5zm7 0c0-.557.2213-1.0911.6151-1.4849.3938-.3939.928-.6151 1.4849-.6151.557 0 1.0911.2212 1.485.6151.3938.3938.615.9279.615 1.4849s-.2212 1.0911-.615 1.4849c-.3939.3939-.928.6151-1.485.6151-.5569 0-1.0911-.2212-1.4849-.6151-.3938-.3938-.6151-.9279-.6151-1.4849zm3.3 0c0-1-.4-1.6-1.2-1.6s-1.2.6-1.2 1.6.4 1.5 1.2 1.5 1.2-.5 1.2-1.5zm2.1-2.3h.9v.7c.1093-.2715.3069-.4981.561-.6433s.5497-.2004.839-.1567c.215-.0019.4279.0424.6243.13.1964.0875.3716.2163.5139.3775.1422.1612.2482.3512.3106.5569s.0799.4225.0512.6356v3h-.9v-2.8c0-.7-.3-1-1-1-.1401-.0007-.2789.0281-.4072.0845-.1284.0564-.2434.1391-.3377.2428s-.1658.2261-.2097.3592c-.0439.1332-.0594.274-.0454.4135v2.6h-.9zm8.8-1.1v1.2h1v.7h-1v2.3c0 .5.2.7.7.7h.3v.7h-.5c-1 0-1.3-.3-1.3-1.2v-2.5h-.8v-.7h.8v-1.3h.8zm2.2-.6h1v2.5c.084-.2822.2549-.5308.4883-.7103s.5174-.2809.8117-.2897c.215-.00192.4279.0424.6243.13.1964.0875.3716.2163.5139.3775.1422.1612.2482.3512.3106.5569.0622.2057.0802.4225.0512.6356v3h-.9v-2.7c0-.7-.3-1-1-1-.1401-.0007-.2789.0281-.4072.0845-.1284.0564-.2434.1391-.3377.2428s-.1658.2261-.2097.3592c-.0439.1332-.0594.274-.0454.4135v2.6h-1v-6.2zm9.1 5c-.117.4235-.385.7894-.754 1.0289-.368.2394-.811.3359-1.246.2711-.29.0033-.577-.0565-.842-.1752-.264-.1187-.5-.2935-.69-.5123s-.33-.4763-.411-.7548c-.081-.2784-.1-.5711-.057-.8577-.06-.294-.053-.5976.02-.8886.073-.2909.211-.5617.403-.7922s.434-.4148.707-.5393.57-.186.87-.1799c1.3 0 2 .9 2 2.3v.3h-3.1c-.029.1785-.016.3612.036.5343.052.1732.142.3324.264.4657.113.1265.252.2276.407.2966.155.0689.323.1042.493.1034.209.0172.417-.0315.597-.1391.179-.1077.32-.2689.403-.4609zm-3.1-1.4h2.2c.03-.147.027-.2988-.01-.4443s-.105-.2808-.202-.3961c-.096-.1152-.216-.2074-.353-.2696-.136-.0623-.285-.093-.435-.09-.158 0-.314.031-.459.0913-.146.0604-.278.1487-.389.2602-.112.1114-.2.2437-.261.3893-.06.1456-.091.3016-.091.4592z" fill="#000"/><path d="m114 .5h-107.5c-3.03757 0-5.5 2.46243-5.5 5.5v28c0 3.0376 2.46243 5.5 5.5 5.5h107.5c3.038 0 5.5-2.4624 5.5-5.5v-28c0-3.03757-2.462-5.5-5.5-5.5z" stroke="#a6a6a6"/></g></svg>