<svg fill="none" height="40" viewBox="0 0 136 40" width="136" xmlns="http://www.w3.org/2000/svg" xmlns:xlink="http://www.w3.org/1999/xlink"><clipPath id="a"><path d="m.5 0h135v40h-135z"/></clipPath><g clip-path="url(#a)"><path d="m130.5.5h-124c-3.03757 0-5.5 2.46243-5.5 5.5v28c0 3.0376 2.46243 5.5 5.5 5.5h124c3.038 0 5.5-2.4624 5.5-5.5v-28c0-3.03757-2.462-5.5-5.5-5.5z" fill="#fff"/><g fill="#000"><path d="m48 9.80005c-.0259.77815-.3534 1.51585-.9132 2.05695-.5599.5412-1.3082.8435-2.0868.843-.416-.005-.8264-.0965-1.2051-.2686-.3788-.1722-.7176-.4212-.9949-.7314-.292-.286-.5224-.6287-.6772-1.007-.1547-.3783-.2306-.78428-.2228-1.19295.005-.416.0965-.82641.2687-1.20515s.4212-.71753.7313-.99485c.2659-.29808.5886-.54008.9492-.7118s.7518-.2697 1.1508-.2882c.5 0 .9.2 1.3.3l1 .7-.6.5c-.2067-.24413-.469-.43511-.7648-.55691-.2958-.12181-.6165-.17087-.9352-.14309-.6 0-1.1.2-1.6.7-.5.4-.7 1-.7 1.7 0 .69995.2 1.29995.7 1.79995.5.4 1 .6 1.6.6.7 0 1.3-.2 1.7-.6.3-.3.5-.7.5-1.3h-2.2v-.69995h3zm4.6-2.6h-2.7v2h2.4v.7h-2.4v1.89995h2.6v.7h-3.5v-5.99995h3.5v.7zm3.3 5.29995h-.8v-5.29995h-1.7v-.7h4.1v.7h-1.6zm4.6 0v-5.99995h.8v5.99995zm4.2 0h-.7v-5.29995h-1.7v-.7h4.1v.7h-1.7zm9.5-.8c-.2773.3102-.6161.5592-.9948.7314-.3788.1721-.7892.2636-1.2052.2686-.4025.0003-.801-.0805-1.1716-.2375-.3707-.157-.7059-.3869-.9859-.6762-.2799-.2892-.4987-.6319-.6435-1.0075-.1447-.3756-.2124-.7765-.199-1.17875-.0274-.41046.0299-.82218.1683-1.20956s.3551-.74216.6364-1.04227c.2814-.30012.6215-.53916.9991-.70227.3777-.16312.7848-.24682 1.1962-.2459.4025-.00022.801.08056 1.1716.23754.3707.15698.706.38694.9859.67619.2799.28926.4988.63189.6435 1.00749.1448.37559.2124.77648.199 1.17878.0209.4016-.0391.80335-.1765 1.18125-.1375.3779-.3495.7244-.6235 1.0187zm-3.8-.5c.4.5 1 .7 1.6.7.7 0 1.2-.2 1.6-.7.5-.4.7-1 .7-1.69995 0-.7-.2-1.3-.7-1.7-.4-.5-1-.7-1.6-.7s-1.2.2-1.6.7c-.5.4-.7 1-.7 1.7 0 .69995.2 1.29995.7 1.69995zm5.8 1.3v-5.99995h1l2.9 4.69995v-4.69995h.7v5.99995h-.8l-3-4.89995v4.89995z" stroke="#000" stroke-miterlimit="10" stroke-width=".2"/><path d="m68.7 21.3c-1.1139 0-2.1822.4425-2.9699 1.2301-.7876.7877-1.2301 1.856-1.2301 2.9699 0 2.5 1.9 4.3 4.2 4.3 2.4 0 4.3-1.8 4.3-4.3 0-2.4-2-4.2-4.3-4.2zm0 6.8c-1.3 0-2.4-1-2.4-2.6 0-1.5 1.1-2.6 2.4-2.6s2.4 1.1 2.4 2.6c0 1.6-1 2.6-2.4 2.6zm-9.2-6.8c-.5599-.0134-1.1168.0854-1.638.2905s-.996.5124-1.3967.9037-.719.8589-.9363 1.3751-.3292 1.0706-.329 1.6307c0 2.5 2 4.3 4.3 4.3 2.4 0 4.3-1.8 4.3-4.3 0-2.4-2-4.2-4.3-4.2zm0 6.8c-1.3 0-2.4-1-2.4-2.6 0-1.5 1.1-2.6 2.4-2.6s2.4 1.1 2.4 2.6c0 1.6-1.1 2.6-2.4 2.6zm-11-5.5v1.8h4c0 1-.4 1.8-1 2.3-.6.6-1.6 1.3-3.3 1.3-.6257.0001-1.2452-.1247-1.822-.3671-.5769-.2424-1.0995-.5976-1.5373-1.0447-.4377-.4471-.7818-.9771-1.012-1.5589-.2303-.5818-.342-1.2037-.3287-1.8293-.0312-.9399.2203-1.8675.7218-2.6629.5016-.7954 1.2302-1.4221 2.0918-1.799.8615-.3769 1.8162-.4867 2.7408-.3152.9246.1714 1.7765.6163 2.4456 1.2771l1.2-1.3c-1-1-2.5-1.8-4.5-1.8-3.6 0-6.7 3-6.7 6.6s3 6.6 6.7 6.6c.8506.0436 1.7007-.0943 2.4938-.4047.7932-.3103 1.5111-.786 2.1062-1.3953 1.0819-1.1648 1.6574-2.7113 1.6-4.3l-.1-1.1h-6zm45.1 1.4c-.4-1-1.4-2.7-3.7-2.7-2.2 0-4 1.7-4 4.2 0 2.4 1.8 4.3 4.2 4.3 2 0 3.1-1.2 3.6-1.9l-1.5-1c-.4.7-1.1 1.2-2 1.2-1 0-1.7-.4-2.1-1.3l5.7-2.3zm-5.8 1.4c0-1.6 1.2-2.5 2.2-2.5.7 0 1.4.4 1.6 1zm-4.7 4.1h2v-12.5h-2zm-3-7.3c-.2885-.3228-.6435-.5793-1.0405-.7519s-.8267-.2573-1.2595-.2481c-2.2 0-4.1 2-4.1 4.4 0 2.3 2 4.2 4 4.2 1 0 1.9-.5 2.3-1v.6c0 1.7-.8 2.5-2.2 2.5-1.1 0-1.9-.8-2.1-1.5l-1.7.7c.3045.7533.8312 1.3961 1.5101 1.8427.6788.4466 1.4775.6759 2.2899.6573 2.2 0 4-1.3 4-4.4v-7.7h-1.7zm-2.2 6c-1.3 0-2.3-1.2-2.3-2.6 0-1.5 1-2.6 2.3-2.6s2.3 1 2.3 2.6c0 1.4-1 2.5-2.3 2.5zm24.6-11.2h-4.5v12.5h1.9v-4.7h2.6c2 0 4-1.5 4-3.9s-2-3.9-4-3.9zm0 6h-2.7v-4.2h2.7c1.4 0 2.2 1.1 2.2 2.1s-.8 2.1-2.2 2.1zm11.5-1.7c-1.3 0-2.7.6-3.3 1.9l1.7.7c.3-.7 1-1 1.7-1 1 0 2 .6 2 1.7-.4-.1-1.1-.4-2-.4-1.8 0-3.6 1-3.6 2.8 0 1.7 1.4 2.8 3 2.8 1.3 0 2-.6 2.5-1.3v1h1.8v-4.8c0-2.2-1.6-3.4-3.8-3.4zm-.2 6.8c-.6 0-1.4-.3-1.4-1 0-1 1-1.4 2-1.4.8 0 1.2.2 1.6.4-.1 1.2-1.1 2-2.2 2zm10.6-6.6-2.1 5.5-2.3-5.5h-2l3.3 7.6-1.9 4.2h2l5-11.8zm-16.8 8h1.9v-12.5h-2v12.5z"/><path d="m11 7.40005c-.3404.38509-.5194.88642-.5 1.4v22.09995c0 .7.2 1.2001.5 1.5001l12.5-12.4001v-.3l-12.5-12.39995zm16.5 16.80005-4-4.2001v-.3l4-4.1h.2l4.9 2.8c1.4.8 1.4 2.1 0 3l-5.1 2.6z" stroke="#fff" stroke-width=".5"/><path d="m27.7 15.7-14.7-8.39996c-.8-.5-1.6-.4-2 .1l12.4 12.49996zm0 8.4-4.3-4.2-12.4 12.5c.4.4 1.2.5 2 0z" stroke="#fff" stroke-width=".5"/></g><path d="m130.5.5h-124c-3.03757 0-5.5 2.46243-5.5 5.5v28c0 3.0376 2.46243 5.5 5.5 5.5h124c3.038 0 5.5-2.4624 5.5-5.5v-28c0-3.03757-2.462-5.5-5.5-5.5z" stroke="#a6a6a6"/></g></svg>