<svg width="23" height="29" viewBox="0 0 23 29" fill="none" xmlns="http://www.w3.org/2000/svg">
<path d="M10.454 18.4592H12.546C12.7438 18.4592 12.9153 18.3768 13.0604 18.212C13.2055 18.0472 13.2538 17.866 13.2052 17.6684L12.5124 13.8541C12.9704 13.6578 13.3391 13.3491 13.6186 12.9281C13.8981 12.5071 14.0379 12.0418 14.0379 11.5321C14.0379 10.8341 13.7892 10.2365 13.2919 9.73945C12.7946 9.24265 12.1968 8.99424 11.4985 8.99424C10.8002 8.99424 10.2029 9.24265 9.70661 9.73945C9.21029 10.2365 8.96214 10.8341 8.96214 11.5321C8.96214 12.0418 9.10189 12.5071 9.38141 12.9281C9.66092 13.3491 10.0296 13.6578 10.4876 13.8541L9.79484 17.6684C9.74623 17.866 9.79448 18.0472 9.93958 18.212C10.0847 18.3768 10.2562 18.4592 10.454 18.4592ZM11.5 28.1148C11.3486 28.1148 11.1999 28.1027 11.0541 28.0784C10.9083 28.0541 10.7671 28.0176 10.6305 27.969C7.55509 26.8752 5.10825 24.936 3.28995 22.1513C1.47165 19.3664 0.5625 16.3614 0.5625 13.1363V6.5683C0.5625 6.01438 0.721823 5.51575 1.04047 5.07242C1.35887 4.62933 1.77073 4.30813 2.27604 4.10883L10.5772 1.00987C10.8896 0.897576 11.1972 0.841431 11.5 0.841431C11.8028 0.841431 12.1104 0.897576 12.4228 1.00987L20.724 4.10883C21.2293 4.30813 21.6411 4.62933 21.9595 5.07242C22.2782 5.51575 22.4375 6.01438 22.4375 6.5683V13.1363C22.4375 16.3614 21.5284 19.3664 19.7101 22.1513C17.8918 24.936 15.4449 26.8752 12.3695 27.969C12.2329 28.0176 12.0917 28.0541 11.9459 28.0784C11.8001 28.1027 11.6514 28.1148 11.5 28.1148Z" fill="#42CC93"/>
</svg>
