<svg width="31" height="23" viewBox="0 0 31 23" fill="none" xmlns="http://www.w3.org/2000/svg">
<path d="M19.6161 22.3862C16.5611 22.3862 13.9734 21.326 11.853 19.2056C9.73285 17.0854 8.67276 14.4977 8.67276 11.4425C8.67276 8.41041 9.73285 5.8305 11.853 3.70279C13.9734 1.57508 16.5611 0.51123 19.6161 0.51123C22.6485 0.51123 25.2284 1.57508 27.3558 3.70279C29.4835 5.8305 30.5474 8.41041 30.5474 11.4425C30.5474 14.4977 29.4835 17.0854 27.3558 19.2056C25.2284 21.326 22.6485 22.3862 19.6161 22.3862ZM20.7036 11.0196V6.93337C20.7036 6.62347 20.5988 6.36377 20.389 6.15425C20.1795 5.9445 19.9197 5.83962 19.6095 5.83962C19.2994 5.83962 19.0397 5.9445 18.8304 6.15425C18.6209 6.36377 18.5161 6.62347 18.5161 6.93337V11.3871C18.5161 11.5587 18.5518 11.725 18.623 11.8859C18.6939 12.0468 18.7914 12.1896 18.9154 12.3143L22.2994 15.7114C22.5165 15.9377 22.7741 16.0509 23.0723 16.0509C23.3703 16.0509 23.6325 15.9377 23.8588 15.7114C24.085 15.4854 24.1982 15.2256 24.1982 14.932C24.1982 14.6383 24.085 14.3784 23.8588 14.1521L20.7036 11.0196ZM2.75521 6.70915C2.44531 6.70915 2.18549 6.60427 1.97573 6.39451C1.76622 6.18475 1.66146 5.92493 1.66146 5.61503C1.66146 5.30489 1.76622 5.04519 1.97573 4.83592C2.18549 4.6264 2.44531 4.52165 2.75521 4.52165H6.12068C6.43057 4.52165 6.69028 4.62653 6.89979 4.83628C7.10955 5.04604 7.21443 5.30587 7.21443 5.61576C7.21443 5.9259 7.10955 6.18561 6.89979 6.39488C6.69028 6.60439 6.43057 6.70915 6.12068 6.70915H2.75521ZM1.29688 12.5425C0.986979 12.5425 0.727153 12.4376 0.517396 12.2278C0.307882 12.0181 0.203125 11.7583 0.203125 11.4484C0.203125 11.1382 0.307882 10.8785 0.517396 10.6693C0.727153 10.4597 0.986979 10.355 1.29688 10.355H6.12068C6.43057 10.355 6.69028 10.4599 6.89979 10.6696C7.10955 10.8794 7.21443 11.1392 7.21443 11.4491C7.21443 11.7592 7.10955 12.0189 6.89979 12.2282C6.69028 12.4377 6.43057 12.5425 6.12068 12.5425H1.29688ZM2.75521 18.3758C2.44531 18.3758 2.18549 18.2709 1.97573 18.0612C1.76622 17.8514 1.66146 17.5916 1.66146 17.2817C1.66146 16.9716 1.76622 16.7119 1.97573 16.5026C2.18549 16.2931 2.44531 16.1883 2.75521 16.1883H6.12068C6.43057 16.1883 6.69028 16.2932 6.89979 16.503C7.10955 16.7127 7.21443 16.9725 7.21443 17.2824C7.21443 17.5926 7.10955 17.8523 6.89979 18.0615C6.69028 18.2711 6.43057 18.3758 6.12068 18.3758H2.75521Z" fill="#42CC93"/>
</svg>
