<svg fill="none" height="48" viewBox="0 0 48 48" width="48" xmlns="http://www.w3.org/2000/svg" xmlns:xlink="http://www.w3.org/1999/xlink"><clipPath id="a"><path d="m0 0h48v48h-48z"/></clipPath><g clip-path="url(#a)"><path d="m7 15c0-6.62742 5.3726-12 12-12 6.6274 0 12 5.37258 12 12v10c0 2.7614-2.2386 5-5 5h-14c-2.76142 0-5-2.2386-5-5z" fill="#fff" stroke="#000" stroke-linecap="round" stroke-linejoin="round" stroke-width="2"/><path d="m34.744 39.1138c.1443.3248.2765.6537.3963.986.9366 2.5977-1.3789 4.9002-4.1403 4.9002h-11.5-11.5c-2.76142 0-5.07686-2.3025-4.14027-4.9002.11981-.3323.25194-.6612.39626-.986.8292-1.8661 2.04458-3.5618 3.57675-4.9901 1.53216-1.4283 3.35116-2.5612 5.35296-3.3342l6.3143-.7895 6.3143.7895c2.0018.773 3.8208 1.9059 5.353 3.3342 1.5321 1.4283 2.7475 3.124 3.5767 4.9901z" fill="#d92228"/><path clip-rule="evenodd" d="m35.4588 42h-10.9588-13.5c-2.76142 0-5.07217-2.3399-3.87644-4.829.08963-.1866.18453-.3719.28467-.5558.92971-1.7072 2.29241-3.2583 4.01027-4.565.7136-.5427 1.4827-1.0389 2.299-1.4842l-.5317-.566c-2.0019.8703-3.8208 2.146-5.35297 3.7541-1.53217 1.6082-2.74755 3.5173-3.57675 5.6185-.21855.5538-.40915 1.1181-.57135 1.6905-.75283 2.6568 1.55394 4.9369 4.31536 4.9369h11.50001 11.5c2.43 0 4.508-1.7657 4.4587-4z" fill="#c4c4c4" fill-rule="evenodd"/><path d="m45 9.5-6.6337-5.38989c-.7961-.64679-1.9365-.64678-2.7326 0l-3.1337 2.54614" stroke="#000" stroke-linecap="round" stroke-width="2"/><path d="m44 5c0-.55228-.4477-1-1-1s-1 .44772-1 1zm-2 0v11.4h2v-11.4zm-.6 12h-7.4v2h7.4zm.6-.6c0 .3314-.2686.6-.6.6v2c1.4359 0 2.6-1.1641 2.6-2.6z" fill="#000"/><g stroke="#000" stroke-width="2"><path d="m39 13c0-.5523-.4477-1-1-1h-2c-.5523 0-1 .4477-1 1v4c0 .5523.4477 1 1 1h2c.5523 0 1-.4477 1-1z" fill="#d92228"/><path d="m35.6679 39.2597c1.4281 2.9553-1.3287 5.7403-4.6109 5.7403h-11.557-11.55697c-3.28224 0-6.03905-2.785-4.61092-5.7403.87945-1.8198 2.1685-3.4734 3.79352-4.8663 1.62503-1.3929 3.55417-2.4978 5.67737-3.2516s4.3989-1.1418 6.697-1.1418 4.5738.388 6.697 1.1418 4.0523 1.8587 5.6774 3.2516c1.625 1.3929 2.914 3.0465 3.7935 4.8663z" stroke-linecap="round" stroke-linejoin="round"/><path d="m17.4636 35.1563-3.4636-4.1563v-4c0-1.1046.8954-2 2-2h6c1.1046 0 2 .8954 2 2v4l-3.4636 4.1563c-.7995.9595-2.2733.9595-3.0728 0z" fill="#fff" stroke-linecap="round" stroke-linejoin="round"/><path d="m16.75 16.6513c3.7882 0 7.1287-2.0701 8.3717-5.1085.0204-.0498.0575-.1045.1112-.1531.0387-.035.078-.0596.1115-.0754 1.0344 1.5011 1.6556 3.3851 1.6556 5.4407 0 2.6501-.4872 5.784-1.7609 8.2159-1.2498 2.3865-3.2033 4.0291-6.2391 4.0291s-4.9893-1.6426-6.2391-4.0291c-1.2737-2.4319-1.7609-5.5658-1.7609-8.2159 0-.5997.0529-1.1846.1534-1.7496.0125-.0003.027.0004.0431.0029.0371.0057.072.0193.101.0387 1.5135 1.0119 3.4097 1.6043 5.4525 1.6043z" fill="#fff"/></g></g></svg>