<svg width="29" height="27" viewBox="0 0 29 27" fill="none" xmlns="http://www.w3.org/2000/svg">
<path d="M14.4211 26.3633C14.0359 26.3633 13.7058 26.233 13.4309 25.9722C13.156 25.7114 13.0186 25.379 13.0186 24.975C13.0186 24.7956 13.0575 24.6031 13.1353 24.3975C13.2128 24.1919 13.3291 24.0114 13.4842 23.8561L19.0875 18.2528C19.224 18.1162 19.2923 17.961 19.2923 17.7873C19.2923 17.6135 19.224 17.4583 19.0875 17.3217C18.9511 17.1853 18.7936 17.1232 18.6149 17.1354C18.4365 17.1475 18.2838 17.2172 18.1567 17.3443L12.5756 22.925C12.4206 23.0803 12.2486 23.1967 12.0597 23.2742C11.8709 23.3518 11.6745 23.3905 11.4706 23.3905C11.0761 23.3905 10.7438 23.2555 10.4738 22.9855C10.2035 22.7152 10.0684 22.3828 10.0684 21.9883C10.0684 21.7548 10.1096 21.5449 10.192 21.3587C10.2741 21.1728 10.3807 21.0143 10.5117 20.8833L16.115 15.28C16.2514 15.1437 16.3195 14.9922 16.3195 14.8257C16.3195 14.6593 16.2514 14.5078 16.115 14.3715C15.9784 14.2349 15.8245 14.169 15.6534 14.1739C15.4823 14.1785 15.3332 14.2444 15.2061 14.3715L9.60281 19.9522C9.45698 20.098 9.28733 20.2121 9.09385 20.2945C8.90038 20.3766 8.69427 20.4177 8.47552 20.4177C8.09587 20.4177 7.76726 20.2789 7.48969 20.0014C7.21212 19.7238 7.07333 19.3952 7.07333 19.0155C7.07333 18.8119 7.1121 18.6156 7.18964 18.4267C7.26717 18.2379 7.38359 18.0658 7.53891 17.9105L12.9515 12.4979C13.0879 12.3615 13.156 12.2065 13.156 12.0327C13.156 11.8586 13.0879 11.7035 12.9515 11.5671C12.8149 11.4305 12.6611 11.3645 12.4899 11.3691C12.3188 11.374 12.1697 11.44 12.0426 11.5671L6.63 17.0019C6.49924 17.1329 6.33712 17.2395 6.14365 17.3217C5.95017 17.4041 5.73653 17.4453 5.50271 17.4453C5.09899 17.4453 4.76431 17.3124 4.49865 17.0468C4.23323 16.7814 4.10052 16.4467 4.10052 16.0427C4.10052 15.839 4.13929 15.6428 4.21682 15.4539C4.29436 15.2651 4.41078 15.0931 4.56609 14.938L11.3051 8.19871C11.5632 7.94083 11.8764 7.8193 12.2446 7.83413C12.6131 7.8492 12.9262 7.98567 13.1841 8.24356L16.5383 11.5977C16.8056 11.8651 17.1146 12.0661 17.4651 12.2007C17.8158 12.3354 18.1687 12.4027 18.5238 12.4027C19.2642 12.4027 19.898 12.1503 20.4255 11.6455C20.9527 11.1407 21.2162 10.4956 21.2162 9.71028C21.2162 9.37 21.1532 9.02231 21.027 8.6672C20.9006 8.31185 20.6888 7.98555 20.3916 7.6883L16.8974 4.19413C16.5177 3.81448 16.2901 3.38488 16.2145 2.90533C16.1387 2.42578 16.256 2.00274 16.5664 1.63621C16.832 1.28111 17.1536 1.01849 17.531 0.848348C17.9088 0.678209 18.3136 0.59314 18.7455 0.59314C19.2279 0.59314 19.7131 0.69826 20.2009 0.908503C20.6889 1.11875 21.133 1.4239 21.5331 1.82397L27.7368 8.04996C28.1087 8.42208 28.391 8.85217 28.5838 9.34022C28.7763 9.82804 28.8725 10.3823 28.8725 11.0031C28.8725 11.4892 28.7725 11.9651 28.5724 12.4308C28.3724 12.8962 28.0939 13.3075 27.7368 13.6645L15.5258 25.8978C15.3501 26.0735 15.173 26.195 14.9946 26.2624C14.816 26.3297 14.6248 26.3633 14.4211 26.3633ZM1.49521 13.8133C1.00521 13.4169 0.635521 12.9536 0.386146 12.4235C0.136528 11.8936 0.0117188 11.3426 0.0117188 10.7705C0.0117188 10.2302 0.117812 9.70432 0.33 9.19293C0.542187 8.68154 0.857673 8.21646 1.27646 7.79767L7.22755 1.82397C7.59384 1.45769 7.99816 1.17453 8.44052 0.974492C8.88264 0.774458 9.35514 0.674441 9.85802 0.674441C10.3908 0.674441 10.9078 0.774458 11.409 0.974492C11.9099 1.17453 12.3436 1.45769 12.7102 1.82397L19.483 8.59684C19.6233 8.73708 19.7359 8.90309 19.821 9.09486C19.9061 9.28639 19.9486 9.48411 19.9486 9.68804C19.9486 10.0825 19.8135 10.4171 19.5432 10.6917C19.2731 10.9666 18.9409 11.1041 18.5464 11.1041C18.3332 11.1041 18.1308 11.0615 17.939 10.9765C17.7475 10.8914 17.5816 10.7787 17.4414 10.6385L14.0788 7.29856C13.5759 6.79567 12.9571 6.54423 12.2223 6.54423C11.4876 6.54423 10.8688 6.79567 10.3659 7.29856L3.86208 13.802C3.53687 14.1274 3.15224 14.2846 2.70818 14.2734C2.26411 14.262 1.85979 14.1086 1.49521 13.8133Z" fill="#42CC93"/>
</svg>
