<svg fill="none" height="48" viewBox="0 0 48 48" width="48" xmlns="http://www.w3.org/2000/svg" xmlns:xlink="http://www.w3.org/1999/xlink"><clipPath id="a"><path d="m0 0h48v48h-48z"/></clipPath><g clip-path="url(#a)"><path d="m35 8c0-.55228.4477-1 1-1h3c.5523 0 1 .44772 1 1v11c0 .5523-.4477 1-1 1h-3c-.5523 0-1-.4477-1-1z" fill="#c4c4c4"/><path clip-rule="evenodd" d="m34 8c0-1.10457.8954-2 2-2h3c1.1046 0 2 .89543 2 2v11c0 1.1046-.8954 2-2 2h-3c-1.1046 0-2-.8954-2-2zm5 0h-3v11h3z" fill="#000" fill-rule="evenodd"/><path clip-rule="evenodd" d="m0 42c0-.5523.447715-1 1-1h46c.5523 0 1 .4477 1 1s-.4477 1-1 1h-46c-.552285 0-1-.4477-1-1z" fill="#000" fill-rule="evenodd"/><path d="m9.44444 42h29.11116c.7977 0 1.4444-.6467 1.4444-1.4444v-24.0101l-16-9.5455-16 9.5455v24.0101c0 .7977.6467 1.4444 1.44444 1.4444z" fill="#d92228"/><path clip-rule="evenodd" d="m8 17c.55228 0 1 .4477 1 1v23h30v-23c0-.5523.4477-1 1-1s1 .4477 1 1v24c0 .5523-.4477 1-1 1h-32c-.55228 0-1-.4477-1-1v-24c0-.5523.44772-1 1-1z" fill="#000" fill-rule="evenodd"/><path d="m9 18.2727 2-2.2727v25h-2z" fill="#a71a1f"/><path clip-rule="evenodd" d="m33 7c0-.55228.4477-1 1-1h7c.5523 0 1 .44772 1 1s-.4477 1-1 1h-7c-.5523 0-1-.44772-1-1z" fill="#000" fill-rule="evenodd"/><path d="m22.3847 6.20019-16.21879 12.05111c-.73352.545-1.16591 1.405-1.16591 2.3189v2.4409c0 .822.93663 1.2929 1.59642.8027l17.40358-12.9315 17.4036 12.9315c.6598.4902 1.5964.0193 1.5964-.8027v-2.4409c0-.9139-.4324-1.7739-1.1659-2.3189l-16.2188-12.05111c-.959-.71256-2.2716-.71256-3.2306 0z" fill="#fff"/><path clip-rule="evenodd" d="m25.0189 7.00287c-.6049-.44946-1.4329-.44946-2.0378 0l-16.21877 12.05113c-.47962.3564-.76233.9186-.76233 1.5162v2.4409l18-13.37461 18 13.37461v-2.4409c0-.5976-.2827-1.1598-.7623-1.5162zm-3.2306-1.60535c1.3131-.97566 3.1103-.97566 4.4234 0l16.2188 12.05108c.9874.7337 1.5695 1.8914 1.5695 3.1216v2.4409c0 1.644-1.8732 2.5859-3.1928 1.6054l-16.8072-12.4883-16.80717 12.4883c-1.31957.9804-3.19283.0386-3.19283-1.6054v-2.4409c0-1.2302.58206-2.3879 1.56949-3.1216z" fill="#000" fill-rule="evenodd"/><path d="m34 29c0 5.5228-4.4772 10-10 10s-10-4.4772-10-10 4.4772-10 10-10 10 4.4772 10 10z" fill="#fff"/><g clip-rule="evenodd" fill-rule="evenodd"><path d="m24 20c-4.9706 0-9 4.0294-9 9s4.0294 9 9 9 9-4.0294 9-9-4.0294-9-9-9zm-11 9c0-6.0751 4.9249-11 11-11s11 4.9249 11 11-4.9249 11-11 11-11-4.9249-11-11z" fill="#000"/><path d="m30.8588 34.8275c-.6023.1132-1.2236.1724-1.8588.1724-5.5228 0-10-4.4772-10-10 0-1.4116.2925-2.7549.8201-3.9726-2.8656 1.5056-4.8201 4.5108-4.8201 7.9726 0 4.9706 4.0294 9 9 9 2.7478 0 5.2079-1.2314 6.8588-3.1724z" fill="#c4c4c4"/><path d="m28.0403 26.3739c.3905-.3906.3905-1.0237 0-1.4143-.3905-.3905-1.0237-.3905-1.4142 0l-6.6667 6.6667c-.3905.3905-.3905 1.0237 0 1.4142s1.0237.3905 1.4142 0zm-4.7072.2928c0 .9205-.7461 1.6667-1.6666 1.6667s-1.6667-.7462-1.6667-1.6667c0-.9204.7462-1.6666 1.6667-1.6666s1.6666.7462 1.6666 1.6666zm4.6668 4.6667c0 .9205-.7462 1.6667-1.6667 1.6667s-1.6667-.7462-1.6667-1.6667.7462-1.6667 1.6667-1.6667 1.6667.7462 1.6667 1.6667z" fill="#000"/></g></g></svg>