<svg fill="none" height="48" viewBox="0 0 48 48" width="48" xmlns="http://www.w3.org/2000/svg"><path d="m26.216 3h13.784c2.2091 0 4 1.79087 4 4v13.8685c0 .7956-.3161 1.5587-.8787 2.1213l-21.0256 21.0256c-1.1168 1.1168-2.9082 1.1764-4.0968.1364l-15.0814-13.1962c-1.05306-.9214-1.14485-2.5277-.20359-3.5631l21.28229-23.41052c.5685-.62542 1.3746-.98198 2.2198-.98198z" fill="#fff"/><path d="m38 27h-34.73684l-1.26316 3.1034 17.6842 14.8966z" fill="#c4c4c4"/><path d="m26.216 3h13.784c2.2091 0 4 1.79087 4 4v13.8685c0 .7956-.3161 1.5587-.8787 2.1213l-21.0256 21.0256c-1.1168 1.1168-2.9082 1.1764-4.0968.1364l-15.0814-13.1962c-1.05306-.9214-1.14485-2.5277-.20359-3.5631l21.28229-23.41052c.5685-.62542 1.3746-.98198 2.2198-.98198z" stroke="#000" stroke-linecap="round" stroke-linejoin="round" stroke-width="2"/><circle cx="37.5" cy="9.5" fill="#000" r="2.5"/><path d="m8.44445 30h18.11115c.7977 0 1.4444-.6467 1.4444-1.4444v-15.2829l-10.5-6.2727-10.5 6.2727v15.2829c0 .7977.6467 1.4444 1.44445 1.4444z" fill="#fff"/><path d="m28 28v-13.9722l-11-8.0278-11 8.0278v13.9722c0 1.1046.89543 2 2 2h18c1.1046 0 2-.8954 2-2z" fill="#d92228"/><path d="m6 13.5938v14.4062c0 1.1046.89543 2 2 2h18c1.1046 0 2-.8954 2-2v-19" stroke="#000" stroke-linecap="round" stroke-linejoin="round" stroke-width="2"/><path d="m7 14.1034 3-3.1034v18h-2c-.55228 0-1-.4477-1-1z" fill="#a71a1f"/><g stroke="#000" stroke-width="2"><path d="m21 23c0-1.1046-.8954-2-2-2h-4c-1.1046 0-2 .8954-2 2v7h8z" fill="#fff"/><path d="m4 15 11.3487-8.72977c.9735-.74886 2.3291-.74886 3.3026 0l11.3487 8.72977" stroke-linecap="round"/><circle cx="17" cy="14" fill="#fff" r="3" stroke-linecap="round"/></g></svg>