<svg xmlns="http://www.w3.org/2000/svg" data-testid="icon-status-sold" viewBox="0 0 24 24"><path d="M17.735 13.678a1 1 0 0 0-1.47-1.356l-2.034 2.204-.496-.538a1 1 0 0 0-1.47 1.357l1.231 1.333a1 1 0 0 0 1.47 0z"/><path fill-rule="evenodd" d="M5 2a1 1 0 0 1 1 1v1h5V3a1 1 0 1 1 2 0v1h4V3a1 1 0 1 1 2 0v1h2a1 1 0 1 1 0 2h-2v1.126c1.725.444 3 2.01 3 3.874v7a4 4 0 0 1-4 4h-6a4 4 0 0 1-4-4v-7a4 4 0 0 1 3-3.874V6H6v15a1 1 0 1 1-2 0V6H3a1 1 0 1 1 0-2h1V3a1 1 0 0 1 1-1m8 4h4v1h-4zm-3 5a2 2 0 0 1 2-2h6a2 2 0 0 1 2 2v7a2 2 0 0 1-2 2h-6a2 2 0 0 1-2-2z" clip-rule="evenodd"/></svg>