<svg xmlns="http://www.w3.org/2000/svg" data-testid="icon-calendar-time" viewBox="0 0 24 24"><path d="M9 3a1 1 0 0 0-2 0v1a5 5 0 0 0-5 5v8a5 5 0 0 0 5 5h4.5a7.5 7.5 0 0 1-1.845-2H7a3 3 0 0 1-3-3V9a3 3 0 0 1 3-3v1a1 1 0 0 0 2 0V6h6v1a1 1 0 1 0 2 0V6a3 3 0 0 1 3 3v.655a7.5 7.5 0 0 1 2 1.844V9a5 5 0 0 0-5-5V3a1 1 0 1 0-2 0v1H9z"/><path d="M16.75 13.75a.75.75 0 0 0-1.5 0V16c0 .414.336.75.75.75h1.5a.75.75 0 0 0 0-1.5h-.75z"/><path fill-rule="evenodd" d="M16 10a6 6 0 1 0 0 12 6 6 0 0 0 0-12m-4 6a4 4 0 1 1 8 0 4 4 0 0 1-8 0" clip-rule="evenodd"/></svg>