<svg width="16" height="17" viewBox="0 0 16 17" fill="none" xmlns="http://www.w3.org/2000/svg">
<path fill-rule="evenodd" clip-rule="evenodd" d="M8.00033 1.83334C5.0213 1.83334 2.66699 4.37165 2.66699 7.42594C2.66699 8.79309 3.27071 10.1846 3.99673 11.3789C4.73106 12.5869 5.63847 13.6703 6.34544 14.4378C7.24674 15.4163 8.75391 15.4163 9.65521 14.4378C10.3622 13.6703 11.2696 12.5869 12.0039 11.3789C12.7299 10.1846 13.3337 8.79309 13.3337 7.42594C13.3337 4.37165 10.9793 1.83334 8.00033 1.83334ZM10.0003 7.16668C10.0003 8.27125 9.1049 9.16668 8.00033 9.16668C6.89576 9.16668 6.00033 8.27125 6.00033 7.16668C6.00033 6.06211 6.89576 5.16668 8.00033 5.16668C9.1049 5.16668 10.0003 6.06211 10.0003 7.16668Z" fill="#1A1816"/>
</svg>
