<svg width="62" height="62" viewBox="0 0 62 62" fill="none" xmlns="http://www.w3.org/2000/svg">
<path d="M18.7559 61.1197C13.7491 61.1197 9.51068 59.3848 6.04078 55.9149C2.57089 52.445 0.835938 48.2066 0.835938 43.1997C0.835938 41.0977 1.19442 39.0549 1.91138 37.0713C2.62835 35.0877 3.65556 33.29 4.99303 31.678L17.6081 16.5065L9.56189 0.380127H52.8496L44.8034 16.5065L57.4184 31.678C58.7559 33.29 59.7831 35.0877 60.5001 37.0713C61.217 39.0549 61.5755 41.0977 61.5755 43.1997C61.5755 48.2066 59.8313 52.445 56.343 55.9149C52.8552 59.3848 48.6261 61.1197 43.6556 61.1197H18.7559ZM31.2057 44.1135C29.424 44.1135 27.9023 43.4826 26.6404 42.2208C25.378 40.9589 24.7468 39.4372 24.7468 37.6555C24.7468 35.8732 25.378 34.3511 26.6404 33.0893C27.9023 31.8274 29.424 31.1965 31.2057 31.1965C32.9874 31.1965 34.5092 31.8274 35.771 33.0893C37.0335 34.3511 37.6647 35.8732 37.6647 37.6555C37.6647 39.4372 37.0335 40.9589 35.771 42.2208C34.5092 43.4826 32.9874 44.1135 31.2057 44.1135ZM22.5137 14.2252H39.9317L44.1576 5.7395H18.2539L22.5137 14.2252ZM18.7559 55.7603H43.6556C47.1648 55.7603 50.1353 54.5384 52.5673 52.0945C54.9999 49.6507 56.2161 46.6857 56.2161 43.1997C56.2161 41.7247 55.9631 40.2947 55.4569 38.9096C54.9507 37.5239 54.2281 36.2722 53.289 35.1544L40.3301 19.5846H22.1707L9.15637 35.099C8.21728 36.2168 7.48901 37.4777 6.97153 38.8819C6.45405 40.2854 6.19531 41.7247 6.19531 43.1997C6.19531 46.6857 7.41725 49.6507 9.86112 52.0945C12.305 54.5384 15.2699 55.7603 18.7559 55.7603Z" fill="#42CC93"/>
</svg>
