<svg fill="none" height="48" viewBox="0 0 48 48" width="48" xmlns="http://www.w3.org/2000/svg" xmlns:xlink="http://www.w3.org/1999/xlink"><clipPath id="a"><path d="m0 0h48v48h-48z"/></clipPath><g clip-path="url(#a)"><path d="m15 22.64c0-4.7717 3.8683-8.64 8.64-8.64 4.7717 0 8.64 3.8683 8.64 8.64v7.2c0 1.9882-1.6118 3.6-3.6 3.6h-10.08c-1.9882 0-3.6-1.6118-3.6-3.6z" fill="#fff" stroke="#000" stroke-linecap="round" stroke-linejoin="round" stroke-width="2"/><path d="m34.6555 42.1616c.1039.2338.199.4706.2853.7098.6743 1.8704-.9928 3.5282-2.981 3.5282h-8.28-8.28c-1.9882 0-3.6553-1.6578-2.981-3.5282.0863-.2392.1814-.476.2853-.7098.597-1.3437 1.4721-2.5645 2.5753-3.5929 1.1031-1.0284 2.4128-1.8441 3.8541-2.4007l4.5463-.5684 4.5463.5684c1.4413.5566 2.751 1.3723 3.8541 2.4007 1.1032 1.0284 1.9783 2.2492 2.5753 3.5929z" fill="#d92228"/><path clip-rule="evenodd" d="m35.2136 44.2408h-7.8904-9.72c-1.9882 0-3.652-1.6848-2.791-3.4769.0645-.1344.1328-.2678.2049-.4002.6694-1.2291 1.6506-2.346 2.8874-3.2868.5139-.3908 1.0677-.748 1.6554-1.0687l-.3829-.4076c-1.4413.6266-2.751 1.5451-3.8541 2.703-1.1032 1.1578-1.9783 2.5324-2.5753 4.0452-.1574.3988-.2946.8051-.4114 1.2172-.542 1.9129 1.1189 3.5546 3.1071 3.5546h8.28 8.28c1.7496 0 3.2456-1.2712 3.2103-2.8798z" fill="#c4c4c4" fill-rule="evenodd"/><g stroke="#000"><path d="m35.2409 42.2666c1.0282 2.1278-.9567 4.133-3.3199 4.133h-8.321-8.321c-2.3632 0-4.3481-2.0052-3.3199-4.133.6332-1.3103 1.5613-2.5009 2.7314-3.5037 1.17-1.0029 2.559-1.7984 4.0877-2.3412 1.5287-.5427 3.1671-.8221 4.8218-.8221s3.2931.2794 4.8218.8221c1.5287.5428 2.9177 1.3383 4.0877 2.3412 1.1701 1.0028 2.0982 2.1934 2.7314 3.5037z" stroke-linecap="round" stroke-linejoin="round" stroke-width="2"/><path d="m23.0939 38.9121-2.4938-2.9925v-2.88c0-.7953.6447-1.44 1.44-1.44h4.32c.7953 0 1.44.6447 1.44 1.44v2.88l-2.4938 2.9925c-.5757.6909-1.6367.6909-2.2124 0z" fill="#fff" stroke-linecap="round" stroke-linejoin="round" stroke-width="2"/><path d="m22.2599 24.5887c2.7238 0 5.1657-1.4369 6.1821-3.613.5772.971.9179 2.1408.9179 3.4077 0 1.882-.3472 4.0888-1.2359 5.7856-.8648 1.6513-2.1883 2.7508-4.2441 2.7508s-3.3793-1.0995-4.2441-2.7508c-.8887-1.6968-1.2359-3.9036-1.2359-5.7856 0-.2803.0167-.5558.0489-.8255 1.0883.6548 2.4051 1.0308 3.8111 1.0308z" fill="#fff" stroke-width="2"/><path d="m23.1059 1.77695c.0849-.17204.2601-.28095.4519-.28095.1919 0 .3671.10891.452.28095l1.1192 2.2678 2.5027.36366c.1898.02759.3476.16057.4068.34302.0593.18246.0099.38274-.1275.51665l-1.8109 1.76524.4275 2.49257c.0324.18908-.0453.38018-.2005.49291-.1552.1128-.361.1277-.5308.0384l-2.2385-1.17684-2.2384 1.17684c-.1698.0893-.3756.0744-.5308-.0384-.1552-.11273-.2329-.30383-.2005-.49291l.4275-2.49256-1.8109-1.76525c-.1374-.13391-.1869-.33419-.1276-.51665.0593-.18245.217-.31543.4069-.34302l2.5026-.36366z" fill="#fff" stroke-linecap="round" stroke-linejoin="round" stroke-width="1.008"/></g><path d="m21.8925 3.9281 4.4703 5.91026-2.8501-1.12696-2.8501 1.3524.2375-3.15553-1.9001-2.02852z" fill="#c4c4c4"/><path d="m22.6611 1.55743c.1685-.34133.5161-.55743.8967-.55743.3807 0 .7283.2161.8968.55743l1.0038 2.03398 2.2446.32616c.3767.05473.6896.31858.8073.68059.1176.36201.0195.75941-.2531 1.0251l-1.6242 1.58323.3834 2.23555c.0644.37516-.0898.75436-.3978.97806-.3079.2237-.7162.2532-1.0531.0761l-2.0077-1.05547-2.0076 1.05547c-.3369.1771-.7452.1476-1.0531-.0761-.308-.2237-.4622-.6029-.3979-.97806l.3835-2.23555-1.6243-1.58323c-.2725-.26569-.3706-.66309-.253-1.0251s.4306-.62586.8073-.68059l2.2446-.32616z" stroke="#000" stroke-linecap="round" stroke-linejoin="round" stroke-width="2"/><path d="m9.10588 5.77695c.0849-.17204.26011-.28095.45195-.28095.19185 0 .36705.10891.45197.28095l1.1192 2.2678 2.5027.36366c.1898.02759.3476.16057.4068.34302.0593.18246.0099.38274-.1275.51665l-1.8109 1.76522.4275 2.4926c.0324.1891-.0453.3802-.2005.4929-.1552.1128-.361.1277-.5308.0384l-2.23847-1.1768-2.23846 1.1768c-.1698.0893-.37557.0744-.53077-.0384-.15521-.1127-.23293-.3038-.2005-.4929l.4275-2.4926-1.81095-1.76522c-.13738-.13391-.18682-.33419-.12753-.51665.05928-.18245.217-.31543.40685-.34302l2.50268-.36366z" fill="#fff" stroke="#000" stroke-linecap="round" stroke-linejoin="round" stroke-width="1.008"/><path d="m7.89253 7.9281 4.47027 5.9103-2.85012-1.127-2.85011 1.3524.23751-3.1555-1.90007-2.02855z" fill="#c4c4c4"/><path d="m8.6611 5.55743c.16846-.34133.51609-.55743.89673-.55743.38065 0 .72827.2161.89677.55743l1.0038 2.03398 2.2446.32616c.3767.05473.6896.31858.8073.68059.1176.36201.0195.75941-.2531 1.0251l-1.6242 1.58324.3834 2.2355c.0644.3752-.0898.7544-.3978.9781-.3079.2237-.7162.2532-1.0531.0761l-2.00767-1.0555-2.00765 1.0555c-.33692.1771-.74518.1476-1.05312-.0761-.30795-.2237-.46217-.6029-.39783-.9781l.38343-2.2355-1.62422-1.58324c-.27258-.26569-.37067-.66309-.25305-1.0251.11763-.36201.43057-.62586.80726-.68059l2.24462-.32616z" stroke="#000" stroke-linecap="round" stroke-linejoin="round" stroke-width="2"/><path d="m37.1059 5.77695c.0849-.17204.2601-.28095.4519-.28095.1919 0 .3671.10891.452.28095l1.1192 2.2678 2.5027.36366c.1898.02759.3476.16057.4068.34302.0593.18246.0099.38274-.1275.51665l-1.8109 1.76522.4275 2.4926c.0324.1891-.0453.3802-.2005.4929-.1552.1128-.361.1277-.5308.0384l-2.2385-1.1768-2.2384 1.1768c-.1698.0893-.3756.0744-.5308-.0384-.1552-.1127-.2329-.3038-.2005-.4929l.4275-2.4926-1.8109-1.76522c-.1374-.13391-.1869-.33419-.1276-.51665.0593-.18245.217-.31543.4069-.34302l2.5026-.36366z" fill="#fff" stroke="#000" stroke-linecap="round" stroke-linejoin="round" stroke-width="1.008"/><path d="m35.8925 7.9281 4.4703 5.9103-2.8501-1.127-2.8501 1.3524.2375-3.1555-1.9001-2.02855z" fill="#c4c4c4"/><path d="m36.6611 5.55743c.1685-.34133.5161-.55743.8967-.55743.3807 0 .7283.2161.8968.55743l1.0038 2.03398 2.2446.32616c.3767.05473.6896.31858.8073.68059.1176.36201.0195.75941-.2531 1.0251l-1.6242 1.58324.3834 2.2355c.0644.3752-.0898.7544-.3978.9781-.3079.2237-.7162.2532-1.0531.0761l-2.0077-1.0555-2.0076 1.0555c-.3369.1771-.7452.1476-1.0531-.0761-.308-.2237-.4622-.6029-.3979-.9781l.3835-2.2355-1.6243-1.58324c-.2725-.26569-.3706-.66309-.253-1.0251s.4306-.62586.8073-.68059l2.2446-.32616z" stroke="#000" stroke-linecap="round" stroke-linejoin="round" stroke-width="2"/></g></svg>