<svg xmlns="http://www.w3.org/2000/svg" width="16" height="16" viewBox="0 0 16 16">
    <g fill="none" fill-rule="evenodd" opacity=".87">
        <path d="M-4-4h24v24H-4z"/>
        <path fill-rule="nonzero" stroke="#FFF" stroke-linecap="round" stroke-linejoin="round" stroke-width="2" d="M14.686 12.073c.43.432.417 1.147-.029 1.594l-.617.606-.013-.012a3.646 3.646 0 0 1-1.783.728c-.142.015-3.411.322-7.469-3.744C1.84 8.303.76 6.135 1.045 3.763c.033-.296.105-.59.223-.9.127-.325.297-.626.502-.888l-.017-.016.61-.615c.446-.447 1.16-.46 1.589-.03l2.162 2.168c.43.431.417 1.146-.03 1.593l-.358.36-.732.732c.039.067.077.138.118.21.382.69.905 1.636 1.898 2.632.991.993 1.933 1.517 2.62 1.899l.215.12 1.09-1.092c.445-.447 1.158-.46 1.59-.03l2.161 2.167z"/>
    </g>
</svg>
