<svg width="80" height="81" viewBox="0 0 80 81" fill="none" xmlns="http://www.w3.org/2000/svg">
<mask id="mask0_325_5318" style="mask-type:alpha" maskUnits="userSpaceOnUse" x="0" y="0" width="80" height="81">
<rect y="0.82373" width="80" height="80" fill="#42CC93"/>
</mask>
<g mask="url(#mask0_325_5318)">
<path d="M13.1356 72.4903C11.8284 72.4903 10.7003 72.0159 9.75146 71.067C8.80257 70.1181 8.32812 68.99 8.32812 67.6828V24.5928C8.32812 24.4006 8.41896 24.2084 8.60062 24.0161C8.78229 23.8239 8.95868 23.6956 9.12979 23.6311L49.0848 7.47781C49.5442 7.26392 49.9948 7.25698 50.4365 7.45698C50.8776 7.65698 51.1853 7.98448 51.3598 8.43948C51.5392 8.92226 51.5356 9.38198 51.349 9.81865C51.1617 10.2553 50.8448 10.5539 50.3981 10.7145L21.0715 22.4903H66.854C68.1612 22.4903 69.2892 22.9648 70.2381 23.9137C71.187 24.8625 71.6615 25.9906 71.6615 27.2978V67.6828C71.6615 68.99 71.187 70.1181 70.2381 71.067C69.2892 72.0159 68.1612 72.4903 66.854 72.4903H13.1356ZM26.3723 62.9453C28.4667 62.9453 30.2384 62.2148 31.6873 60.7537C33.1356 59.292 33.8598 57.5142 33.8598 55.4203C33.8598 53.3259 33.1292 51.5542 31.6681 50.1053C30.207 48.657 28.4292 47.9328 26.3348 47.9328C24.2403 47.9328 22.469 48.6634 21.0206 50.1245C19.5717 51.5856 18.8473 53.3634 18.8473 55.4578C18.8473 57.5523 19.5778 59.3237 21.039 60.772C22.5006 62.2209 24.2784 62.9453 26.3723 62.9453ZM12.1106 38.997H55.3798V35.6803C55.3798 35.1392 55.562 34.6912 55.9265 34.3362C56.2915 33.9817 56.7445 33.8045 57.2856 33.8045C57.8267 33.8045 58.2745 33.9853 58.629 34.347C58.984 34.7092 59.1615 35.1586 59.1615 35.6953V38.997H67.879V27.2978C67.879 27.0417 67.7723 26.8067 67.559 26.5928C67.3451 26.3795 67.1101 26.2728 66.854 26.2728H13.1356C12.8795 26.2728 12.6445 26.3795 12.4306 26.5928C12.2173 26.8067 12.1106 27.0417 12.1106 27.2978V38.997Z" fill="#42CC93"/>
</g>
</svg>
