<svg fill="none" height="48" viewBox="0 0 48 48" width="48" xmlns="http://www.w3.org/2000/svg"><path d="m17.921 22.2929-.7071-.7071-.7071.7071-12.21416 12.2141-1.47122 1.4712 2.0679.2298 5.31198.5902.5902 5.312.2298 2.0679 1.4712-1.4713 12.2141-12.2141.7071-.7071-.7071-.7071z" stroke="#000" stroke-width="2"/><path d="m30.0785 22.2929.7071-.7071.7072.7071 12.2141 12.2141 1.4712 1.4712-2.0679.2298-5.312.5902-.5902 5.312-.2297 2.0679-1.4713-1.4713-12.2141-12.2141-.7071-.7071.7071-.7071z" stroke="#000" stroke-width="2"/><path d="m4.99975 35.2141 12.21415-12.2141 6.7856 6.7856-12.2141 12.2141-.6786-6.107z" fill="#fff"/><path d="m4.99998 35.2141 4.21413-4.2139 6.78559 6.7857-4.2141 4.2138-.6786-6.107z" fill="#c4c4c4"/><path d="m42.9998 35.2141-12.2142-12.2141-6.7856 6.7856 12.2141 12.2141.6786-6.107z" fill="#fff"/><path d="m21.6707 3.42323c1.1181-1.64326 3.5405-1.64326 4.6586 0l1.7647 2.59346 3.0043-1.10206c1.9028-.698 3.8981.78126 3.7831 2.8048l-.1632 2.87447 2.8857.7307c2.0247.5127 2.8072 2.9731 1.4506 4.5611l-1.8061 2.1143 1.8061 2.1143c1.3566 1.588.5741 4.0484-1.4506 4.5611l-2.8857.7307.1632 2.8745c.115 2.0235-1.8803 3.5028-3.7831 2.8048l-3.0043-1.1021-1.7647 2.5935c-1.1181 1.6432-3.5405 1.6432-4.6586 0l-1.7647-2.5935-3.0043 1.1021c-1.9028.698-3.8981-.7813-3.7831-2.8048l.1632-2.8745-2.8857-.7307c-2.02473-.5127-2.80724-2.9731-1.45063-4.5611l1.80613-2.1143-1.80613-2.1143c-1.35661-1.588-.5741-4.0484 1.45063-4.5611l2.8857-.7307-.1632-2.87447c-.115-2.02354 1.8803-3.5028 3.7831-2.8048l3.0043 1.10206z" fill="#d92228" stroke="#000" stroke-linejoin="round" stroke-width="2"/><path d="m22.991 8.111c.1895-.384.5806-.62711 1.0088-.62711s.8193.24311 1.0088.62711l2.4983 5.0621 5.5863.8117c.4238.0616.7759.3584.9082.7657.1323.4072.022.8543-.2847 1.1532l-4.0423 3.9403.9543 5.5637c.0724.4221-.1011.8487-.4476 1.1004-.3464.2517-.8057.2849-1.1847.0856l-4.9966-2.6269-4.9966 2.6269c-.379.1993-.8383.1661-1.1847-.0856-.3465-.2517-.52-.6783-.4476-1.1004l.9543-5.5637-4.0423-3.9403c-.3067-.2989-.417-.746-.2847-1.1532.1323-.4073.4844-.7041.9082-.7657l5.5863-.8117z" fill="#fff" stroke="#000" stroke-linecap="round" stroke-linejoin="round" stroke-width="2.25"/><path d="m20.2825 12.9133 9.9782 13.1926-6.3618-2.5156-6.3619 3.0187.5302-7.0435-4.2412-4.5279z" fill="#c4c4c4"/><path d="m23.1031 8.16632c.1684-.34133.5161-.55743.8967-.55743.3807 0 .7283.2161.8967.55743l2.5274 5.12098 5.6514.8212c.3767.0547.6896.3186.8072.6806.1177.362.0196.7594-.253 1.0251l-4.0894 3.9861.9654 5.6286c.0643.3751-.0899.7543-.3978.978-.308.2238-.7162.2533-1.0532.0761l-5.0547-2.6574-5.0547 2.6574c-.3369.1772-.7452.1477-1.0531-.0761-.308-.2237-.4622-.6029-.3979-.978l.9654-5.6286-4.0894-3.9861c-.2725-.2657-.3706-.6631-.253-1.0251s.4306-.6259.8073-.6806l5.6513-.8212z" stroke="#000" stroke-linecap="round" stroke-linejoin="round" stroke-width="2"/></svg>