<svg width="26" height="30" viewBox="0 0 26 30" fill="none" xmlns="http://www.w3.org/2000/svg">
<path d="M18.2446 28.9387C17.9959 29.1873 17.7095 29.3777 17.3853 29.5096C17.0608 29.6414 16.7276 29.7072 16.3856 29.7072C16.0434 29.7072 15.7087 29.6414 15.3815 29.5096C15.0544 29.3777 14.7665 29.1873 14.5178 28.9387L12.5881 27.0232C12.3394 26.7745 12.1553 26.4979 12.0357 26.1934C11.9161 25.8886 11.8488 25.58 11.8338 25.2677C11.8187 24.9556 11.8658 24.6434 11.9752 24.3311C12.0846 24.0188 12.244 23.7309 12.4535 23.4674L12.7565 23.1054L0.871094 6.11578L6.08172 0.905151L24.3164 19.1402C24.565 19.3888 24.7553 19.6752 24.8873 19.9995C25.019 20.324 25.0849 20.6572 25.0849 20.9992C25.0849 21.3414 25.019 21.6761 24.8873 22.0032C24.7553 22.3304 24.565 22.6183 24.3164 22.8669L18.2446 28.9387ZM16.091 27.3797C16.1843 27.4638 16.2918 27.5059 16.4133 27.5059C16.5351 27.5059 16.638 27.4638 16.7221 27.3797L22.7574 21.3444C22.8415 21.2603 22.8835 21.1574 22.8835 21.0356C22.8835 20.9141 22.8415 20.8067 22.7574 20.7133L20.5192 18.4248L14.1248 24.8189C14.0315 24.9125 13.9848 25.0223 13.9848 25.1485C13.9848 25.2749 14.0315 25.3801 14.1248 25.4642L16.091 27.3797Z" fill="#42CC93"/>
</svg>
