<svg xmlns="http://www.w3.org/2000/svg" viewBox="0 0 24 24" fill="none">
<rect x="11.1" y="3.2" width="1.8" height="15.4" rx=".9" fill="#d92228"/>
<circle cx="12" cy="3.2" r="1.5" fill="#d92228"/>
<rect x="4.2" y="5" width="15.6" height="1.7" rx=".85" fill="#d92228"/>
<path fill="#d92228" d="M5.6 6.6 3.1 11.5l1 .5 1.5-3 1.5 3 1-.5z"/>
<path fill="#d92228" d="M18.4 6.6l-2.5 4.9 1 .5 1.5-3 1.5 3 1-.5z"/>
<path fill="#a71a1f" d="M2.1 11.6h7a3.5 3.5 0 0 1-7 0z"/>
<path fill="#a71a1f" d="M14.9 11.6h7a3.5 3.5 0 0 1-7 0z"/>
<rect x="8.3" y="18.6" width="7.4" height="1.9" rx=".95" fill="#d92228"/>
<circle cx="12" cy="5.85" r=".8" fill="#fff"/>
</svg>