<svg width="48" height="48" viewBox="0 0 48 48" fill="none" xmlns="http://www.w3.org/2000/svg">
<g clip-path="url(#clip0_12844_3619)">
<path fill-rule="evenodd" clip-rule="evenodd" d="M9.58807 38.9887C10.9028 40.3035 12.5057 40.1099 13.2005 39.415L22.2322 30.3833L26.5768 34.7279L17.5451 43.7596C14.1472 47.1575 8.67883 46.5284 5.36358 43.2132C2.04833 39.8979 1.41929 34.4296 4.81717 31.0317L13.8489 22L18.1934 26.3445L9.16173 35.3762C8.46684 36.0711 8.27331 37.6739 9.58807 38.9887Z" fill="#D92228"/>
<path d="M18.0917 26.2426L13.849 22L10.3135 25.5355L14.5561 29.7782L18.0917 26.2426Z" fill="white"/>
<path d="M26.5769 34.728L22.3342 30.4854L18.7987 34.0209L23.0413 38.2635L26.5769 34.728Z" fill="white"/>
<path fill-rule="evenodd" clip-rule="evenodd" d="M18.2532 44.4665C14.3791 48.3406 8.27167 47.5344 4.65745 43.9201C1.04322 40.3059 0.236978 34.1985 4.11104 30.3244L12.0821 22.3534C13.0584 21.3771 14.6413 21.3771 15.6176 22.3534L17.8408 24.5766C18.8171 25.5529 18.8171 27.1358 17.8408 28.1122L9.86981 36.0832C9.62358 36.3294 9.31113 37.2964 10.2962 38.2814C11.2812 39.2665 12.2482 38.954 12.4944 38.7078L20.4654 30.7368C21.4417 29.7604 23.0247 29.7604 24.001 30.7367L26.2242 32.96C27.2005 33.9363 27.2005 35.5192 26.2242 36.4955L18.2532 44.4665ZM6.07166 42.5059C9.08794 45.5222 13.9173 45.974 16.839 43.0523L24.81 35.0813C25.0053 34.886 25.0053 34.5695 24.81 34.3742L22.5868 32.151C22.3915 31.9557 22.0749 31.9557 21.8796 32.151L13.9086 40.122C12.7651 41.2655 10.5264 41.3401 8.88194 39.6957C7.23745 38.0512 7.31205 35.8125 8.4556 34.669L16.4266 26.6979C16.6219 26.5027 16.6219 26.1861 16.4266 25.9908L14.2034 23.7676C14.0081 23.5723 13.6915 23.5723 13.4963 23.7676L5.52525 31.7386C2.60355 34.6603 3.05539 39.4897 6.07166 42.5059Z" fill="#620F12"/>
<path d="M25.0741 6.3263C19.7903 5.84169 14.338 7.62195 10.2929 11.6671C9.90237 12.0576 9.90237 12.6907 10.2929 13.0813C10.6834 13.4718 11.3166 13.4718 11.7071 13.0813C15.1636 9.62483 19.772 8.02246 24.2965 8.27416C24.5012 7.59861 24.7623 6.9475 25.0741 6.3263Z" fill="#620F12"/>
<path d="M39.8392 23.6683C40.1375 28.2434 38.5383 32.9191 35.0416 36.4158C34.6511 36.8063 34.6511 37.4395 35.0416 37.83C35.4322 38.2205 36.0653 38.2205 36.4558 37.83C40.5461 33.7397 42.3207 28.2106 41.7795 22.8719C41.1612 23.1898 40.5126 23.457 39.8392 23.6683Z" fill="#620F12"/>
<path d="M23.7746 12.3266C20.3898 12.2297 16.9892 13.4555 14.5351 15.9097C14.1446 16.3002 14.1446 16.9333 14.5351 17.3239C14.9256 17.7144 15.5588 17.7144 15.9493 17.3239C18.077 15.1962 21.0687 14.1733 24.0133 14.3386C23.8808 13.6852 23.7997 13.013 23.7746 12.3266Z" fill="#620F12"/>
<path d="M33.7777 24.0092C33.9721 26.9859 32.9503 30.0214 30.7985 32.1731C30.408 32.5636 30.408 33.1968 30.7985 33.5873C31.1891 33.9779 31.8222 33.9779 32.2127 33.5873C34.6957 31.1043 35.9213 27.6526 35.7918 24.2285C35.105 24.2099 34.4322 24.1353 33.7777 24.0092Z" fill="#620F12"/>
<path d="M25.8486 18.736C23.4954 17.7688 20.6897 18.2409 18.7782 20.1523C18.3877 20.5429 18.3877 21.176 18.7782 21.5666C19.1688 21.9571 19.8019 21.9571 20.1925 21.5666C21.9498 19.8092 24.7991 19.8092 26.5564 21.5666C28.3138 23.3239 28.3138 26.1732 26.5564 27.9305C26.1659 28.321 26.1659 28.9542 26.5564 29.3447C26.9469 29.7353 27.5801 29.7353 27.9706 29.3447C29.8976 27.4177 30.3618 24.5818 29.363 22.2169C27.9709 21.3045 26.7741 20.1188 25.8486 18.736Z" fill="#620F12"/>
<path d="M44.9999 11.8667C44.9999 6.96981 41.0302 3.00007 36.1333 3.00007C31.2363 3.00007 27.2666 6.96981 27.2666 11.8667C27.2666 16.7637 31.2363 20.7334 36.1333 20.7334C41.0302 20.7334 44.9999 16.7637 44.9999 11.8667Z" fill="white"/>
<path d="M31.6327 9C31.6327 6.51472 33.6474 4.5 36.1327 4.5C38.618 4.5 40.6327 6.51472 40.6327 9C40.6327 11.4853 38.618 13.5 36.1327 13.5C33.6474 13.5 31.6327 11.4853 31.6327 9Z" fill="#D92228"/>
<path d="M36.1328 22C39.9988 22 43.1328 20.3584 43.1328 18.3334C43.1328 16.3084 39.9988 14.6667 36.1328 14.6667C32.2668 14.6667 29.1328 16.3084 29.1328 18.3334C29.1328 20.3584 32.2668 22 36.1328 22Z" fill="#D92228"/>
<path fill-rule="evenodd" clip-rule="evenodd" d="M36.1333 1.00007C42.1348 1.00007 46.9999 5.86524 46.9999 11.8667C46.9999 17.8682 42.1348 22.7334 36.1333 22.7334C30.1318 22.7334 25.2666 17.8682 25.2666 11.8667C25.2666 5.86524 30.1318 1.00007 36.1333 1.00007ZM36.1333 3.00007C41.0302 3.00007 44.9999 6.96981 44.9999 11.8667C44.9999 16.7637 41.0302 20.7334 36.1333 20.7334C31.2363 20.7334 27.2666 16.7637 27.2666 11.8667C27.2666 6.96981 31.2363 3.00007 36.1333 3.00007Z" fill="#620F12"/>
</g>
<defs>
<clipPath id="clip0_12844_3619">
<rect width="48" height="48" fill="white"/>
</clipPath>
</defs>
</svg>
