<svg width="32" height="32" viewBox="0 0 32 32" fill="none" xmlns="http://www.w3.org/2000/svg">
<path d="M2 5.33337C2 4.22881 2.89543 3.33337 4 3.33337H28C29.1046 3.33337 30 4.2288 30 5.33337V21.3334C30 22.4379 29.1046 23.3334 28 23.3334H4C2.89543 23.3334 2 22.4379 2 21.3334V5.33337Z" fill="white"/>
<path d="M2 22.6666V18.9428C2 18.3488 2.71809 18.0514 3.13807 18.4714L6.86193 22.1952C7.28191 22.6152 6.98446 23.3333 6.39052 23.3333H2.66667C2.29848 23.3333 2 23.0348 2 22.6666Z" fill="#D92228"/>
<path d="M30 3.99998L30 7.72384C30 8.31778 29.2819 8.61522 28.8619 8.19525L25.1381 4.47139C24.7181 4.05141 25.0155 3.33332 25.6095 3.33332L29.3333 3.33332C29.7015 3.33332 30 3.63179 30 3.99998Z" fill="#D92228"/>
<path d="M2.66661 3.33337L6.39047 3.33337C6.98441 3.33337 7.28185 4.05147 6.86187 4.47145L3.13801 8.1953C2.71804 8.61528 1.99994 8.31783 1.99994 7.7239L1.99994 4.00004C1.99994 3.63185 2.29842 3.33337 2.66661 3.33337Z" fill="#D92228"/>
<path d="M29.3334 23.3334L25.6095 23.3334C25.0156 23.3334 24.7182 22.6153 25.1381 22.1953L28.862 18.4714C29.282 18.0515 30.0001 18.3489 30.0001 18.9428L30.0001 22.6667C30.0001 23.0349 29.7016 23.3334 29.3334 23.3334Z" fill="#D92228"/>
<path d="M14 29.3333L14 24L18 24L18 29.3333L16.3399 28.3496C16.1303 28.2254 15.8697 28.2254 15.6601 28.3496L14 29.3333Z" fill="white"/>
<path fill-rule="evenodd" clip-rule="evenodd" d="M1.76426 17.431C1.89443 17.3008 2.10549 17.3008 2.23566 17.431L7.90233 23.0977C8.0325 23.2278 8.0325 23.4389 7.90233 23.5691C7.77215 23.6993 7.5611 23.6993 7.43092 23.5691L1.76426 17.9024C1.63408 17.7722 1.63408 17.5612 1.76426 17.431Z" fill="#D92228"/>
<path fill-rule="evenodd" clip-rule="evenodd" d="M29.9024 9.23574C29.7722 9.36592 29.5611 9.36592 29.431 9.23574L23.7643 3.56908C23.6341 3.4389 23.6341 3.22785 23.7643 3.09767C23.8945 2.9675 24.1055 2.9675 24.2357 3.09767L29.9024 8.76434C30.0325 8.89451 30.0325 9.10557 29.9024 9.23574Z" fill="#D92228"/>
<path fill-rule="evenodd" clip-rule="evenodd" d="M7.90237 3.09763C8.03254 3.22781 8.03254 3.43886 7.90237 3.56904L2.2357 9.2357C2.10553 9.36588 1.89447 9.36588 1.7643 9.2357C1.63412 9.10553 1.63412 8.89447 1.7643 8.7643L7.43096 3.09763C7.56114 2.96746 7.77219 2.96746 7.90237 3.09763Z" fill="#D92228"/>
<path fill-rule="evenodd" clip-rule="evenodd" d="M23.7643 23.569C23.6341 23.4388 23.6341 23.2278 23.7643 23.0976L29.4309 17.4309C29.5611 17.3007 29.7722 17.3007 29.9023 17.4309C30.0325 17.5611 30.0325 17.7722 29.9023 17.9023L24.2357 23.569C24.1055 23.6992 23.8944 23.6992 23.7643 23.569Z" fill="#D92228"/>
<path fill-rule="evenodd" clip-rule="evenodd" d="M1.33337 4.66663C1.33337 3.56206 2.2288 2.66663 3.33337 2.66663H28.6667C29.7713 2.66663 30.6667 3.56206 30.6667 4.66663V22C30.6667 23.1045 29.7713 24 28.6667 24H3.33337C2.2288 24 1.33337 23.1045 1.33337 22V4.66663ZM3.33337 3.99996C2.96518 3.99996 2.66671 4.29844 2.66671 4.66663V22C2.66671 22.3681 2.96518 22.6666 3.33337 22.6666H28.6667C29.0349 22.6666 29.3334 22.3681 29.3334 22V4.66663C29.3334 4.29844 29.0349 3.99996 28.6667 3.99996H3.33337Z" fill="#620F12"/>
<path fill-rule="evenodd" clip-rule="evenodd" d="M12.6666 22.6666L19.3333 22.6666L19.3333 29.2163C19.3333 30.3011 18.1528 30.9737 17.2196 30.4207L16 29.698L14.7803 30.4207C13.8471 30.9737 12.6666 30.3011 12.6666 29.2163L12.6666 22.6666ZM14.1006 29.2736C14.0562 29.3 14 29.268 14 29.2163L14 24L18 24L18 29.2163C18 29.268 17.9437 29.3 17.8993 29.2736L16.3398 28.3495C16.1303 28.2253 15.8697 28.2253 15.6601 28.3495L14.1006 29.2736Z" fill="#620F12"/>
<path d="M15.7244 16.405C15.8567 16.2106 16.1433 16.2106 16.2755 16.405L17.0667 17.5678C17.1527 17.6941 17.3136 17.7458 17.4571 17.6932L18.8198 17.1933C19.0449 17.1107 19.281 17.2857 19.2674 17.5252L19.1913 18.8644C19.1823 19.0238 19.2875 19.1672 19.4423 19.2064L20.8132 19.5535C21.0527 19.6142 21.1453 19.9053 20.9848 20.0932L20.1104 21.1168C20.0039 21.2415 20.0039 21.4252 20.1104 21.5498L20.9848 22.5735C21.1453 22.7614 21.0527 23.0525 20.8132 23.1131L19.4423 23.4602C19.2875 23.4994 19.1823 23.6429 19.1913 23.8023L19.2674 25.1415C19.281 25.3809 19.0449 25.5559 18.8198 25.4734L17.4571 24.9735C17.3136 24.9209 17.1527 24.9725 17.0667 25.0989L16.2755 26.2617C16.1433 26.4561 15.8567 26.4561 15.7244 26.2617L14.9332 25.0989C14.8472 24.9725 14.6863 24.9209 14.5428 24.9735L13.1801 25.4734C12.955 25.5559 12.719 25.3809 12.7325 25.1415L12.8086 23.8023C12.8177 23.6429 12.7124 23.4994 12.5576 23.4602L11.1867 23.1131C10.9472 23.0525 10.8546 22.7614 11.0151 22.5735L11.8895 21.5498C11.9961 21.4252 11.9961 21.2415 11.8895 21.1168L11.0151 20.0932C10.8546 19.9053 10.9472 19.6142 11.1867 19.5535L12.5576 19.2064C12.7124 19.1672 12.8177 19.0238 12.8086 18.8644L12.7325 17.5252C12.719 17.2857 12.955 17.1107 13.1801 17.1933L14.5428 17.6932C14.6863 17.7458 14.8472 17.6941 14.9332 17.5678L15.7244 16.405Z" fill="#D92228"/>
<path fill-rule="evenodd" clip-rule="evenodd" d="M15.2307 16.4064C15.6 15.8645 16.3999 15.8645 16.7692 16.4064L17.3692 17.2869L18.41 16.9057C19.0384 16.6755 19.6973 17.1633 19.6594 17.8306L19.6031 18.8197L20.6306 19.0795C21.2993 19.2485 21.5577 20.0598 21.1097 20.5835L20.4681 21.3333L21.1097 22.0832C21.5577 22.6068 21.2993 23.4181 20.6306 23.5872L19.6031 23.847L19.6594 24.8361C19.6973 25.5033 19.0384 25.9911 18.41 25.761L17.3692 25.3798L16.7692 26.2603C16.3999 26.8021 15.6 26.8021 15.2307 26.2603L14.6307 25.3798L13.5899 25.761C12.9615 25.9911 12.3026 25.5033 12.3406 24.8361L12.3968 23.847L11.3693 23.5872C10.7007 23.4181 10.4422 22.6068 10.8903 22.0832L11.5318 21.3333L10.8903 20.5835C10.4422 20.0598 10.7007 19.2485 11.3693 19.0795L12.3968 18.8197L12.3406 17.8306C12.3026 17.1633 12.9615 16.6755 13.5899 16.9057L14.6307 17.2869L15.2307 16.4064ZM16 17.4795L15.5202 18.1834C15.2802 18.5356 14.8311 18.6797 14.4306 18.533L13.6059 18.231L13.6499 19.0045C13.6752 19.4488 13.3814 19.8486 12.9494 19.9578L12.1578 20.1579L12.6471 20.7299C12.9444 21.0774 12.9444 21.5892 12.6471 21.9368L12.1578 22.5087L12.9494 22.7089C13.3814 22.8181 13.6752 23.2179 13.6499 23.6621L13.6059 24.4357L14.4306 24.1337C14.8311 23.987 15.2802 24.131 15.5202 24.4832L16 25.1872L16.4797 24.4832C16.7197 24.131 17.1688 23.987 17.5693 24.1337L18.394 24.4357L18.35 23.6621C18.3247 23.2179 18.6185 22.8181 19.0506 22.7089L19.8422 22.5087L19.3528 21.9368C19.0555 21.5892 19.0555 21.0774 19.3528 20.7299L19.8422 20.1579L19.0506 19.9578C18.6185 19.8486 18.3247 19.4488 18.35 19.0045L18.394 18.231L17.5693 18.533C17.1688 18.6797 16.7197 18.5356 16.4797 18.1834L16 17.4795Z" fill="#D92228"/>
<path fill-rule="evenodd" clip-rule="evenodd" d="M9.33337 6.00004C9.33337 5.63185 9.63185 5.33337 10 5.33337H22C22.3682 5.33337 22.6667 5.63185 22.6667 6.00004C22.6667 6.36823 22.3682 6.66671 22 6.66671H10C9.63185 6.66671 9.33337 6.36823 9.33337 6.00004Z" fill="#620F12"/>
<path fill-rule="evenodd" clip-rule="evenodd" d="M12.6666 8.66667C12.6666 8.29848 12.9651 8 13.3333 8H18.6666C19.0348 8 19.3333 8.29848 19.3333 8.66667C19.3333 9.03486 19.0348 9.33333 18.6666 9.33333H13.3333C12.9651 9.33333 12.6666 9.03486 12.6666 8.66667Z" fill="#620F12"/>
<path fill-rule="evenodd" clip-rule="evenodd" d="M9.33337 11.3333C9.33337 10.9651 9.63185 10.6666 10 10.6666L22 10.6666C22.3682 10.6666 22.6667 10.9651 22.6667 11.3333C22.6667 11.7015 22.3682 12 22 12L10 12C9.63185 12 9.33337 11.7015 9.33337 11.3333Z" fill="#620F12"/>
<path fill-rule="evenodd" clip-rule="evenodd" d="M9.33337 14C9.33337 13.6319 9.63185 13.3334 10 13.3334L22 13.3334C22.3682 13.3334 22.6667 13.6319 22.6667 14C22.6667 14.3682 22.3682 14.6667 22 14.6667L10 14.6667C9.63185 14.6667 9.33337 14.3682 9.33337 14Z" fill="#620F12"/>
<path fill-rule="evenodd" clip-rule="evenodd" d="M4 16.6667C4 16.2985 4.29848 16 4.66667 16H10C10.3682 16 10.6667 16.2985 10.6667 16.6667C10.6667 17.0349 10.3682 17.3333 10 17.3333H4.66667C4.29848 17.3333 4 17.0349 4 16.6667Z" fill="#620F12"/>
<path fill-rule="evenodd" clip-rule="evenodd" d="M21.3334 16.6667C21.3334 16.2985 21.6319 16 22 16H27.3334C27.7016 16 28 16.2985 28 16.6667C28 17.0349 27.7016 17.3333 27.3334 17.3333H22C21.6319 17.3333 21.3334 17.0349 21.3334 16.6667Z" fill="#620F12"/>
</svg>
