<svg width="48" height="48" viewBox="0 0 48 48" fill="none" xmlns="http://www.w3.org/2000/svg">
<path d="M9.44444 42H38.5556C39.3533 42 40 41.4272 40 40.7206V23L24 11L8 22.5V40.7206C8 41.4272 8.6467 42 9.44444 42Z" fill="#D92228"/>
<path d="M6.16591 18.2516L22.3847 6.20044C23.3437 5.48788 24.6563 5.48788 25.6153 6.20044L35 13.1736V7.92332C35 7.41352 35.4477 7.00024 36 7.00024H39C39.5523 7.00024 40 7.41352 40 7.92332V16.8888L41.8341 18.2516C42.5676 18.7966 43 19.6565 43 20.5704V23.0114C43 23.8333 42.0634 24.3043 41.4036 23.814L24 10.8826L6.59642 23.814C5.93663 24.3043 5 23.8333 5 23.0114V20.5704C5 19.6565 5.43239 18.7966 6.16591 18.2516Z" fill="white"/>
<path d="M34 29C34 34.5228 29.5228 39 24 39C18.4772 39 14 34.5228 14 29C14 23.4772 18.4772 19 24 19C29.5228 19 34 23.4772 34 29Z" fill="white"/>
<path d="M26.2117 5.39727C24.8986 4.42161 23.1014 4.42161 21.7883 5.39727L5.56949 17.4484C4.58206 18.1821 4 19.3397 4 20.5699V23.0109C4 24.5762 5.69839 25.505 7 24.7438L9 23.2734L24 12.1279L39 23.2734L41 24.7438C42.3016 25.505 44 24.5762 44 23.0109V20.5699C44 19.3397 43.4179 18.1821 42.4305 17.4484L41 16.3855V7.99976C41.5523 7.99976 42 7.55204 42 6.99976C42 6.44747 41.5523 5.99976 41 5.99976H34C33.4477 5.99976 33 6.44747 33 6.99976C33 7.55204 33.4477 7.99976 34 7.99976V11.1842L26.2117 5.39727Z" fill="#620F12"/>
<path d="M7 41H1C0.447715 41 0 41.4477 0 42C0 42.5523 0.447715 43 1 43H47C47.5523 43 48 42.5523 48 42C48 41.4477 47.5523 41 47 41H41H39H9H7Z" fill="#620F12"/>
<path d="M35 8.16818C35 7.52301 35.523 7 36.1682 7H38.8318C39.477 7 40 7.52301 40 8.16818V18.8318C40 19.477 39.477 20 38.8318 20H36.1682C35.523 20 35 19.477 35 18.8318V8.16818Z" fill="white"/>
<path fill-rule="evenodd" clip-rule="evenodd" d="M34 8.16818C34 6.97073 34.9707 6 36.1682 6H38.8318C40.0293 6 41 6.97073 41 8.16818V18C41 19.1975 40.0293 20.1682 38.8318 20.1682H36.1682C34.9707 20.1682 34 19.1975 34 18V8.16818ZM36.1682 8C36.0753 8 36 8.0753 36 8.16818V18C36 18.0929 36.0753 18.1682 36.1682 18.1682H38.8318C38.9247 18.1682 39 18.0929 39 18V8.16818C39 8.0753 38.9247 8 38.8318 8H36.1682Z" fill="#620F12"/>
<path fill-rule="evenodd" clip-rule="evenodd" d="M33 7C33 6.44772 33.4477 6 34 6L41 6C41.5523 6 42 6.44772 42 7C42 7.55228 41.5523 8 41 8L34 8C33.4477 8 33 7.55228 33 7Z" fill="#620F12"/>
<path d="M22.0721 6.62437L6.37475 18.288C5.50369 18.9352 4.99023 19.9564 4.99023 21.0416V22.8373C4.99023 23.8134 6.10248 24.3727 6.88598 23.7905L23.9902 11.0815L41.0945 23.7905C41.878 24.3727 42.9902 23.8134 42.9902 22.8373V21.0416C42.9902 19.9564 42.4768 18.9352 41.6057 18.288L25.9084 6.62437C24.7696 5.77821 23.2109 5.7782 22.0721 6.62437Z" fill="white"/>
<path fill-rule="evenodd" clip-rule="evenodd" d="M25.3175 7.41852C24.5291 6.83272 23.45 6.83271 22.6616 7.41852L6.96431 19.0822C6.34451 19.5427 5.97917 20.2693 5.97917 21.0415V22.8372C5.97917 22.9999 6.16454 23.0931 6.29512 22.996L23.9896 9.84845L41.684 22.996C41.8146 23.0931 42 22.9999 42 22.8372V21.0415C42 20.2693 41.6347 19.5427 41.0149 19.0822L25.3175 7.41852ZM21.4812 5.82989C22.9704 4.72337 25.0088 4.72337 26.4979 5.82989L42.1953 17.4935C43.3176 18.3275 43.9792 19.6432 43.9792 21.0415V22.8372C43.9792 24.6267 41.9401 25.652 40.5036 24.5847L23.9896 12.3142L7.47553 24.5847C6.03911 25.652 4 24.6267 4 22.8372V21.0415C4 19.6432 4.66157 18.3275 5.7839 17.4935L21.4812 5.82989Z" fill="#620F12"/>
<path fill-rule="evenodd" clip-rule="evenodd" d="M24 21C24.5523 21 25 21.4477 25 22V22.8074C26.0076 22.9246 26.936 23.2176 27.6859 23.6551C28.6539 24.2198 29.5 25.1468 29.5 26.375C29.5 26.9273 29.0523 27.375 28.5 27.375C27.9477 27.375 27.5 26.9273 27.5 26.375C27.5 26.1535 27.3387 25.768 26.6781 25.3826C26.2453 25.1301 25.6695 24.9283 25 24.8251V28.0394C25.5183 28.0835 26.1624 28.1767 26.7907 28.3741C27.3968 28.5644 28.0648 28.8743 28.592 29.3979C29.1451 29.9473 29.5 30.6919 29.5 31.625C29.5 32.5581 29.1451 33.3027 28.592 33.8521C28.0648 34.3757 27.3968 34.6856 26.7907 34.8759C26.1624 35.0733 25.5183 35.1665 25 35.2106V36C25 36.5523 24.5523 37 24 37C23.4477 37 23 36.5523 23 36V35.1926C21.9924 35.0754 21.064 34.7824 20.3141 34.3449C19.3461 33.7802 18.5 32.8532 18.5 31.625C18.5 31.0727 18.9477 30.625 19.5 30.625C20.0523 30.625 20.5 31.0727 20.5 31.625C20.5 31.8465 20.6613 32.232 21.3219 32.6174C21.7547 32.8699 22.3305 33.0717 23 33.1749V29.9606C22.4817 29.9165 21.8376 29.8233 21.2093 29.6259C20.6032 29.4356 19.9352 29.1257 19.408 28.6021C18.8549 28.0527 18.5 27.3081 18.5 26.375C18.5 25.4419 18.8549 24.6973 19.408 24.1479C19.9352 23.6243 20.6032 23.3144 21.2093 23.1241C21.8376 22.9267 22.4817 22.8335 23 22.7894V22C23 21.4477 23.4477 21 24 21ZM23 24.7982C22.6293 24.8369 22.2084 24.9066 21.8086 25.0322C21.37 25.1699 21.0335 25.3523 20.8174 25.5669C20.6272 25.7559 20.5 25.9956 20.5 26.375C20.5 26.7544 20.6272 26.9941 20.8174 27.1831C21.0335 27.3977 21.37 27.5801 21.8086 27.7178C22.2084 27.8434 22.6293 27.9131 23 27.9518V24.7982ZM25 30.0482V33.2018C25.3707 33.1631 25.7916 33.0934 26.1914 32.9678C26.63 32.8301 26.9665 32.6477 27.1826 32.4331C27.3728 32.2441 27.5 32.0044 27.5 31.625C27.5 31.2456 27.3728 31.0059 27.1826 30.8169C26.9665 30.6023 26.63 30.4199 26.1914 30.2822C25.7916 30.1566 25.3707 30.0869 25 30.0482Z" fill="#620F12"/>
</svg>
