<svg width="48" height="48" viewBox="0 0 48 48" fill="none" xmlns="http://www.w3.org/2000/svg">
<path d="M5.28618 37.8273L15.7018 2.95817C15.8599 2.42899 16.417 2.12814 16.9462 2.28621L33.4127 7.20487L41.1669 9.5211C41.6961 9.67917 41.9969 10.2363 41.8388 10.7655L39.5226 18.5196L31.4232 45.6346C31.2651 46.1638 30.708 46.4646 30.1788 46.3065L5.95814 39.0716C5.42896 38.9136 5.12811 38.3564 5.28618 37.8273Z" fill="#D92228"/>
<path fill-rule="evenodd" clip-rule="evenodd" d="M17.6182 3.53083C17.089 3.37276 16.5319 3.6736 16.3738 4.20278L6.53058 37.1555C6.37251 37.6847 6.67335 38.2419 7.20253 38.3999L29.5069 45.0624C30.0361 45.2205 30.5932 44.9196 30.7513 44.3904L40.5945 11.4377C40.7526 10.9085 40.4517 10.3514 39.9225 10.1933L17.6182 3.53083ZM14.4575 3.63036C14.9317 2.04282 16.6031 1.14028 18.1906 1.61449L40.495 8.27696C42.0825 8.75117 42.985 10.4226 42.5108 12.0101L32.6676 44.9629C32.1934 46.5504 30.522 47.4529 28.9345 46.9787L6.63011 40.3163C5.04257 39.842 4.14003 38.1707 4.61424 36.5831L14.4575 3.63036Z" fill="#D92228"/>
<path d="M9.86548 41.957V5.95703C9.86548 5.40475 10.3132 4.95703 10.8655 4.95703H27.8655H35.8655C36.4178 4.95703 36.8655 5.40475 36.8655 5.95703V13.957V41.957C36.8655 42.5093 36.4178 42.957 35.8655 42.957H10.8655C10.3132 42.957 9.86548 42.5093 9.86548 41.957Z" fill="white"/>
<path fill-rule="evenodd" clip-rule="evenodd" d="M29.9338 1.45898L29.9192 1.45904C29.0911 1.46847 28.2744 1.75375 27.6508 2.29041C27.1445 2.7261 26.7919 3.30818 26.6722 3.95703H11.8655C10.2086 3.95703 8.86548 5.30017 8.86548 6.95703V40.957C8.86548 42.6139 10.2086 43.957 11.8655 43.957H34.8655C36.5223 43.957 37.8655 42.6139 37.8655 40.957V6.95703C37.8655 5.30017 36.5223 3.95703 34.8655 3.95703H33.2111C33.0904 3.30316 32.7333 2.71733 32.221 2.28069C31.591 1.74371 30.767 1.46169 29.9338 1.45898ZM31.2561 5.95703V14.4859C31.2547 14.6909 31.1595 14.926 30.9237 15.127C30.7175 15.3027 30.2821 15.4568 29.8306 15.459C29.6179 15.4579 29.3461 15.4218 29.0897 15.3495C28.818 15.2729 28.6539 15.1813 28.5902 15.127C28.3544 14.926 28.2592 14.6909 28.2578 14.4859V8.41306C28.2578 8.39525 28.2573 8.37745 28.2563 8.35966C28.2558 8.34889 28.256 8.32911 28.2597 8.30298C28.2633 8.27716 28.2694 8.25137 28.2772 8.22827C28.2804 8.21887 28.2836 8.21081 28.2865 8.20407C28.2887 8.20343 28.291 8.20276 28.2935 8.20208C28.2963 8.20129 28.2993 8.20048 28.3026 8.19965C28.3638 8.18389 28.4539 8.17174 28.5928 8.16482C28.6483 8.16781 28.6889 8.17147 28.7201 8.17561C28.7476 8.17925 28.7634 8.18271 28.7712 8.18471C28.7737 8.18678 28.7771 8.18973 28.7814 8.19376C28.81 8.22046 28.8223 8.24242 28.8273 8.25409C28.832 8.26518 28.8319 8.27075 28.8318 8.27286C28.831 8.28941 28.8306 8.30598 28.8306 8.32256V13.2797C28.8306 13.8319 29.2783 14.2797 29.8306 14.2797C30.3828 14.2797 30.8306 13.8319 30.8306 13.2797V8.34329C30.8528 7.71794 30.5858 7.14266 30.1471 6.73266C29.6367 6.25558 29.0954 6.18414 28.6367 6.16467C28.6094 6.16351 28.582 6.16347 28.5546 6.16456C28.1868 6.17918 27.4663 6.22232 26.9204 6.73266C26.4076 7.21199 26.2378 7.91363 26.2578 8.43533V14.4887L26.2578 14.4931C26.2616 15.3379 26.658 16.1081 27.2928 16.6491C27.6647 16.9661 28.1372 17.1589 28.5471 17.2745C28.971 17.394 29.4244 17.4577 29.8273 17.459L29.8338 17.459C30.6132 17.4564 31.5564 17.2156 32.221 16.6491C32.8558 16.1081 33.2523 15.3379 33.2561 14.4931L33.2561 5.95703H34.8655C35.4178 5.95703 35.8655 6.40474 35.8655 6.95703V40.957C35.8655 41.5093 35.4178 41.957 34.8655 41.957H11.8655C11.3132 41.957 10.8655 41.5093 10.8655 40.957V6.95703C10.8655 6.40474 11.3132 5.95703 11.8655 5.95703H31.2561ZM31.0734 3.95703C31.0316 3.90418 30.9819 3.85246 30.9237 3.80281C30.6839 3.59846 30.3305 3.46195 29.9346 3.45901C29.5413 3.46513 29.1919 3.60274 28.9553 3.80634C28.8989 3.85492 28.8506 3.90544 28.8098 3.95703H31.0734Z" fill="#620F12"/>
<path fill-rule="evenodd" clip-rule="evenodd" d="M12.8655 13.957C12.8655 13.4047 13.3132 12.957 13.8655 12.957H23.8655C24.4178 12.957 24.8655 13.4047 24.8655 13.957C24.8655 14.5093 24.4178 14.957 23.8655 14.957H13.8655C13.3132 14.957 12.8655 14.5093 12.8655 13.957Z" fill="#620F12"/>
<path fill-rule="evenodd" clip-rule="evenodd" d="M12.8655 18.957C12.8655 18.4047 13.3132 17.957 13.8655 17.957H32.8655C33.4178 17.957 33.8655 18.4047 33.8655 18.957C33.8655 19.5093 33.4178 19.957 32.8655 19.957H13.8655C13.3132 19.957 12.8655 19.5093 12.8655 18.957Z" fill="#620F12"/>
<path fill-rule="evenodd" clip-rule="evenodd" d="M12.8655 23.957C12.8655 23.4047 13.3132 22.957 13.8655 22.957H32.8655C33.4178 22.957 33.8655 23.4047 33.8655 23.957C33.8655 24.5093 33.4178 24.957 32.8655 24.957H13.8655C13.3132 24.957 12.8655 24.5093 12.8655 23.957Z" fill="#620F12"/>
<path fill-rule="evenodd" clip-rule="evenodd" d="M12.8655 28.957C12.8655 28.4047 13.3132 27.957 13.8655 27.957H32.8655C33.4178 27.957 33.8655 28.4047 33.8655 28.957C33.8655 29.5093 33.4178 29.957 32.8655 29.957H13.8655C13.3132 29.957 12.8655 29.5093 12.8655 28.957Z" fill="#620F12"/>
<path fill-rule="evenodd" clip-rule="evenodd" d="M12.885 33.957C12.885 33.4047 13.3327 32.957 13.885 32.957H32.885C33.4373 32.957 33.885 33.4047 33.885 33.957C33.885 34.5093 33.4373 34.957 32.885 34.957H13.885C13.3327 34.957 12.885 34.5093 12.885 33.957Z" fill="#620F12"/>
</svg>
