<svg width="48" height="48" viewBox="0 0 48 48" fill="none" xmlns="http://www.w3.org/2000/svg">
<path d="M35 4.33398C35 3.7817 35.4477 3.33398 36 3.33398H39C39.5523 3.33398 40 3.7817 40 4.33398V15.334C40 15.8863 39.5523 16.334 39 16.334H36C35.4477 16.334 35 15.8863 35 15.334V4.33398Z" fill="white"/>
<path fill-rule="evenodd" clip-rule="evenodd" d="M34 2C33.4477 2 33 2.44772 33 3C33 3.55228 33.4477 4 34 4H34.0278C34.0095 4.10869 34 4.22035 34 4.33423V15.3342C34 16.4388 34.8954 17.3342 36 17.3342H39C40.1046 17.3342 41 16.4388 41 15.3342V4.33423C41 4.22035 40.9905 4.10869 40.9722 4H41C41.5523 4 42 3.55228 42 3C42 2.44772 41.5523 2 41 2H34ZM36 4.33423H39V15.3342H36V4.33423Z" fill="#620F12"/>
<path d="M9.44444 32.7784H38.5556C39.3533 32.7784 40 32.1317 40 31.334V12.8794L24 3.33398L8 12.8794V31.334C8 32.1317 8.6467 32.7784 9.44444 32.7784Z" fill="#D92228"/>
<path d="M22.3847 2.53442L6.16591 14.5855C5.43239 15.1306 5 15.9905 5 16.9044V19.3453C5 20.1673 5.93663 20.6383 6.59642 20.148L24 7.21656L41.4036 20.148C42.0634 20.6383 43 20.1673 43 19.3453V16.9044C43 15.9905 42.5676 15.1306 41.8341 14.5855L25.6153 2.53442C24.6563 1.82186 23.3437 1.82186 22.3847 2.53442Z" fill="white"/>
<path fill-rule="evenodd" clip-rule="evenodd" d="M25.0189 3.3371C24.414 2.88763 23.586 2.88763 22.9811 3.3371L6.76233 15.3882C6.28271 15.7446 6 16.3069 6 16.9044V19.3453L24 5.97072L42 19.3453L42 16.9044C42 16.3069 41.7173 15.7446 41.2377 15.3882L25.0189 3.3371ZM21.7883 1.73174C23.1014 0.756085 24.8986 0.756086 26.2117 1.73174L42.4305 13.7829C43.4179 14.5166 44 15.6742 44 16.9044V19.3453C44 20.9893 42.1268 21.9312 40.8072 20.9507L24 8.46239L7.19283 20.9507C5.87326 21.9312 4 20.9893 4 19.3453V16.9044C4 15.6742 4.58206 14.5166 5.56949 13.7829L21.7883 1.73174Z" fill="#620F12"/>
<path d="M18.8667 22.8073L10.4667 25.97H10V36.5117L13.2667 39.2227L21.2 46L31.4667 39.6745L38 37.8672V24.6146L28.2 21L21.2 23.7109L18.8667 22.8073Z" fill="white"/>
<path fill-rule="evenodd" clip-rule="evenodd" d="M15.2681 39.5751L13.6286 37.6843C12.8625 36.8802 12.2696 36.6195 11.7881 36.4077C11.486 36.2749 11.2278 36.1613 10.998 35.945L10.4277 26.6821L17.6617 24.033C18.7552 23.6325 19.969 23.7285 20.9859 24.2959L24.4524 26.2297L23.9525 26.5422C23.4925 26.8297 23.1408 27.2171 22.9038 27.656C22.3109 28.7535 22.4344 30.1727 23.3701 31.1552L28.4848 36.5254C29.2148 37.2126 30.5456 38.4653 29.9804 39.0657C29.3379 39.7483 28.8687 39.6479 28.5044 39.5699C28.2733 39.5204 28.0844 39.48 27.9203 39.6544C27.7302 39.8563 27.7331 40.0687 27.7363 40.3025C27.7403 40.5889 27.7446 40.9075 27.3955 41.2785C27.0783 41.6154 26.6536 41.5333 26.2289 41.4512C25.8042 41.3691 25.3794 41.287 25.0623 41.6239C24.744 41.9621 24.7306 42.245 24.7173 42.5268C24.704 42.8065 24.6909 43.0851 24.3797 43.4157C24.1344 43.6763 23.7331 43.537 23.3438 43.4019C22.977 43.2746 22.6209 43.1509 22.4158 43.3688C22.2246 43.5719 22.1534 43.7147 22.0859 43.8502C22.004 44.0145 21.9275 44.168 21.6493 44.4048C20.6335 45.2696 16.8679 41.273 15.4083 39.7239C15.3589 39.6714 15.312 39.6217 15.2681 39.5751ZM29.8952 35.1063L24.8184 29.7758C24.3818 29.3174 24.4756 28.5737 25.0125 28.2382L28.3823 26.132L21.9603 22.5493C20.4349 21.6983 18.6142 21.5543 16.9739 22.155L8.33991 25.3168L9.05043 36.8584L9.62714 37.4013C9.9734 37.7272 10.3251 37.9277 10.6025 38.0642C10.7342 38.1289 10.8632 38.1858 10.958 38.2275L10.9785 38.2365C11.0729 38.278 11.1439 38.3093 11.2176 38.344C11.454 38.4552 11.7409 38.6095 12.1507 39.0327L13.7846 40.9172L13.8135 40.9478C13.8582 40.9952 13.9064 41.0463 13.9579 41.101C14.6574 41.8437 15.9607 43.2274 17.2461 44.3593C17.9235 44.9558 18.6934 45.5705 19.4306 45.9778C19.7918 46.1774 20.2692 46.3979 20.8045 46.4859C21.3587 46.5769 22.2108 46.5533 22.9458 45.9277C23.1056 45.7916 23.2523 45.6493 23.3855 45.495C23.5011 45.5191 23.6244 45.5391 23.7503 45.5505C24.28 45.5986 25.1462 45.5193 25.836 44.7865C26.1916 44.4087 26.4386 43.9865 26.5771 43.5227C26.5777 43.5208 26.5782 43.519 26.5788 43.5171C26.7023 43.5244 26.8333 43.5263 26.9663 43.5187C27.5649 43.4846 28.2726 43.2646 28.8518 42.6493C29.1594 42.3225 29.3904 41.9592 29.539 41.5625C29.6646 41.5366 29.7947 41.5016 29.9286 41.4554C30.5154 41.2524 31.0113 40.8885 31.4367 40.4366C32.197 39.6289 32.1932 38.6452 32.0203 37.9969C31.8663 37.4193 31.5529 36.943 31.322 36.6331C30.8624 36.0163 30.2408 35.4313 29.8952 35.1063Z" fill="#620F12"/>
<path fill-rule="evenodd" clip-rule="evenodd" d="M27.6323 25.8454L22.9875 27.788C21.494 28.384 19.8033 27.6827 19.1462 26.1947C18.4892 24.7068 20.1772 24.4757 21.6077 23.7373L26.2488 21.4451C27.2698 20.9272 28.4552 20.8582 29.5277 21.2541L38 24.551" fill="white"/>
<path fill-rule="evenodd" clip-rule="evenodd" d="M38.99 37.8587C39.0681 38.4054 38.6882 38.912 38.1414 38.9901L31.1414 39.9901C30.5947 40.0682 30.0882 39.6883 30.0101 39.1415C29.932 38.5948 30.3118 38.0883 30.8586 38.0102L37.8586 37.0102C38.4053 36.9321 38.9118 37.312 38.99 37.8587Z" fill="#620F12"/>
<path fill-rule="evenodd" clip-rule="evenodd" d="M29.1737 22.1894C28.3647 21.8932 27.472 21.946 26.7012 22.3369L26.6917 22.3418L26.6917 22.3417L22.0583 24.6301C21.7164 24.806 21.3612 24.9564 21.06 25.0838C21.0116 25.1043 20.9645 25.1242 20.9192 25.1435C20.5625 25.2955 20.3147 25.4096 20.1379 25.5242C20.0663 25.5706 20.0258 25.6049 20.0042 25.6258C20.0105 25.6573 20.0256 25.7104 20.061 25.7908C20.5038 26.7935 21.6275 27.2498 22.61 26.862L27.2465 24.9228C27.756 24.7097 28.3418 24.95 28.5549 25.4596C28.768 25.9691 28.5277 26.5549 28.0182 26.768L23.3733 28.7106L23.3581 28.7168C21.3552 29.516 19.1018 28.5696 18.2315 26.5987C17.9998 26.0739 17.9095 25.5038 18.1128 24.945C18.3074 24.4098 18.7073 24.068 19.0504 23.8457C19.3923 23.6241 19.7936 23.4491 20.1353 23.3035C20.1876 23.2813 20.239 23.2594 20.2898 23.2379C20.5971 23.1077 20.8779 22.9887 21.1491 22.8487L21.1649 22.8407L25.8015 20.5507C27.0692 19.9095 28.5418 19.8242 29.874 20.316L29.8903 20.3222L38.3627 23.6191C38.8774 23.8193 39.1322 24.3989 38.932 24.9136C38.7317 25.4283 38.1521 25.6832 37.6374 25.4829L29.1737 22.1894ZM20.0005 25.5892C20.0008 25.5893 20.0009 25.5922 20.0003 25.5975C19.9999 25.5917 20.0003 25.5891 20.0005 25.5892Z" fill="#620F12"/>
<path fill-rule="evenodd" clip-rule="evenodd" d="M6 26.1387C6 24.7038 7.47532 24 9.02476 24C10.4566 24 9.88897 24 9.88897 24L9.88897 39C9.88897 39 10.4566 39 9.02476 39C7.47532 39 6 38.2962 6 36.8613L6 26.1387Z" fill="#D92228"/>
<path fill-rule="evenodd" clip-rule="evenodd" d="M42 26.1387C42 24.7038 40.5247 24 38.9752 24C37.5434 24 38.111 24 38.111 24L38.111 39C38.111 39 37.5434 39 38.9752 39C40.5247 39 42 38.2962 42 36.8613L42 26.1387Z" fill="white"/>
<path fill-rule="evenodd" clip-rule="evenodd" d="M9.02472 22C7.98564 22 6.82959 22.23 5.86327 22.8404C4.83231 23.4916 4 24.6126 4 26.1387L4 36.8613C4 38.3874 4.83231 39.5084 5.86326 40.1596C6.82958 40.77 7.98565 41 9.02476 41L9.11223 41C10.0172 41 10.8384 40.5882 11.3526 39.8447C11.7944 39.206 11.889 38.501 11.889 38L11.889 25C11.889 24.499 11.7944 23.794 11.3526 23.1553C10.8385 22.4118 10.0172 22 9.11223 22L9.02472 22ZM9.02476 24C7.47532 24 6 24.7038 6 26.1387L6 36.8613C6 38.2962 7.47532 39 9.02476 39L9.11223 39C9.66451 39 9.88898 38.5523 9.88898 38L9.88898 25C9.88898 24.4477 9.66451 24 9.11223 24L9.02476 24Z" fill="#620F12"/>
<path fill-rule="evenodd" clip-rule="evenodd" d="M38.9753 22C40.0144 22 41.1704 22.23 42.1367 22.8404C43.1677 23.4916 44 24.6126 44 26.1387L44 36.8613C44 38.3874 43.1677 39.5084 42.1367 40.1596C41.1704 40.77 40.0143 41 38.9752 41L38.8878 41C37.9828 41 37.1616 40.5882 36.6474 39.8447C36.2056 39.206 36.111 38.501 36.111 38L36.111 25C36.111 24.499 36.2056 23.794 36.6474 23.1553C37.1615 22.4118 37.9828 22 38.8878 22L38.9753 22ZM38.9752 24C40.5247 24 42 24.7038 42 26.1387L42 36.8613C42 38.2962 40.5247 39 38.9752 39L38.8878 39C38.3355 39 38.111 38.5523 38.111 38L38.111 25C38.111 24.4477 38.3355 24 38.8878 24L38.9752 24Z" fill="#620F12"/>
</svg>
