<svg width="48" height="48" viewBox="0 0 48 48" fill="none" xmlns="http://www.w3.org/2000/svg">
<path d="M22 25L25 22L34 31L31 34L22 25Z" fill="white"/>
<path fill-rule="evenodd" clip-rule="evenodd" d="M25 20.5859L35.4142 31.0002L31 35.4144L20.5858 25.0002L25 20.5859ZM23.4142 25.0002L31 32.5859L32.5858 31.0002L25 23.4144L23.4142 25.0002Z" fill="#620F12"/>
<path d="M29.4142 35.4144C28.6332 34.6334 28.6332 33.367 29.4142 32.586L32.5858 29.4144C33.3668 28.6334 34.6332 28.6334 35.4142 29.4144L45.5858 39.586C46.3668 40.367 46.3668 41.6334 45.5858 42.4144L42.4142 45.586C41.6332 46.367 40.3668 46.367 39.5858 45.586L29.4142 35.4144Z" fill="#D92228"/>
<path d="M31 16C31 24.2843 24.2843 31 16 31C7.71573 31 1 24.2843 1 16C1 7.71573 7.71573 1 16 1C24.2843 1 31 7.71573 31 16Z" fill="white"/>
<path fill-rule="evenodd" clip-rule="evenodd" d="M16 29C23.1797 29 29 23.1797 29 16C29 8.8203 23.1797 3 16 3C8.8203 3 3 8.8203 3 16C3 23.1797 8.8203 29 16 29ZM16 31C24.2843 31 31 24.2843 31 16C31 7.71573 24.2843 1 16 1C7.71573 1 1 7.71573 1 16C1 24.2843 7.71573 31 16 31Z" fill="#620F12"/>
<path d="M11.4444 23H20.5556C21.3533 23 22 22.3533 22 21.5556V15L16 9L10 15V21.5556C10 22.3533 10.6467 23 11.4444 23Z" fill="#D92228"/>
<path fill-rule="evenodd" clip-rule="evenodd" d="M17.208 10.6224C16.5408 9.95528 15.4592 9.95528 14.792 10.6224L8.70711 16.7073C8.31658 17.0979 7.68342 17.0979 7.29289 16.7073C6.90237 16.3168 6.90237 15.6837 7.29289 15.2931L13.3778 9.20821C14.826 7.76002 17.174 7.76002 18.6222 9.20822L24.7071 15.2931C25.0976 15.6837 25.0976 16.3168 24.7071 16.7073C24.3166 17.0979 23.6834 17.0979 23.2929 16.7073L17.208 10.6224Z" fill="#620F12"/>
<path d="M22 10C22.5523 10 23 10.4477 23 11V15L21 13V11C21 10.4477 21.4477 10 22 10Z" fill="#620F12"/>
<path d="M14 18C14 17.4477 14.4477 17 15 17H17C17.5523 17 18 17.4477 18 18V23H14V18Z" fill="#620F12"/>
</svg>
