<svg width="48" height="48" viewBox="0 0 48 48" fill="none" xmlns="http://www.w3.org/2000/svg">
<path d="M26.2157 3H39.9997C42.2089 3 43.9997 4.79087 43.9997 7V20.8685C43.9997 21.6641 43.6837 22.4272 43.1211 22.9898L22.0955 44.0154C20.9787 45.1322 19.1872 45.1918 17.9986 44.1518L2.91724 30.9556C1.86417 30.0342 1.77239 28.4279 2.71365 27.3925L23.9959 3.98198C24.5645 3.35656 25.3705 3 26.2157 3Z" fill="white"/>
<path fill-rule="evenodd" clip-rule="evenodd" d="M23.256 3.30931C24.0141 2.47541 25.0888 2 26.2157 2H39.9997C42.7612 2 44.9997 4.23858 44.9997 7V20.8685C44.9997 21.9293 44.5783 22.9468 43.8282 23.6969L22.8026 44.7225C21.3135 46.2116 18.9249 46.2911 17.3401 44.9044L2.25875 31.7082C0.784452 30.4182 0.655959 28.1693 1.97372 26.7198L23.256 3.30931ZM26.2157 4C25.6523 4 25.1149 4.23771 24.7359 4.65465L3.4536 28.0651C2.88885 28.6864 2.94392 29.6502 3.57576 30.203L18.6571 43.3992C19.4495 44.0926 20.6438 44.0528 21.3884 43.3083L42.414 22.2827C42.789 21.9076 42.9997 21.3989 42.9997 20.8685V7C42.9997 5.34315 41.6566 4 39.9997 4H26.2157Z" fill="#620F12"/>
<path d="M40 9.5C40 10.8807 38.8807 12 37.5 12C36.1193 12 35 10.8807 35 9.5C35 8.11929 36.1193 7 37.5 7C38.8807 7 40 8.11929 40 9.5Z" fill="#620F12"/>
<path d="M8.44445 30H26.5556C27.3533 30 28 29.3533 28 28.5556V13.2727L17.5 7L7 13.2727V28.5556C7 29.3533 7.6467 30 8.44445 30Z" fill="white"/>
<path d="M28 28V14.0278L17 6L6 14.0278V28C6 29.1046 6.89543 30 8 30H26C27.1046 30 28 29.1046 28 28Z" fill="#D92228"/>
<path d="M21 23C21 21.8954 20.1046 21 19 21H15C13.8954 21 13 21.8954 13 23V30H21V23Z" fill="white"/>
<path fill-rule="evenodd" clip-rule="evenodd" d="M18.0416 7.06276C17.4276 6.59041 16.5725 6.59041 15.9585 7.06276L4.60976 15.7925C4.17201 16.1293 3.54416 16.0474 3.20743 15.6096C2.87069 15.1719 2.95258 14.544 3.39034 14.2073L14.739 5.47752C16.072 4.45216 17.9281 4.45216 19.2611 5.47752L30.6098 14.2073C31.0475 14.544 31.1294 15.1719 30.7927 15.6096C30.4559 16.0474 29.8281 16.1293 29.3903 15.7925L18.0416 7.06276Z" fill="#620F12"/>
<path d="M20 14C20 15.6569 18.6569 17 17 17C15.3431 17 14 15.6569 14 14C14 12.3431 15.3431 11 17 11C18.6569 11 20 12.3431 20 14Z" fill="white"/>
<path d="M28 8C28.5523 8 29 8.44772 29 9V14L27 13V9C27 8.44772 27.4477 8 28 8Z" fill="#620F12"/>
</svg>
