<svg width="32" height="32" viewBox="0 0 32 32" fill="none" xmlns="http://www.w3.org/2000/svg">
<path d="M3.33333 25.4761L11.4761 17.3334L15.9998 21.8571L7.85708 29.9999L7.4047 25.9285L3.33333 25.4761Z" fill="white"/>
<path d="M24.8094 29.9998L16.6666 21.8571L21.1904 17.3333L29.3331 25.4761L25.2617 25.9284L24.8094 29.9998Z" fill="white"/>
<path fill-rule="evenodd" clip-rule="evenodd" d="M16.3331 21.2478L11.4758 16.3905L3.09168 24.7747C2.65115 25.2152 2.92585 25.9696 3.54648 26.0238L6.74864 26.3031L7.02803 29.5053C7.08217 30.1259 7.8366 30.4006 8.27713 29.9601L16.052 22.1852L24.108 30.2412C24.5486 30.6817 25.303 30.407 25.3571 29.7864L25.6365 26.5842L28.8387 26.3049C29.4593 26.2507 29.734 25.4963 29.2935 25.0558L20.9093 16.6716L16.3331 21.2478ZM4.94461 24.8073L11.4758 18.2761L14.7757 21.576L8.24444 28.1072L8.07693 26.1873C8.02067 25.5424 7.50938 25.0311 6.86453 24.9749L4.94461 24.8073ZM24.1407 28.3883L17.6095 21.8571L20.9093 18.5572L27.4406 25.0885L25.5206 25.256C24.8758 25.3122 24.3645 25.8235 24.3082 26.4684L24.1407 28.3883Z" fill="#620F12"/>
<path d="M14.4646 2.94883C15.21 1.85332 16.8249 1.85332 17.5703 2.94883L18.7468 4.6778L20.7497 3.94309C22.0182 3.47776 23.3484 4.46393 23.2718 5.81296L23.1629 7.72928L25.0867 8.21639C26.4365 8.55817 26.9582 10.1984 26.0538 11.2572L24.8497 12.6667L26.0538 14.0762C26.9582 15.1349 26.4365 16.7752 25.0867 17.117L23.1629 17.6041L23.2718 19.5204C23.3484 20.8694 22.0182 21.8556 20.7497 21.3903L18.7468 20.6555L17.5703 22.3845C16.8249 23.48 15.21 23.48 14.4646 22.3845L13.2881 20.6555L11.2852 21.3903C10.0167 21.8556 8.68655 20.8694 8.76316 19.5204L8.87199 17.6041L6.94819 17.117C5.59837 16.7752 5.0767 15.1349 5.9811 14.0762L7.18517 12.6667L5.9811 11.2572C5.0767 10.1984 5.59837 8.55817 6.94819 8.21639L8.87199 7.72928L8.76316 5.81296C8.68655 4.46393 10.0167 3.47776 11.2852 3.94309L13.2881 4.6778L14.4646 2.94883Z" fill="#D92228"/>
<path fill-rule="evenodd" clip-rule="evenodd" d="M13.9134 2.57383C14.9234 1.08949 17.1115 1.08949 18.1215 2.57383L19.0054 3.87286L20.5201 3.31725C22.2389 2.68675 24.0412 4.02295 23.9374 5.8508L23.8597 7.21804L25.2504 7.57016C27.0793 8.03325 27.7861 10.2557 26.5607 11.6902L25.7266 12.6667L26.5607 13.6432C27.7861 15.0777 27.0793 17.3002 25.2504 17.7633L23.8597 18.1154L23.9374 19.4826C24.0412 21.3105 22.2389 22.6467 20.5201 22.0162L19.0054 21.4606L18.1215 22.7596C17.1115 24.2439 14.9234 24.2439 13.9134 22.7596L13.0295 21.4606L11.5148 22.0162C9.79604 22.6467 7.99377 21.3105 8.09758 19.4826L8.17523 18.1154L6.78457 17.7633C4.95564 17.3002 4.24881 15.0777 5.47422 13.6432L6.30839 12.6667L5.47422 11.6902C4.24881 10.2557 4.95564 8.03325 6.78457 7.57016L8.17523 7.21804L8.09758 5.8508C7.99377 4.02295 9.79605 2.68675 11.5148 3.31725L13.0295 3.87286L13.9134 2.57383ZM17.0192 3.32391C16.5383 2.61724 15.4966 2.61724 15.0158 3.32391L13.8393 5.05288C13.6674 5.3056 13.3455 5.409 13.0586 5.30372L11.0557 4.56902C10.2374 4.26885 9.37935 4.90499 9.42877 5.7752L9.5376 7.69152C9.5557 8.01033 9.3452 8.29721 9.03564 8.37559L7.11185 8.8627C6.24113 9.08317 5.90462 10.1412 6.48802 10.8242L7.69208 12.2337C7.90511 12.4831 7.90511 12.8504 7.69208 13.0997L6.48801 14.5092C5.90462 15.1922 6.24113 16.2503 7.11185 16.4707L9.03564 16.9578C9.3452 17.0362 9.5557 17.3231 9.5376 17.6419L9.42877 19.5582C9.37935 20.4284 10.2374 21.0646 11.0557 20.7644L13.0586 20.0297C13.3455 19.9244 13.6674 20.0278 13.8393 20.2805L15.0158 22.0095C15.4966 22.7162 16.5383 22.7162 17.0192 22.0095L18.1956 20.2805C18.3676 20.0278 18.6894 19.9244 18.9764 20.0297L20.9793 20.7644C21.7976 21.0646 22.6556 20.4284 22.6062 19.5582L22.4973 17.6419C22.4792 17.3231 22.6897 17.0362 22.9993 16.9578L24.9231 16.4707C25.7938 16.2503 26.1303 15.1922 25.5469 14.5092L24.3429 13.0997C24.1298 12.8504 24.1298 12.4831 24.3429 12.2337L25.5469 10.8242C26.1303 10.1412 25.7938 9.08317 24.9231 8.8627L22.9993 8.37559C22.6897 8.29721 22.4792 8.01033 22.4973 7.69152L22.6062 5.7752C22.6556 4.90499 21.7976 4.26885 20.9793 4.56902L18.9764 5.30372C18.6894 5.409 18.3676 5.3056 18.1956 5.05288L17.0192 3.32391Z" fill="#D92228"/>
<path d="M22.6842 12.6667C22.6842 16.3486 19.6994 19.3333 16.0175 19.3333C12.3356 19.3333 9.35083 16.3486 9.35083 12.6667C9.35083 8.98477 12.3356 6 16.0175 6C19.6994 6 22.6842 8.98477 22.6842 12.6667Z" fill="white"/>
<path fill-rule="evenodd" clip-rule="evenodd" d="M16 8C15.4925 8 15.0289 8.28813 14.8043 8.74325L14.1349 10.0996L12.6381 10.3171C12.1358 10.3901 11.7185 10.7419 11.5617 11.2246C11.4049 11.7073 11.5357 12.2371 11.8991 12.5914L12.9822 13.6472L12.7266 15.138C12.6408 15.6382 12.8464 16.1438 13.257 16.4421C13.6676 16.7404 14.2119 16.7797 14.6611 16.5436L16 15.8397L17.3388 16.5436C17.788 16.7797 18.3324 16.7404 18.743 16.4421C19.1536 16.1438 19.3592 15.6382 19.2734 15.138L19.0177 13.6472L20.1009 12.5914C20.4643 12.2371 20.5951 11.7073 20.4382 11.2246C20.2814 10.7419 19.8641 10.3901 19.3619 10.3171L17.865 10.0996L17.1956 8.74325C16.971 8.28813 16.5075 8 16 8ZM16.9796 11.3183L19.1702 11.6366L17.5851 13.1817L17.9593 15.3634L16 14.3333L14.0407 15.3634L14.4149 13.1817L12.8298 11.6366L15.0203 11.3183L16 9.33333L16.9796 11.3183Z" fill="#620F12"/>
</svg>
