<svg width="48" height="48" viewBox="0 0 48 48" fill="none" xmlns="http://www.w3.org/2000/svg">
<path d="M30.8 11.7c-1.2 1.2-1.2 3.07 0 4.24l1.26 1.26c1.17 1.17 3.07 1.17 4.24 0l5.4-5.4a11 11 0 0 1-14.55 14.36L13.2 38.9a3.9 3.9 0 0 1-5.5-5.5l12.74-13.95A11 11 0 0 1 34.8 4.9l-4 6.8z" fill="#620F12"/>
<path d="M29.8 10.7c-1.2 1.2-1.2 3.07 0 4.24l1.26 1.26c1.17 1.17 3.07 1.17 4.24 0l5.4-5.4a11 11 0 0 1-14.55 14.36L12.2 37.9a3.9 3.9 0 0 1-5.5-5.5l13.74-12.95A11 11 0 0 1 33.8 3.9l-4 6.8z" fill="#D92228"/>
<circle cx="11" cy="33" r="2" fill="#fff"/>
</svg>
