<svg width="75" height="71" viewBox="0 0 75 71" fill="none" xmlns="http://www.w3.org/2000/svg">
<path d="M26.1528 70.9979L19.7769 60.2523L7.67011 57.5994L8.85185 45.1362L0.648438 35.7502L8.85185 26.3641L7.67011 13.9009L19.7769 11.248L26.1528 0.502441L37.5451 5.33927L48.9373 0.502441L55.3132 11.248L67.42 13.9009L66.2383 26.3641L74.4417 35.7502L66.2383 45.1362L67.42 57.5994L55.3132 60.2523L48.9373 70.9979L37.5451 66.161L26.1528 70.9979ZM28.4341 64.1548L37.5451 60.2934L46.7659 64.1548L51.8367 55.5798L61.6622 53.3262L60.769 43.2533L67.3789 35.7502L60.769 28.1372L61.6622 18.0642L51.8367 15.9205L46.656 7.34547L37.5451 11.2069L28.3243 7.34547L23.2534 15.9205L13.4279 18.0642L14.3211 28.1372L7.7112 35.7502L14.3211 43.2533L13.4279 53.4361L23.2534 55.5798L28.4341 64.1548ZM33.7935 47.1969L52.7434 28.247L48.9784 24.3722L33.7935 39.5571L26.1117 31.9852L22.3468 35.7502L33.7935 47.1969Z" fill="#42CC93"/>
</svg>
